<svg width="3108" height="1065" viewBox="0 0 3108 1065" fill="none" xmlns="http://www.w3.org/2000/svg">
<path d="M7.86646 1050.99C33.2969 1063.7 68.5285 1054.32 94.9711 1049.47C150.391 1039.31 201.862 1014.78 248.881 984.181C290.571 957.05 323.474 930.571 352.043 889.502C389.871 835.125 418.27 775.085 452.327 718.323C592.102 485.365 774.649 270.385 1010.71 130.556C1125.16 62.7608 1262.63 1.75214 1398.66 8.45799C1513.57 14.1225 1628.47 56.0053 1722.99 121.315C1813.23 183.663 1877.55 270.481 1927.5 367.178C1982.67 473.99 1993.9 589.42 1914.78 688.329C1873.81 739.541 1784.63 809.129 1717.54 761.648C1690.07 742.206 1687.85 701.791 1692.39 671.514C1701.23 612.58 1738.36 560.142 1779.2 518.664C1871.03 425.379 1999.98 375.729 2130.19 379.297C2278.33 383.355 2411.56 458.627 2553.44 491.396C2714.38 528.566 2915.67 504.133 3020.32 361.421C3077.44 283.539 3100 183.328 3100 88.4427" stroke="#26D067" stroke-width="15" stroke-linecap="round"/>
</svg>
