<svg width="1621" height="996" viewBox="0 0 1621 996" fill="none" xmlns="http://www.w3.org/2000/svg">
<path d="M118.757 12.5662C121.044 9.9525 114.773 17.1133 113.719 19.2854C109.747 27.463 112.603 37.6955 113.812 46.1618C115.641 58.965 118.614 78.0502 108.68 89.0895C88.8608 111.115 81.8735 144.152 66.6931 169.159C58.1529 183.228 48.097 193.985 38.7018 207.141C28.1436 221.925 40.503 235.283 33.4767 251.095C28.2266 262.91 27.6222 277.424 22.2802 289.636C19.6708 295.602 16.2807 300.265 12.8565 305.688C7.9063 313.527 10.7907 318.05 11.2703 326.685C12.3137 345.468 9.78654 367.9 13.7895 386.317C16.8317 400.314 29.7445 404.837 29.7445 420.192C29.7445 445.311 28.8533 474.561 39.075 497.929C47.5894 517.394 53.1967 539.817 63.3341 558.494C72.2461 574.914 95.6708 573.744 108.587 585.371C124.214 599.438 137.743 618.706 143.576 639.124C155.104 679.479 215.258 643.254 238 666" stroke="black" stroke-width="20" stroke-linecap="round"/>
<path d="M235 664.621C235 656.234 248.918 682.956 249.737 686.299C254.755 706.789 276.557 719.922 292.922 731.23C308.289 741.847 327.212 746.33 345.807 746.33C370.027 746.33 394.087 753 418 753" stroke="black" stroke-width="20" stroke-linecap="round"/>
<path d="M423 759.917C451.024 731.882 483.054 736.837 501.926 772.61C512.055 791.809 522.745 810.454 536.352 827.207C544.852 837.673 573.026 867.809 588.876 863.699C599.395 860.971 604.68 838.873 613.692 838.873C627.184 838.873 662.691 854.132 668.549 867.805C671.468 874.619 677.13 883.752 678.158 890.951C678.997 896.825 678.654 903.798 680.957 909.43C684.334 917.689 696.187 923.092 698.309 930.522C700.221 937.214 706.049 943.958 710.997 948.908C720.686 958.6 765.065 1009.32 772.291 973.173C777.957 944.833 785.829 926.872 806.25 906.443C817.479 895.21 831.632 887.025 842.821 875.831C847.686 870.964 846.545 862.78 852.15 858.192C860.546 851.321 872.707 854.105 882.284 855.579C896.107 857.707 904.928 855.63 918.762 852.686C939.081 848.361 956.85 849.877 977.071 852.406C985.157 853.417 995.908 854.668 1003.29 857.352C1007.5 858.884 1012.97 862.657 1017.47 862.392C1023.46 862.039 1020.37 842.698 1022.88 839.246C1025.74 835.307 1026.4 835.513 1031.83 835.513C1046.2 835.513 1060.39 833.529 1074.56 831.313C1100.8 827.212 1126.69 834.779 1153.12 827.487C1166.29 823.852 1189.13 833.104 1202.37 835.513C1224.77 839.588 1251.37 853.415 1264.32 872.845C1273.82 887.097 1266.12 906.169 1277.1 921.376C1284.59 931.752 1296.77 936.89 1304.62 946.761C1311.42 955.309 1316.27 967.873 1326.45 973.267C1330.11 975.201 1342.51 984.412 1346.23 983.346C1357.9 980.011 1377.24 952.754 1371.8 939.295C1366.47 926.13 1352.21 916.718 1342.41 906.91C1332.18 896.674 1327.59 883.837 1322.26 870.792C1311.98 845.659 1309.66 820.554 1309.66 793.515C1309.66 762.778 1310.27 732.687 1330.84 707.746C1354.35 679.238 1390.72 665.384 1416.3 639.803C1433.11 622.983 1442.24 602.499 1450.72 580.539C1458.49 560.429 1446.38 538.131 1438.13 519.782C1432.81 507.952 1427.21 493.601 1427.21 480.49C1427.21 464.23 1432.29 469.137 1440.65 475.637C1465.69 495.119 1475.41 467.882 1470.5 445.772C1467.64 432.881 1456.6 420.377 1461.82 406.76C1470.37 384.458 1486.15 363.767 1508.47 354.403C1520.6 349.313 1530.07 339.381 1542.34 334.897C1550.27 331.997 1557.46 325.874 1563.23 319.778C1567.89 314.865 1577.16 309.232 1576.58 301.858C1576.26 297.917 1571.62 274.526 1564.07 283.753C1548.85 302.364 1537.68 275.355 1541.4 260.234C1545.5 243.58 1552.15 228.479 1557.36 212.263C1561.77 198.537 1576.38 191.57 1586.93 182.771C1598.54 173.09 1615.6 156.178 1608.2 139.466C1603.77 129.442 1590.38 129.129 1581.71 124.907C1560.04 114.365 1549.97 67.5373 1527.22 103.161C1515.58 121.398 1511.32 136.827 1506.98 157.572C1503.61 173.676 1498.38 184.818 1482.63 191.264C1464.09 198.852 1442.12 199.859 1422.55 205.543C1407.56 209.897 1375.96 216.553 1373.57 235.688C1371.15 255.019 1379.79 267.297 1360.41 281.139C1344.68 292.381 1333.61 285.094 1316.75 289.912C1300.88 294.45 1309.66 311.774 1301.17 323.977C1286.95 344.432 1271.57 357.51 1248.83 366.815C1234.7 372.599 1199.79 386.729 1213.1 360.096C1222.25 341.798 1220.71 327.834 1215.62 308.765C1213.06 299.15 1207.64 286.179 1195.47 286.179C1189.3 286.179 1170.98 300.397 1178.68 286.926C1185.08 275.723 1191.21 263.824 1185.77 250.901C1178.5 233.621 1175.81 237.339 1159.46 229.902C1116.95 210.574 1106.47 279.929 1106.47 308.858C1106.47 328.924 1112.17 351.864 1099.75 369.802C1086.38 389.119 1070.58 353.553 1068.22 341.99C1064.28 322.713 1072.51 300.095 1076.24 281.419C1079.03 267.471 1077.1 255.467 1082.59 241.195C1089.4 223.474 1126.71 218.956 1141.73 214.783C1148.46 212.913 1154.09 214.916 1160.3 211.423C1170.32 205.787 1172.64 203.867 1161.98 202.09C1143.23 198.963 1120.31 195.464 1101.43 195.464C1088.67 195.464 1079.08 200.917 1066.17 196.303C1060.28 194.2 1052.58 194.677 1046.39 193.41C1034.66 191.011 1052.04 178.583 1056.46 173.998C1060.26 170.054 1063.1 164.002 1054.41 163.545C1044.85 163.042 1036.35 169.6 1029.22 175.304" stroke="black" stroke-width="20" stroke-linecap="round"/>
<path d="M1033.09 185.866C1036.03 185.497 1041.82 176.848 1039.44 174.453C1039.02 174.04 1027.79 181.415 1026.37 182.124C1015.34 187.654 1006.89 197.652 992.779 197.652C986.348 197.652 949.026 201.777 951.161 195.594C955.68 182.506 966.444 173.266 975.983 163.977C982.995 157.148 999.913 153.976 1004.16 145.455C1006.3 141.179 965.957 142.088 960.866 142.088C951.64 142.088 944.076 139.372 935.298 138.72C927.851 138.167 913.963 134.5 907.117 131.611C899.108 128.23 890.961 126.354 882.295 124.876C871.683 123.065 853.649 128.416 844.97 120.199C825.954 102.195 794.484 111.193 771.065 111.78C698.927 113.588 624.697 99.6256 553.083 88.5809C533.02 85.4867 513.5 79.8714 493.549 76.7945C470.007 73.1638 444.79 73.0753 421.697 68.0015C373.82 57.4822 327.385 43.0276 279.86 30.9584C253.539 24.2741 221.572 23.7503 196.623 13.7465C192.932 12.2664 179.085 7.98032 175.161 11.1273C169.414 15.7363 172.465 24.5973 171.055 30.9584C168.762 41.3046 167.905 53.2221 159.298 60.8922C157.926 62.1146 154.002 40.2553 153.326 37.6935C148.638 19.9427 125.746 25.4075 116 10.7531" stroke="black" stroke-width="20" stroke-linecap="round"/>
</svg>
