<svg width="334" height="288" viewBox="0 0 334 288" fill="none" xmlns="http://www.w3.org/2000/svg">
<path d="M54.7551 4.52809C49.2126 -5.3254 19.2708 35.3907 47.2619 43.388C56.0577 45.901 64.7719 37.7879 68.783 31.1027C76.0864 18.9302 66.2011 9.46688 56.3234 4.52809" stroke="black" stroke-width="5" stroke-linecap="round"/>
<path d="M40.6401 48.4417C45.4219 49.0394 31.2787 62.6692 29.3132 64.1251C11.2996 77.4686 3 99.9087 3 122.154" stroke="black" stroke-width="5" stroke-linecap="round"/>
<path d="M62.5969 43.7366C52.8554 44.9543 76.6297 62.5376 78.3673 63.5151C92.9209 71.7016 103.374 105.313 103.374 120.585" stroke="black" stroke-width="5" stroke-linecap="round"/>
<path d="M252.366 7.66489C252.366 2.2748 246.867 2.8502 243.304 5.22524C233.484 11.7723 232.338 30.8348 237.902 40.2514C244.808 51.939 258.015 44.8167 261.776 34.3266C265.223 24.7088 258.814 17.2502 252.366 10.8015" stroke="black" stroke-width="5" stroke-linecap="round"/>
<path d="M231.977 40.5999C234.813 37.3593 224.04 40.4374 222.567 41.384C216.208 45.4718 213.318 48.9904 208.452 54.7149C198.776 66.098 193.904 89.0536 197.474 103.333" stroke="black" stroke-width="5" stroke-linecap="round"/>
<path d="M266.481 35.895C292.913 38.832 304.556 69.4377 308.826 90.7868" stroke="black" stroke-width="5" stroke-linecap="round"/>
<path d="M211.589 101.765C185.78 104.991 264.362 101.572 289.222 93.9235C298.187 91.1647 314.117 86.5853 323.638 89.3056C333.661 92.1694 330.782 117.61 330.782 124.593C330.782 141.929 316.143 139.687 301.333 142.193C281.924 145.478 263.506 158.225 243.74 158.225C229.417 158.225 217.974 149.923 206.1 143.326C197.58 138.593 200.61 118.664 200.61 109.607" stroke="black" stroke-width="5" stroke-linecap="round"/>
<path d="M231.977 97.0601C231.977 112.159 230.598 127.805 233.546 142.542" stroke="black" stroke-width="5" stroke-linecap="round"/>
<path d="M214.725 147.247C209.349 146.575 215.672 214.686 217.078 224.531C217.872 230.086 217.862 246.959 217.862 241.347" stroke="black" stroke-width="5" stroke-linecap="round"/>
<path d="M253.934 153.52C250.27 158.1 251.953 168.645 251.581 173.996C250.556 188.767 250.797 203.546 250.797 218.345C250.797 227.581 250.797 236.816 250.797 246.052C250.797 249.124 249.172 258.712 252.366 252.325" stroke="black" stroke-width="5" stroke-linecap="round"/>
<path d="M305.689 142.542C311.244 149.485 302.761 252.325 307.257 252.325" stroke="black" stroke-width="5" stroke-linecap="round"/>
<path d="M6.13669 120.585C1.06585 121.853 5.15417 148.595 6.4852 153.52C9.80152 165.791 34.1185 172.429 45.258 173.822C53.4652 174.847 45.5863 153.024 44.6481 146.724C44.354 144.75 43.9413 126.529 42.2084 129.995" stroke="black" stroke-width="5" stroke-linecap="round"/>
<path d="M12.41 125.29C35.8274 115.43 65.1992 117.503 89.6942 110.391C99.7417 107.474 112.459 103.333 122.978 103.333C129.029 103.333 128.467 140.718 128.467 148.467C128.467 158.297 112.939 156.738 105.29 158.225C100.705 159.117 63.2058 166.417 64.1651 164.499" stroke="black" stroke-width="5" stroke-linecap="round"/>
<path d="M15.5467 164.499C12.9869 162.259 13.9603 180.216 13.9783 182.447C14.1153 199.429 15.5467 216.319 15.5467 233.331C15.5467 246.618 8.0978 274.088 15.5467 285.261" stroke="black" stroke-width="5" stroke-linecap="round"/>
<path d="M42.2084 170.772C50.1796 193.689 45.3451 225.068 45.3451 249.015C45.3451 259.196 45.3451 273.767 45.3451 282.124" stroke="black" stroke-width="5" stroke-linecap="round"/>
<path d="M112.784 161.362C116.786 159.138 119.057 212.062 119.057 218.693C119.057 236.231 117.489 253.627 117.489 271.145" stroke="black" stroke-width="5" stroke-linecap="round"/>
<path d="M40.9442 57.0208C30.5049 58.3257 40.718 101.375 45.3366 107.533" stroke="black" stroke-width="5" stroke-linecap="round"/>
<path d="M64.0041 55.9226C64.8952 64.8341 67.8926 71.7645 66.4443 81.1787C64.8187 91.7447 63.0011 101.757 59.6117 111.925" stroke="black" stroke-width="5" stroke-linecap="round"/>
<path d="M235.306 49.3341C235.306 33.8869 234.225 84.7059 246.287 94.3558" stroke="black" stroke-width="5" stroke-linecap="round"/>
<path d="M258.366 44.9419C270.403 57.6868 259.464 76.5229 259.464 91.0616" stroke="black" stroke-width="5" stroke-linecap="round"/>
<path d="M51.9251 60.3149C50.7408 60.463 54.1213 93.7625 54.1213 98.7481" stroke="black" stroke-width="5" stroke-linecap="round"/>
<path d="M245.189 50.4321C245.189 61.5892 246.075 73.6389 248.483 84.4729" stroke="black" stroke-width="5" stroke-linecap="round"/>
</svg>
