<svg xmlns="http://www.w3.org/2000/svg" width="805" height="600"><rect width="805" height="600" x="0" y="0" fill="#FFFFFF" id="background"/><g transform="translate(20,20)" id="viz"><g id="nodes"><g transform="translate(383.5,281)"><path id="p_943.5" d="M-5.143516556418883e-14,280A280,280,0,1,1,5.143516556418883e-14,-280A280,280,0,1,1,-5.143516556418883e-14,280Z" fill="none" stroke="#ccc"/></g><g transform="translate(317.73592563748787,283.2072988163872)" id="Philadelphia, Pennsylvania"><path id="p_657.6938744214177" d="M-1.0608622294714553e-14,57.7506499675427A57.7506499675427,57.7506499675427,0,1,1,1.0608622294714553e-14,-57.7506499675427A57.7506499675427,57.7506499675427,0,1,1,-1.0608622294714553e-14,57.7506499675427Z" fill="#1f77b4" stroke="none"/></g><g transform="translate(432.7281371474924,283.2072988163872)" id="Las Vegas, Nevada"><path id="p_770.2274737333527" d="M-1.0156982560907962e-14,55.29203776947307A55.29203776947307,55.29203776947307,0,1,1,1.0156982560907962e-14,-55.29203776947307A55.29203776947307,55.29203776947307,0,1,1,-1.0156982560907962e-14,55.29203776947307Z" fill="#1f77b4" stroke="none"/></g><g transform="translate(377.6093445131767,378.35570653398156)" id="Columbus, Ohio"><path id="p_807.6839405435052" d="M-9.684302891445634e-15,52.71888949634688A52.71888949634688,52.71888949634688,0,1,1,9.684302891445634e-15,-52.71888949634688A52.71888949634688,52.71888949634688,0,1,1,-9.684302891445634e-15,52.71888949634688Z" fill="#1f77b4" stroke="none"/></g><g transform="translate(377.6093445131767,188.05889109879288)" id="Tampa, Florida"><path id="p_617.3871251083165" d="M-9.684302891445634e-15,52.71888949634688A52.71888949634688,52.71888949634688,0,1,1,9.684302891445634e-15,-52.71888949634688A52.71888949634688,52.71888949634688,0,1,1,-9.684302891445634e-15,52.71888949634688Z" fill="#1f77b4" stroke="none"/></g><g transform="translate(273.0493998806853,183.0064445545274)" id="Cleveland, Ohio"><path id="p_505.0693743921677" d="M-9.18733640637677e-15,50.01352995695495A50.01352995695495,50.01352995695495,0,1,1,9.18733640637677e-15,-50.01352995695495A50.01352995695495,50.01352995695495,0,1,1,-9.18733640637677e-15,50.01352995695495Z" fill="#1f77b4" stroke="none"/></g><g transform="translate(273.0493998806853,383.408153078247)" id="Detroit, Michigan"><path id="p_705.4710829158872" d="M-9.18733640637677e-15,50.01352995695495A50.01352995695495,50.01352995695495,0,1,1,9.18733640637677e-15,-50.01352995695495A50.01352995695495,50.01352995695495,0,1,1,-9.18733640637677e-15,50.01352995695495Z" fill="#1f77b4" stroke="none"/></g><g transform="translate(482.29128287769674,188.09079531738973)" id="Miami, Florida"><path id="p_719.3956081520414" d="M-9.18733640637677e-15,50.01352995695495A50.01352995695495,50.01352995695495,0,1,1,9.18733640637677e-15,-50.01352995695495A50.01352995695495,50.01352995695495,0,1,1,-9.18733640637677e-15,50.01352995695495Z" fill="#1f77b4" stroke="none"/></g><g transform="translate(482.29128287769674,378.3238023153847)" id="Orlando, Florida"><path id="p_909.6286151500364" d="M-9.18733640637677e-15,50.01352995695495A50.01352995695495,50.01352995695495,0,1,1,9.18733640637677e-15,-50.01352995695495A50.01352995695495,50.01352995695495,0,1,1,-9.18733640637677e-15,50.01352995695495Z" fill="#1f77b4" stroke="none"/></g><g transform="translate(213.03148387519525,304.52923861934755)" id="Des Moines, Iowa"><path id="p_563.7139307393953" d="M-8.661903831988082e-15,47.153208244852514A47.153208244852514,47.153208244852514,0,1,1,8.661903831988082e-15,-47.153208244852514A47.153208244852514,47.153208244852514,0,1,1,-8.661903831988082e-15,47.153208244852514Z" fill="#1f77b4" stroke="none"/></g><g transform="translate(179.05887719558982,214.46777054754608)" id="Milwaukee, Wisconsin"><path id="p_439.6798559879884" d="M-8.661903831988082e-15,47.153208244852514A47.153208244852514,47.153208244852514,0,1,1,8.661903831988082e-15,-47.153208244852514A47.153208244852514,47.153208244852514,0,1,1,-8.661903831988082e-15,47.153208244852514Z" fill="#1f77b4" stroke="none"/></g><g transform="translate(536.4209032069975,271.1210162665248)" id="Toledo, Ohio"><path id="p_853.6951277183748" d="M-8.661903831988082e-15,47.153208244852514A47.153208244852514,47.153208244852514,0,1,1,8.661903831988082e-15,-47.153208244852514A47.153208244852514,47.153208244852514,0,1,1,-8.661903831988082e-15,47.153208244852514Z" fill="#1f77b4" stroke="none"/></g><g transform="translate(575.653668876757,355.67272259978165)" id="Cincinnati, Ohio"><path id="p_974.4341789613993" d="M-8.102469114120929e-15,44.10778748486058A44.10778748486058,44.10778748486058,0,1,1,8.102469114120929e-15,-44.10778748486058A44.10778748486058,44.10778748486058,0,1,1,-8.102469114120929e-15,44.10778748486058Z" fill="#1f77b4" stroke="none"/></g><g transform="translate(326.7790774515051,463.04940043070803)" id="Pittsburgh, Pennsylvania"><path id="p_832.9362653670737" d="M-8.102469114120929e-15,44.10778748486058A44.10778748486058,44.10778748486058,0,1,1,8.102469114120929e-15,-44.10778748486058A44.10778748486058,44.10778748486058,0,1,1,-8.102469114120929e-15,44.10778748486058Z" fill="#1f77b4" stroke="none"/></g><g transform="translate(326.6750258849674,107.2704977812563)" id="Albuquerque, New Mexico"><path id="p_473.78139987620386" d="M-7.501428763639453e-15,40.835876209980114A40.835876209980114,40.835876209980114,0,1,1,7.501428763639453e-15,-40.835876209980114A40.835876209980114,40.835876209980114,0,1,1,-7.501428763639453e-15,40.835876209980114Z" fill="#1f77b4" stroke="none"/></g><g transform="translate(432.4073754509872,109.83967917302814)" id="Charlotte, North Carolina"><path id="p_582.0829308339955" d="M-7.501428763639453e-15,40.835876209980114A40.835876209980114,40.835876209980114,0,1,1,7.501428763639453e-15,-40.835876209980114A40.835876209980114,40.835876209980114,0,1,1,-7.501428763639453e-15,40.835876209980114Z" fill="#1f77b4" stroke="none"/></g><g transform="translate(432.4073754509872,456.5749184597463)" id="Fort Lauderdale, Florida"><path id="p_928.8181701207136" d="M-7.501428763639453e-15,40.835876209980114A40.835876209980114,40.835876209980114,0,1,1,7.501428763639453e-15,-40.835876209980114A40.835876209980114,40.835876209980114,0,1,1,-7.501428763639453e-15,40.835876209980114Z" fill="#1f77b4" stroke="none"/></g><g transform="translate(381.1147424286241,43.79739249418398)" id="Manchester, New Hampshire"><path id="p_464.7480111327882" d="M-7.501428763639453e-15,40.835876209980114A40.835876209980114,40.835876209980114,0,1,1,7.501428763639453e-15,-40.835876209980114A40.835876209980114,40.835876209980114,0,1,1,-7.501428763639453e-15,40.835876209980114Z" fill="#1f77b4" stroke="none"/></g><g transform="translate(385.92103415189916,521.7604195801155)" id="Madison, Wisconsin"><path id="p_943.9593379915058" d="M-6.8478362456056964e-15,37.27788425949113A37.27788425949113,37.27788425949113,0,1,1,6.8478362456056964e-15,-37.27788425949113A37.27788425949113,37.27788425949113,0,1,1,-6.8478362456056964e-15,37.27788425949113Z" fill="#1f77b4" stroke="none"/></g><g transform="translate(183.84128517217152,385.82833558929997)" id="Raleigh, North Carolina"><path id="p_605.9475050209626" d="M-6.8478362456056964e-15,37.27788425949113A37.27788425949113,37.27788425949113,0,1,1,6.8478362456056964e-15,-37.27788425949113A37.27788425949113,37.27788425949113,0,1,1,-6.8478362456056964e-15,37.27788425949113Z" fill="#1f77b4" stroke="none"/></g></g><g id="labels"><g transform="translate(317.73592563748787,283.2072988163872)"><text text-anchor="middle" dominant-baseline="text-before-edge" transform="translate(0,-11.5)"><tspan x="0" y="0" dy="0" style="font-family: Arial, sans-serif; font-size: 10px; fill: black; font-weight: bold;">Philadelphia, Pennsylvania</tspan><tspan x="0" y="0" dy="12" style="font-family: Arial, sans-serif; font-size: 10px; fill: black; font-weight: normal;">12</tspan></text></g><g transform="translate(432.7281371474924,283.2072988163872)"><text text-anchor="middle" dominant-baseline="text-before-edge" transform="translate(0,-11.5)"><tspan x="0" y="0" dy="0" style="font-family: Arial, sans-serif; font-size: 10px; fill: black; font-weight: bold;">Las Vegas, Nevada</tspan><tspan x="0" y="0" dy="12" style="font-family: Arial, sans-serif; font-size: 10px; fill: black; font-weight: normal;">11</tspan></text></g><g transform="translate(377.6093445131767,378.35570653398156)"><text text-anchor="middle" dominant-baseline="text-before-edge" transform="translate(0,-11.5)"><tspan x="0" y="0" dy="0" style="font-family: Arial, sans-serif; font-size: 10px; fill: black; font-weight: bold;">Columbus, Ohio</tspan><tspan x="0" y="0" dy="12" style="font-family: Arial, sans-serif; font-size: 10px; fill: black; font-weight: normal;">10</tspan></text></g><g transform="translate(377.6093445131767,188.05889109879288)"><text text-anchor="middle" dominant-baseline="text-before-edge" transform="translate(0,-11.5)"><tspan x="0" y="0" dy="0" style="font-family: Arial, sans-serif; font-size: 10px; fill: black; font-weight: bold;">Tampa, Florida</tspan><tspan x="0" y="0" dy="12" style="font-family: Arial, sans-serif; font-size: 10px; fill: black; font-weight: normal;">10</tspan></text></g><g transform="translate(273.0493998806853,183.0064445545274)"><text text-anchor="middle" dominant-baseline="text-before-edge" transform="translate(0,-11.5)"><tspan x="0" y="0" dy="0" style="font-family: Arial, sans-serif; font-size: 10px; fill: black; font-weight: bold;">Cleveland, Ohio</tspan><tspan x="0" y="0" dy="12" style="font-family: Arial, sans-serif; font-size: 10px; fill: black; font-weight: normal;">9</tspan></text></g><g transform="translate(273.0493998806853,383.408153078247)"><text text-anchor="middle" dominant-baseline="text-before-edge" transform="translate(0,-11.5)"><tspan x="0" y="0" dy="0" style="font-family: Arial, sans-serif; font-size: 10px; fill: black; font-weight: bold;">Detroit, Michigan</tspan><tspan x="0" y="0" dy="12" style="font-family: Arial, sans-serif; font-size: 10px; fill: black; font-weight: normal;">9</tspan></text></g><g transform="translate(482.29128287769674,188.09079531738973)"><text text-anchor="middle" dominant-baseline="text-before-edge" transform="translate(0,-11.5)"><tspan x="0" y="0" dy="0" style="font-family: Arial, sans-serif; font-size: 10px; fill: black; font-weight: bold;">Miami, Florida</tspan><tspan x="0" y="0" dy="12" style="font-family: Arial, sans-serif; font-size: 10px; fill: black; font-weight: normal;">9</tspan></text></g><g transform="translate(482.29128287769674,378.3238023153847)"><text text-anchor="middle" dominant-baseline="text-before-edge" transform="translate(0,-11.5)"><tspan x="0" y="0" dy="0" style="font-family: Arial, sans-serif; font-size: 10px; fill: black; font-weight: bold;">Orlando, Florida</tspan><tspan x="0" y="0" dy="12" style="font-family: Arial, sans-serif; font-size: 10px; fill: black; font-weight: normal;">9</tspan></text></g><g transform="translate(213.03148387519525,304.52923861934755)"><text text-anchor="middle" dominant-baseline="text-before-edge" transform="translate(0,-11.5)"><tspan x="0" y="0" dy="0" style="font-family: Arial, sans-serif; font-size: 10px; fill: black; font-weight: bold;">Des Moines, Iowa</tspan><tspan x="0" y="0" dy="12" style="font-family: Arial, sans-serif; font-size: 10px; fill: black; font-weight: normal;">8</tspan></text></g><g transform="translate(179.05887719558982,214.46777054754608)"><text text-anchor="middle" dominant-baseline="text-before-edge" transform="translate(0,-11.5)"><tspan x="0" y="0" dy="0" style="font-family: Arial, sans-serif; font-size: 10px; fill: black; font-weight: bold;">Milwaukee, Wisconsin</tspan><tspan x="0" y="0" dy="12" style="font-family: Arial, sans-serif; font-size: 10px; fill: black; font-weight: normal;">8</tspan></text></g><g transform="translate(536.4209032069975,271.1210162665248)"><text text-anchor="middle" dominant-baseline="text-before-edge" transform="translate(0,-11.5)"><tspan x="0" y="0" dy="0" style="font-family: Arial, sans-serif; font-size: 10px; fill: black; font-weight: bold;">Toledo, Ohio</tspan><tspan x="0" y="0" dy="12" style="font-family: Arial, sans-serif; font-size: 10px; fill: black; font-weight: normal;">8</tspan></text></g><g transform="translate(575.653668876757,355.67272259978165)"><text text-anchor="middle" dominant-baseline="text-before-edge" transform="translate(0,-11.5)"><tspan x="0" y="0" dy="0" style="font-family: Arial, sans-serif; font-size: 10px; fill: black; font-weight: bold;">Cincinnati, Ohio</tspan><tspan x="0" y="0" dy="12" style="font-family: Arial, sans-serif; font-size: 10px; fill: black; font-weight: normal;">7</tspan></text></g><g transform="translate(326.7790774515051,463.04940043070803)"><text text-anchor="middle" dominant-baseline="text-before-edge" transform="translate(0,-11.5)"><tspan x="0" y="0" dy="0" style="font-family: Arial, sans-serif; font-size: 10px; fill: black; font-weight: bold;">Pittsburgh, Pennsylvania</tspan><tspan x="0" y="0" dy="12" style="font-family: Arial, sans-serif; font-size: 10px; fill: black; font-weight: normal;">7</tspan></text></g><g transform="translate(326.6750258849674,107.2704977812563)"><text text-anchor="middle" dominant-baseline="text-before-edge" transform="translate(0,-11.5)"><tspan x="0" y="0" dy="0" style="font-family: Arial, sans-serif; font-size: 10px; fill: black; font-weight: bold;">Albuquerque, New Mexico</tspan><tspan x="0" y="0" dy="12" style="font-family: Arial, sans-serif; font-size: 10px; fill: black; font-weight: normal;">6</tspan></text></g><g transform="translate(432.4073754509872,109.83967917302814)"><text text-anchor="middle" dominant-baseline="text-before-edge" transform="translate(0,-11.5)"><tspan x="0" y="0" dy="0" style="font-family: Arial, sans-serif; font-size: 10px; fill: black; font-weight: bold;">Charlotte, North Carolina</tspan><tspan x="0" y="0" dy="12" style="font-family: Arial, sans-serif; font-size: 10px; fill: black; font-weight: normal;">6</tspan></text></g><g transform="translate(432.4073754509872,456.5749184597463)"><text text-anchor="middle" dominant-baseline="text-before-edge" transform="translate(0,-11.5)"><tspan x="0" y="0" dy="0" style="font-family: Arial, sans-serif; font-size: 10px; fill: black; font-weight: bold;">Fort Lauderdale, Florida</tspan><tspan x="0" y="0" dy="12" style="font-family: Arial, sans-serif; font-size: 10px; fill: black; font-weight: normal;">6</tspan></text></g><g transform="translate(381.1147424286241,43.79739249418398)"><text text-anchor="middle" dominant-baseline="text-before-edge" transform="translate(0,-11.5)"><tspan x="0" y="0" dy="0" style="font-family: Arial, sans-serif; font-size: 10px; fill: black; font-weight: bold;">Manchester, New Hampshire</tspan><tspan x="0" y="0" dy="12" style="font-family: Arial, sans-serif; font-size: 10px; fill: black; font-weight: normal;">6</tspan></text></g><g transform="translate(385.92103415189916,521.7604195801155)"><text text-anchor="middle" dominant-baseline="text-before-edge" transform="translate(0,-11.5)"><tspan x="0" y="0" dy="0" style="font-family: Arial, sans-serif; font-size: 10px; fill: black; font-weight: bold;">Madison, Wisconsin</tspan><tspan x="0" y="0" dy="12" style="font-family: Arial, sans-serif; font-size: 10px; fill: black; font-weight: normal;">5</tspan></text></g><g transform="translate(183.84128517217152,385.82833558929997)"><text text-anchor="middle" dominant-baseline="text-before-edge" transform="translate(0,-11.5)"><tspan x="0" y="0" dy="0" style="font-family: Arial, sans-serif; font-size: 10px; fill: black; font-weight: bold;">Raleigh, North Carolina</tspan><tspan x="0" y="0" dy="12" style="font-family: Arial, sans-serif; font-size: 10px; fill: black; font-weight: normal;">5</tspan></text></g></g></g></svg>