<svg width="226" height="197" viewBox="0 0 226 197" fill="none" xmlns="http://www.w3.org/2000/svg">
<path d="M140.289 67.348C139.889 67.4052 142.632 70.1363 142.915 70.4553C145.264 73.1015 147.379 75.8767 147.379 79.5583C147.379 84.2523 145.904 90.6665 144.622 95.2261C143.935 97.6688 136.927 107.687 141.908 109.625C144.486 110.627 147.726 105.31 148.56 103.432C149.249 101.882 154.792 103.743 153.79 105.97C151.93 110.105 144.364 112.623 144.622 117.765C144.734 120.013 147.137 122.175 147.773 124.33C148.868 128.04 149.774 131.793 151.711 135.183C152.335 136.274 155.413 142.683 157.313 142.098C159.372 141.465 160.21 138.842 162.324 141.617C163.884 143.663 163.719 146.472 164.316 148.86C164.787 150.744 166.022 150.693 166.767 152.033C168.891 155.856 167.709 161.323 170.027 165.031C171.262 167.007 171.367 168.931 173.178 170.742C175.227 172.791 178.27 173.316 180.443 175.272C185.392 179.726 184.77 186.755 188.036 192.121C190.316 195.867 194.642 194.893 198.277 194.484C202.721 193.984 208.535 195.677 212.544 193.215C216.701 190.663 217.754 185.582 218.19 181.005C218.702 175.63 219.412 170.345 220.05 164.987C220.775 158.895 221.196 153.246 223.004 147.306C224.423 142.642 224.337 139.201 222.216 134.724C219.371 128.718 214.946 124.332 211.603 118.728C207.439 111.747 205.69 103.873 203.31 96.1889C200.884 88.3562 197.041 80.9989 193.463 73.6501C190.812 68.204 189.67 62.3454 188.496 56.4725C187.299 50.4886 185.181 45.7065 181.471 40.958C178.026 36.548 179.071 31.3213 180.377 26.2531C181.131 23.3271 181.666 18.2512 178.495 16.5373C174.735 14.5046 170.366 10.8906 166.285 9.84135C156.177 7.24204 163.463 20.4313 159.611 24.7651C156.361 28.4214 153.862 19.4069 151.711 18.3317C149.425 17.1884 145.209 17.8948 142.674 17.522C136.323 16.588 129.88 15.5652 123.483 15.0493C115.635 14.4164 108.262 14.5076 100.419 14.5679C95.915 14.6026 89.477 15.3801 85.5394 12.686C81.131 9.6698 82.2871 3.93313 75.2985 3.93313C63.2844 3.93313 51.5164 2.68836 39.4553 3.45172C31.8273 3.93451 23.9152 4.52698 16.3038 3.53925C13.9557 3.23454 3.82411 0.0755075 2.29916 3.56113C1.29435 5.85784 10.825 8.60275 12.0587 9.66629C16.0421 13.1003 13.1037 16.518 11.2928 20.2792C9.94193 23.0848 8.68659 26.4787 13.1309 25.7717C19.5425 24.7516 25.8747 22.5808 32.453 23.3208C41.0914 24.2927 51.3934 26.2096 57.4863 33.0804C60.3358 36.2936 63.5707 39.1285 65.8453 42.8399C67.9638 46.2962 70.8363 47.1172 74.5764 45.8377C78.9365 44.3461 82.2831 41.2712 85.9333 38.6166C88.7153 36.5933 91.9157 36.2083 95.0145 35.0279C99.1213 33.4634 103.154 32.5068 107.225 34.6778C110.264 36.2986 114.322 37.1173 117.05 39.0761C122.634 43.0853 129.929 48.9544 132.98 55.3346C135.061 59.6847 137.431 63.9318 140.289 67.7419" stroke="black" stroke-width="3" stroke-linecap="round"/>
</svg>
