<svg width="199" height="255" viewBox="0 0 199 255" fill="none" xmlns="http://www.w3.org/2000/svg">
<path d="M113.97 23.0504C107.601 22.3019 105.894 19.1829 98.0694 22.8979C81.7281 30.6563 74.506 46.1473 83.3044 62.2573C90.0396 74.5894 106.068 85.6073 120.136 76.7501C140.522 63.9148 135.295 25.1302 109.589 21.6774" stroke="black" stroke-width="5" stroke-linecap="round"/>
<path d="M90.6058 73.8516C95.6149 74.4403 71.7075 88.4019 70.2431 89.6411C52.9331 104.289 54.7024 121.175 46.7975 139.756" stroke="black" stroke-width="5" stroke-linecap="round"/>
<path d="M125.652 71.1057C125.652 88.0103 143.476 74.9988 149.017 86.5139C152.734 94.2392 161.222 142.943 153.398 146.621" stroke="black" stroke-width="5" stroke-linecap="round"/>
<path d="M54.099 146.62C61.1542 141.193 77.5692 141.768 86.3062 140.518C100.766 138.449 115.448 138.382 130.033 138.382C137.415 138.382 144.57 137.009 151.937 137.009C155.505 137.009 162.555 136.609 156.318 134.263" stroke="black" stroke-width="5" stroke-linecap="round"/>
<path d="M46.7975 147.994C46.7975 154.435 44.1088 165.298 49.3936 170.267C53.7553 174.368 61.7829 168.79 66.4302 170.038C68.7784 170.669 67.2414 243.045 67.2414 252.342" stroke="black" stroke-width="5" stroke-linecap="round"/>
<path d="M132.954 175.454C142.244 187.101 136.914 211.003 136.199 224.119C135.736 232.604 135.874 241.102 135.874 249.596C135.874 258.549 137.335 233.399 137.335 230.374" stroke="black" stroke-width="5" stroke-linecap="round"/>
<path d="M141.716 189.184C140.85 189.184 147.215 181.813 148.368 180.488C152.801 175.393 157.566 170.82 161.348 165.232C167.423 156.257 160.699 145.304 160.699 135.636" stroke="black" stroke-width="5" stroke-linecap="round"/>
<path d="M86.225 82.0895C84.1415 68.3753 91.5131 111.879 103.018 120.534C107.024 123.547 124.192 86.289 124.192 79.3435" stroke="black" stroke-width="5" stroke-linecap="round"/>
<path d="M109.589 79.3435C106.944 79.6544 102.707 108.57 105.209 110.923" stroke="black" stroke-width="5" stroke-linecap="round"/>
<path d="M105.209 82.0896C105.209 92.1993 103.748 102.237 103.748 112.296" stroke="black" stroke-width="5" stroke-linecap="round"/>
<path d="M13.2112 27.1697C19.8432 26.4769 -4.53324 31.4421 5.42302 39.5267C9.71836 43.0146 25.2728 46.7407 26.1103 52.6465C27.0667 59.3911 15.2084 62.6995 10.2907 64.2407" stroke="black" stroke-width="5" stroke-linecap="round"/>
<path d="M8.83032 23.0504C8.83032 14.8815 11.8774 39.1355 13.5357 47.1542C14.8148 53.3396 15.596 67.8556 20.5125 72.4784" stroke="black" stroke-width="5" stroke-linecap="round"/>
<path d="M189.905 16.1855C189.905 9.4754 168.258 20.6749 180.007 29.3052C183.515 31.8818 199.453 37.371 195.827 43.1878C193.854 46.3518 177.849 58.0461 175.302 53.2565" stroke="black" stroke-width="5" stroke-linecap="round"/>
<path d="M189.905 6.57445C189.905 -11.1095 184.631 41.6877 179.683 58.7485" stroke="black" stroke-width="5" stroke-linecap="round"/>
</svg>
