<svg width="332" height="348" viewBox="0 0 332 348" fill="none" xmlns="http://www.w3.org/2000/svg">
<path d="M165.213 6.11599C161.046 6.11599 156.729 6.6379 152.637 7.39922C145.758 8.67909 137.937 8.38184 131.271 10.2865C123.667 12.4591 115.738 13.3681 108.045 15.9327C100.398 18.4816 92.5029 21.6739 85.6523 25.8777C71.5662 34.5215 55.6094 43.5374 43.819 55.3278C28.9292 70.2177 16.1811 89.9214 9.42841 109.929C5.05408 122.89 2.60681 136.205 2.37066 149.902C2.18383 160.738 1.99856 172.487 3.07642 183.266C4.9433 201.935 8.32927 220.876 15.3313 238.381C18.7939 247.037 24.6527 255.045 29.9601 262.698C37.1621 273.082 44.4854 284.759 54.7906 292.405C65.599 300.424 76.6021 307.807 89.2453 312.615C101.019 317.093 111.459 323.577 123.925 326.314C151.075 332.274 181.45 336.962 207.367 324.004C212.075 321.65 217.126 321.146 221.803 318.807C226.929 316.244 231.955 313.831 236.881 310.979C245.732 305.855 254.134 298.978 261.904 292.244C264.937 289.615 268.338 287.536 271.656 285.283C279.642 279.86 286.322 272.691 292.573 265.393C300.205 256.482 306.5 247.391 309.897 236.231C312.146 228.84 311.856 220.455 315.094 213.39C317.014 209.2 318.983 205.045 320.676 200.782C326.3 186.616 329.003 173.815 329.498 158.371C329.867 146.855 329.56 135.914 325.552 125.007C320.609 111.555 314.82 98.0386 307.779 85.5479C305.291 81.134 301.754 77.6766 299.214 73.3893C294.067 64.7039 285.962 57.3625 278.425 50.5799C262.29 36.0578 243.063 27.4642 223.503 18.4992C212.073 13.2604 200.588 7.97784 187.765 7.30297C183.979 7.10369 180.079 7.63653 176.312 7.14257C172.628 6.65938 164.834 7.46964 162.325 4.96107" stroke="black" stroke-width="3" stroke-linecap="round"/>
<path d="M161.17 6.11598C157.552 42.303 158.861 79.2214 158.861 115.64C158.861 135.54 164.646 158.882 158.572 178.454C155.237 189.198 154.435 200.687 150.776 211.401C145.92 225.623 143.629 240.922 139.227 255.351C134.982 269.266 132.651 283.614 129.122 297.73C127.953 302.406 126.695 307.107 125.817 311.845C125.266 314.823 122.281 320.428 123.636 323.138" stroke="black" stroke-width="3" stroke-linecap="round"/>
<path d="M187.733 40.7632C195.289 49.0747 193.684 65.1512 193.957 75.2821C194.542 96.9951 195.975 118.735 196.363 140.438C196.448 145.23 196.487 150.049 196.395 154.842C196.301 159.715 195.531 145.133 195.112 140.278C193.225 118.44 186.823 97.4493 184.557 75.667C183.485 65.3596 179.415 52.4494 180.932 42.0464C182.04 34.4493 195.8 40.6294 199.731 41.9822C217.325 48.0358 229.827 57.7085 244.067 69.3792C256.802 79.8166 270.246 91.804 279.709 105.374C294.251 126.227 299.939 155.2 298.604 180.218C297.266 205.314 291.371 233.569 271.656 251.02C262.393 259.221 253.25 267.801 242.912 274.632C233.009 281.175 223.047 287.525 213.462 294.554C203.045 302.193 192.568 309.254 181.189 315.374C174.775 318.824 169.014 321.406 161.716 321.406C159.145 321.406 151.945 323.514 149.942 322.24C146.305 319.925 149.373 311.743 150.455 309.022C155.726 295.776 163.144 283.377 169.126 270.461C178.257 250.748 184.409 228.448 186.578 206.877C187.894 193.789 188.627 180.653 189.177 167.514C189.801 152.614 191.799 137.87 192.577 122.986C193.25 110.127 189.464 71.5939 190.877 84.393C193.78 110.687 195.846 135.911 192.321 162.349C188.438 191.472 179.403 219.655 172.27 248.069C169.153 260.486 166.281 274.073 160.304 285.507C160.231 285.648 158.104 289.5 158.54 289.261C163.965 286.277 168.578 277.51 171.949 272.707C197.956 235.654 210.444 192.885 222.958 149.87C228.326 131.415 233.74 112.886 236.111 93.7606C236.483 90.7573 236.023 78.9355 238.485 88.1785C242.677 103.913 244.752 119.829 245.158 136.075C245.866 164.397 245.629 192.811 240.153 220.704C236.602 238.793 231.447 256.437 223.343 273.028C221.284 277.242 219.103 281.418 216.863 285.539C216.319 286.54 214.207 288.993 215.258 288.555C216.193 288.166 218.035 285.111 218.274 284.769C224.094 276.455 229.669 267.881 234.924 259.201C251.51 231.806 267.51 201.428 273.004 169.535C274.275 162.155 279.277 142.124 272.619 135.466" stroke="#FF0000" stroke-opacity="0.5" stroke-width="50" stroke-linecap="round"/>
<path d="M139.805 26.3268C137.073 24.7334 130.944 28.4476 128.769 29.4066C118.028 34.1426 107.185 39.071 97.5542 45.864C74.5477 62.0919 59.8115 84.8586 53.8923 112.432C48.0841 139.488 49.816 169.356 51.8071 196.772C52.7745 210.092 53.783 223.831 55.753 237.033C58.0735 252.585 65.0096 263.621 74.7448 275.53C80.0739 282.049 84.6176 289.151 90.0473 295.581C94.2533 300.561 91.7829 299.242 87.4809 295.901C60.03 274.583 51.012 239.036 41.6375 207.198C31.3031 172.1 19.9652 133.55 37.9482 98.9256C46.2036 83.0308 58.4099 68.9184 74.5523 60.7816C80.2283 57.9205 80.5425 59.7202 78.4983 65.6258C70.9302 87.489 59.3575 106.643 56.6192 130.14C51.4655 174.362 72.2985 213.879 81.8026 255.897C82.5841 259.352 95.4701 314.07 103.104 307.226C108.115 302.733 109.465 289.676 110.804 283.55C114.631 266.038 116.752 248.173 119.594 230.489C125.477 193.883 133.548 157.988 137.206 120.997C139.056 102.288 140.667 83.7012 138.393 64.9521C137.701 59.2478 137.33 49.5826 133.324 44.8695C129.344 40.1871 124.338 53.9861 123.957 54.9429C113.948 80.0449 110.241 108.383 106.409 134.952C102.016 165.408 97.426 197.191 98.6129 228.051C98.7652 232.012 98.8512 236.416 99.8319 240.305C100.601 243.356 102.581 234.554 103.104 231.451C108.491 199.52 107.786 166.579 109.2 134.311" stroke="#0000FF" stroke-opacity="0.5" stroke-width="50" stroke-linecap="round"/>
<path d="M194.085 152.212C194.337 157.756 195.217 163.273 195.465 168.83C195.534 170.379 196.222 185.239 194.31 177.491C192.505 170.177 189.844 159.329 193.668 152.244C196.045 147.84 203.348 148.8 206.019 152.565C208.508 156.072 203.646 159.59 201.271 161.323C197.305 164.216 198.909 163.794 202.747 165.172C206.201 166.413 212.349 169.768 208.072 173.706C205.936 175.673 200.412 179.151 197.55 178.197" stroke="black" stroke-width="3" stroke-linecap="round"/>
<path d="M213.719 160.873C213.719 165.544 215.75 169.543 218.723 173.192C223.292 178.801 223.659 164.963 223.535 162.606" stroke="black" stroke-width="3" stroke-linecap="round"/>
<path d="M236.817 158.564C233.356 158.91 231.087 163.678 233.609 166.199C236.015 168.605 237.456 169.724 234.282 172.615C232.071 174.629 230.502 175.496 228.155 174.155" stroke="black" stroke-width="3" stroke-linecap="round"/>
<path d="M242.591 148.17C243.402 146.142 244.101 152.34 244.195 154.521C244.268 156.209 242.976 171.22 245.575 164.723C246.673 161.977 248.722 156.148 252.633 158.82C256.717 161.612 259.922 166.668 261.647 171.268" stroke="black" stroke-width="3" stroke-linecap="round"/>
<path d="M202.17 207.07C202.54 203.737 199.971 204.667 199.988 204.696C205.192 213.593 203.902 223.49 203.902 233.633" stroke="black" stroke-width="3" stroke-linecap="round"/>
<path d="M198.705 203.605C195.348 203.605 190.094 207.08 189.273 210.246C187.68 216.39 198.046 216.167 201.592 215.154" stroke="black" stroke-width="3" stroke-linecap="round"/>
<path d="M234.507 223.816C234.507 224.681 234.327 225.17 235.084 225.548" stroke="black" stroke-width="3" stroke-linecap="round"/>
<path d="M206.212 252.689C204.729 253.112 210.693 263.456 212.435 264.109C214.386 264.841 215.848 253.552 216.028 252.111" stroke="black" stroke-width="3" stroke-linecap="round"/>
<path d="M225.268 254.998C222.729 251.658 219.969 253.589 220.456 257.629C220.827 260.709 223.309 260.438 225.139 258.656C227.553 256.305 226.405 254.765 225.268 252.111" stroke="black" stroke-width="3" stroke-linecap="round"/>
<path d="M234.507 241.14C234.857 239.39 235.498 244.576 235.79 246.337C236.653 251.544 237.577 256.741 238.549 261.928" stroke="black" stroke-width="3" stroke-linecap="round"/>
<path d="M230.465 256.153C230.831 254.505 240.326 252.378 242.014 251.534" stroke="black" stroke-width="3" stroke-linecap="round"/>
<path d="M244.901 250.956C245.529 255.976 254.425 245.064 248.045 248.133C240.936 251.553 248.369 256.729 253.563 254.421" stroke="black" stroke-width="3" stroke-linecap="round"/>
<path d="M265.112 241.717C261.15 238.547 254.944 244.955 259.915 248.839C261.46 250.046 266.287 251.456 264.791 254.228C264.169 255.382 259.77 259.328 258.76 257.308" stroke="black" stroke-width="3" stroke-linecap="round"/>
<path d="M48.5669 77.1427C47.4212 76.1402 48.5366 79.3225 48.5669 79.5809C49.6366 88.7046 49.5134 97.9978 49.7219 107.17" stroke="black" stroke-width="3" stroke-linecap="round"/>
<path d="M50.2993 98.5085C53.1434 89.7731 60.1603 82.7843 63.0033 74.2555" stroke="black" stroke-width="3" stroke-linecap="round"/>
<path d="M47.412 91.5791C51.8014 97.022 57.2059 101.363 61.2709 107.17" stroke="black" stroke-width="3" stroke-linecap="round"/>
<path d="M65.3131 93.8889C70.024 97.6577 74.5756 84.8983 70.6706 87.5369C63.0257 92.7023 68.9048 105.086 77.4396 100.818" stroke="black" stroke-width="3" stroke-linecap="round"/>
<path d="M81.4818 88.1144C81.5905 90.2899 83.9886 105.334 82.5084 97.2895C81.0589 89.4121 82.3822 83.9597 90.721 82.9173" stroke="black" stroke-width="3" stroke-linecap="round"/>
<path d="M95.9181 82.9173C96.1238 84.7686 97.031 86.8066 97.4259 88.6597C97.685 89.8753 99.8669 101.781 98.5166 96.6799C96.0241 87.2636 101.691 85.3718 109.2 83.4947" stroke="black" stroke-width="3" stroke-linecap="round"/>
<path d="M114.974 86.9595C114.448 82.7497 116.459 95.5061 118.631 99.1501C123.653 107.574 125.226 90.3722 124.919 87.1519C124.563 83.4131 126.602 88.9033 127.036 89.7184C130.644 96.4911 134.191 103.69 135.442 111.341C137.235 122.312 123.971 130.056 114.397 126.226" stroke="black" stroke-width="3" stroke-linecap="round"/>
<path d="M53.764 135.466C53.6942 133.72 53.0955 132.03 51.0372 133.477C43.4079 138.838 53.937 145.906 57.4212 149.709C63.6603 156.52 50.489 158.943 50.2993 156.992C49.8623 152.497 54.4349 146.153 56.523 142.652C58.9773 138.537 61.8344 134.654 64.7356 130.846" stroke="black" stroke-width="3" stroke-linecap="round"/>
<path d="M85.5239 155.676C86.4976 156.772 86.6788 158.313 86.6788 159.719" stroke="black" stroke-width="3" stroke-linecap="round"/>
<path d="M44.5247 202.45C46.2972 204.856 54.6619 224.116 57.5496 219.934C60.3159 215.928 61.4338 209.971 62.1692 205.273C62.5284 202.978 61.9225 197.179 63.5807 195.521" stroke="black" stroke-width="3" stroke-linecap="round"/>
<path d="M73.3974 212.844C71.0317 206.694 67.6751 213.803 68.0079 217.464C68.333 221.04 71.6019 219.933 73.237 217.913C75.1944 215.495 74.584 213.752 73.9749 211.112" stroke="black" stroke-width="3" stroke-linecap="round"/>
<path d="M83.7916 192.633C83.7916 200.983 86.8021 209.211 87.8338 217.464" stroke="black" stroke-width="3" stroke-linecap="round"/>
<path d="M78.017 208.225C81.1113 205.904 86.5116 205.728 90.1435 204.76" stroke="black" stroke-width="3" stroke-linecap="round"/>
<path d="M95.3406 207.647C99.029 210.926 104.928 201.583 100.153 203.765C92.178 207.411 97.8844 221.223 106.312 213.999" stroke="black" stroke-width="3" stroke-linecap="round"/>
<path d="M119.594 200.718C120.049 200.794 117.157 202.251 116.835 202.45C113.464 204.529 114.496 207.095 117.637 208.77C118.836 209.409 124.5 211.147 123.893 213.197C123.165 215.651 119.343 216.652 117.284 216.309" stroke="black" stroke-width="3" stroke-linecap="round"/>
<path d="M67.8914 135.828C69.0078 133.088 73.0197 132.234 74.6078 135.365C76.5706 139.235 69.9558 139.407 69.7828 141.31C69.704 142.176 71.394 142.024 72.0602 142.583C73.9818 144.196 76.0335 146.619 75.65 149.338C75.1262 153.053 70.3471 154.833 67.1966 155.283" stroke="black" stroke-width="3" stroke-linecap="round"/>
<path d="M107.495 128.186C104.136 128.301 99.5652 132.631 100.547 136.176C101.964 141.294 112.009 147.49 109.232 153.044C108.112 155.284 104.023 159.819 101.01 158.062C97.427 155.972 100.058 150.015 101.357 147.563C104.032 142.513 107.754 138.042 110.776 133.204C111.695 131.731 112.358 130.792 112.358 129.228" stroke="black" stroke-width="3" stroke-linecap="round"/>
<path d="M212.757 205.308C216.343 203.031 220.184 202.794 219.28 208.01C218.507 212.471 216.155 216.26 214.108 220.208C213.051 222.246 211.401 226.032 214.802 226.692C216.543 227.03 218.32 226.761 220.052 227.194" stroke="black" stroke-width="3" stroke-linecap="round"/>
<path d="M241.938 205.308C244.046 203.009 245.906 203.176 248.191 205.694C251.179 208.986 248.032 214.59 246.319 217.737C245.341 219.535 243.049 223.518 246.725 223.662C249.994 223.791 253.324 222.865 256.529 222.331" stroke="black" stroke-width="3" stroke-linecap="round"/>
</svg>
