<svg width="341" height="211" viewBox="0 0 341 211" fill="none" xmlns="http://www.w3.org/2000/svg">
<path d="M79.0429 2.51562C65.249 3.50091 54.2529 21.7507 54.2529 34.2092C54.2529 51.5771 65.5736 63.8392 82.8712 64.522C90.7816 64.8343 99.822 61.7987 105.214 55.8612C110.748 49.7664 110.546 40.2883 110.046 32.546C109.129 18.332 94.4302 4.44199 80.1726 7.03432" stroke="black" stroke-width="5" stroke-linecap="round"/>
<path d="M52.4956 51.0916C49.7764 53.8106 48.7005 58.0787 46.2824 61.1331C42.5896 65.7976 37.8622 69.6788 33.6678 73.8732C23.8932 83.6478 15.8236 94.9324 11.2626 108.109C1.32608 136.814 8.15796 167.861 2.7901 197.384" stroke="black" stroke-width="5" stroke-linecap="round"/>
<path d="M90.3396 70.8608C95.1825 75.9887 94.7415 85.3024 93.7286 91.7598C92.4495 99.9143 92.8224 107.784 93.1951 115.985C93.7628 128.472 96.5418 142.2 100.632 154.017C102.473 159.336 105.846 165.445 109.795 169.393C113.06 172.658 116.334 175.491 120.59 177.364C125.784 179.649 131.051 178.987 136.091 181.004" stroke="black" stroke-width="5" stroke-linecap="round"/>
<path d="M23.689 134.687C31.8379 143.651 38.0046 154.601 43.0189 165.565C48.5597 177.679 51.3498 188.33 60.9682 197.949" stroke="black" stroke-width="5" stroke-linecap="round"/>
<path d="M74.5242 119.437C74.5242 128.368 78.0565 138.303 81.3022 146.549C83.9049 153.161 86.0892 159.243 91.1868 164.341C98.4677 171.622 104.825 177.807 115.161 179.874C119.566 180.755 128.616 182.154 132.577 179.184C136.893 175.947 145.621 177.922 149.647 180.439" stroke="black" stroke-width="5" stroke-linecap="round"/>
<path d="M57.0143 195.689C62.9983 201.673 68.8573 206.246 77.5994 207.676C91.7103 209.985 108.196 206.352 121.657 202.436C130.974 199.725 142.605 195.854 150.495 190.01C153.231 187.983 156.026 185.374 155.17 181.694C154.337 178.111 149.729 178.342 148.518 175.92" stroke="black" stroke-width="5" stroke-linecap="round"/>
<path d="M161.765 177.226C155.202 170.664 138.787 191.562 146.06 198.834C150.935 203.709 158.291 202.806 164.534 202.806C171.791 202.806 178.959 202.328 186.179 202.15C196.177 201.903 209.747 197.766 217.479 191C226.401 183.193 236.018 175.777 244.407 167.388" stroke="black" stroke-width="5" stroke-linecap="round"/>
<path d="M159.141 176.57C157.049 179.261 167.257 177.244 167.814 177.08C178.169 174.035 185.887 166.087 192.956 158.351C199.623 151.055 203.275 141.941 208.333 133.573C209.906 130.971 213.003 128.533 214.236 126.067" stroke="black" stroke-width="5" stroke-linecap="round"/>
<path d="M250.31 25.7153C239.896 21.7482 224.883 36.1529 221.087 44.5904C214.457 59.3233 231.36 73.7843 245.063 72.648C261.425 71.2911 280.152 62.2349 272.756 43.3515C267.467 29.8459 257.054 18.3142 242.439 25.0594" stroke="black" stroke-width="5" stroke-linecap="round"/>
<path d="M264.74 72.2837C269.637 81.5883 273.72 90.6456 277.53 100.523C282.377 113.09 283.664 126.406 285.072 139.695C287.05 158.36 287.696 177.495 287.696 196.247" stroke="black" stroke-width="5" stroke-linecap="round"/>
<path d="M229.978 69.6602C221.157 77.501 213.872 88.9571 210.629 100.487C203.404 126.173 184.55 147.505 164.388 164.109" stroke="black" stroke-width="5" stroke-linecap="round"/>
<path d="M166.356 160.829C162.095 165.089 159.644 171.476 155.206 175.914" stroke="black" stroke-width="5" stroke-linecap="round"/>
<path d="M182.753 33.586C174.89 35.8988 170.447 47.7102 172.186 55.0118C175.301 68.0833 184.357 77.392 197.402 70.0972C203.785 66.5278 211.685 59.0506 211.321 50.8578C210.851 40.2857 200.322 34.5566 191.936 30.9624" stroke="black" stroke-width="5" stroke-linecap="round"/>
<path d="M178.162 69.6602C173.227 70.277 164.951 79.0866 162.093 82.8144C157.485 88.825 155.995 95.6221 153.894 102.783C149.833 116.628 145.655 130.043 144.056 144.432" stroke="black" stroke-width="5" stroke-linecap="round"/>
<path d="M203.742 68.3481C203.742 77.3579 202.43 86.2696 202.43 95.2397" stroke="black" stroke-width="5" stroke-linecap="round"/>
<path d="M314.587 61.1333C308.114 55.0006 301.666 60.3556 296.587 65.7975C289.611 73.2713 288.772 81.8897 295.348 89.9926C311.51 109.907 343.678 80 326.394 67.0364" stroke="black" stroke-width="5" stroke-linecap="round"/>
<path d="M297.534 98.5193C293.881 102.173 290.656 106.1 289.299 111.163C287.075 119.466 283.202 127.451 281.793 135.905" stroke="black" stroke-width="5" stroke-linecap="round"/>
<path d="M325.738 112.293C333.79 131.557 338.706 151.058 337.544 171.979" stroke="black" stroke-width="5" stroke-linecap="round"/>
</svg>
