<svg width="1984" height="925" viewBox="0 0 1984 925" fill="none" xmlns="http://www.w3.org/2000/svg">
<path d="M202.536 81.9787C201.541 73.0222 183.595 77.2041 179.726 78.9454C115.671 107.77 30.7777 164.085 25.3886 242.868C19.11 334.653 129.518 378.629 203.628 383.009C246.939 385.568 291.213 375.705 329.209 354.981" stroke="black" stroke-width="50" stroke-linecap="round"/>
<path d="M534.992 223.382C533.799 203.105 473.224 183.617 466.802 185.841C416.995 203.088 339.905 277.879 375.802 337.023C398.553 374.508 456.602 372.748 490.341 353.525C524.681 333.958 540.918 304.553 542.757 265.921C543.833 243.333 536.624 225.02 526.741 205.254C520.824 193.42 531.937 231.207 534.992 244.081C547.088 295.059 607.348 404.013 661.179 330.956" stroke="black" stroke-width="50" stroke-linecap="round"/>
<path d="M726.7 169.339C720.124 166.462 722.537 173.003 723.545 177.469C731.543 212.889 725.466 250.141 732.281 285.82C735.395 302.119 739.804 318.261 739.804 334.96C739.804 345.508 739.872 310.328 739.925 308.024C740.866 267.119 743.177 199.372 782.392 174.071C820.733 149.336 846.892 251.692 853.13 273.808C858.124 291.515 861.992 309.47 868.175 326.831C874.421 344.368 869.517 326.448 869.146 316.639C868.113 289.341 858.541 149.536 922.048 180.502C967.685 202.755 999.702 275.148 999.702 324.404" stroke="black" stroke-width="50" stroke-linecap="round"/>
<path d="M1045.57 195.547C1045.57 256.904 1062.27 319.361 1068.38 380.461C1072.7 423.676 1077.15 468.858 1089.12 510.774C1092.32 521.94 1085.55 487.787 1084.88 476.193C1083.76 456.865 1082.69 437.811 1082.69 418.438C1082.69 373.851 1069.11 329.795 1059.88 286.305M1059.88 286.305C1050.58 242.453 1048.01 198.001 1063.52 155.265C1079.95 110.005 1115.82 98.6449 1155.98 125.659C1199.04 154.623 1216.74 214.744 1204.03 264.223C1193.19 306.387 1097.82 293.892 1059.88 286.305Z" stroke="black" stroke-width="50" stroke-linecap="round"/>
<path d="M1373.17 130.998C1362.08 111.033 1325 127.713 1308.13 135.851C1268.35 155.04 1251.75 213.229 1262.27 254.152C1269.19 281.077 1302.45 301.613 1329.61 295.405C1371.18 285.904 1381.81 242.012 1383.6 204.769C1384.82 179.581 1380.85 154.948 1373.17 130.998ZM1373.17 130.998C1367.36 112.896 1384.88 155.441 1386.51 159.026C1401.62 192.063 1416.21 224.588 1438.57 253.424C1447.04 264.355 1456.97 281.473 1471.45 285.092" stroke="black" stroke-width="50" stroke-linecap="round"/>
<path d="M1504.21 134.395C1504.21 109.95 1508.55 183.093 1510.76 207.438C1513.39 236.402 1519.27 264.947 1521.68 293.828" stroke="black" stroke-width="50" stroke-linecap="round"/>
<path d="M1484.55 25.1943C1488.72 24.6737 1487.26 25.4547 1491.1 27.3784" stroke="#90EE90" stroke-width="50" stroke-linecap="round"/>
<path d="M1663.64 151.867C1667.2 148.015 1718.09 158.736 1712.05 153.687M1712.05 153.687C1692.38 137.221 1618.16 147.811 1607.71 162.302C1582.68 196.986 1582.36 319.634 1652.72 299.531C1705.43 284.47 1721.6 221.383 1716.06 173.95C1715.26 167.112 1709.17 147.436 1712.05 153.687ZM1712.05 153.687C1720.46 171.906 1728.03 190.467 1732.56 210.108C1739.42 239.834 1736.76 268.669 1734.02 298.681C1731.04 331.207 1730.46 363.832 1727.83 396.355C1722.63 460.438 1705.97 526.982 1645.32 560.52C1601.18 584.926 1572.98 546.914 1563.66 506.648C1557.02 477.944 1586.46 474.855 1606.86 481.653" stroke="black" stroke-width="50" stroke-linecap="round"/>
<path d="M1788.13 151.867C1790.63 201.936 1809.97 250.302 1809.97 300.38C1809.97 302.626 1812.64 328.044 1811.67 327.802C1803.6 325.785 1802.09 264.171 1801.72 256.7C1800.36 229.508 1803.07 190.448 1821.98 168.733C1840.98 146.924 1876.29 152.229 1897.21 167.519C1946.61 203.62 1958.48 282.71 1958.48 339.692" stroke="black" stroke-width="50" stroke-linecap="round"/>
<path d="M618 612.98C618 568.507 627.949 701.387 631.275 745.734C633.913 780.908 636.277 816.675 636.865 851.938C637.086 865.209 644.236 888.046 636.865 899.101" stroke="black" stroke-width="50" stroke-linecap="round"/>
<path d="M476 628.164C485.54 600.608 508.225 616.305 519.317 614.29C568.082 605.431 617.029 601.512 665.862 606.091C675.679 607.012 761.133 621.158 758.959 605.461" stroke="black" stroke-width="50" stroke-linecap="round"/>
<path d="M758.949 716.286C771.862 772.24 782.96 829.838 791.789 886.596C798.901 932.317 789.073 840.448 788.644 834.018C786.235 797.872 774.696 718.125 806.986 690.084C839.37 661.96 886.774 683.488 922.448 691.132" stroke="black" stroke-width="50" stroke-linecap="round"/>
<path d="M1082.8 720.827C1041.1 682.911 977.88 755.977 974.152 794.89C971.815 819.281 981.024 878.737 1012.76 882.928C1053.58 888.32 1072.37 829.607 1077.21 799.607C1081.32 774.133 1081.84 746.689 1082.8 720.827ZM1082.8 720.827C1083.31 707.158 1086.68 712.995 1091.19 722.225C1120.03 781.281 1140.85 834.106 1195.99 873.495" stroke="black" stroke-width="50" stroke-linecap="round"/>
<path d="M1230.58 684.844C1249.74 704.006 1247.83 764.375 1250.49 788.777C1253.58 817.109 1258.88 848.145 1258.88 876.64" stroke="black" stroke-width="50" stroke-linecap="round"/>
<path d="M1235.47 554.768C1234.75 555.584 1226.56 576.658 1226.04 563.502C1225.44 548.616 1232.02 554.919 1226.04 557.912" stroke="#90EE90" stroke-width="50" stroke-linecap="round"/>
<path d="M1340 551.201C1340 490.835 1355.14 671.007 1364.8 730.595C1372.94 780.74 1390.31 836.551 1390.31 887.63" stroke="black" stroke-width="50" stroke-linecap="round"/>
<path d="M1563.25 664.686C1540.07 654.926 1514.78 666.356 1494.42 677.961C1458.11 698.66 1432.62 727.387 1483.94 741.544C1522.19 752.095 1596.31 774.38 1587.7 829.931C1580.31 877.634 1508.08 894.995 1472.06 875.347" stroke="black" stroke-width="50" stroke-linecap="round"/>
</svg>
