<svg width="473" height="222" viewBox="0 0 473 222" fill="none" xmlns="http://www.w3.org/2000/svg">
<path d="M1.05032 220.792C14.8261 203.754 33.447 194.87 54.1785 189.351C83.3074 181.595 112.234 174.19 141.946 168.917C185.905 161.114 228.854 149.769 262.143 118.161C277.502 103.579 305.42 64.656 274.865 49.3783C261.471 42.6814 243.357 46.2689 230.372 51.8501C202.652 63.7646 172.698 87.6782 163.698 117.601C161.514 124.86 159.496 133.495 160.105 141.166C161.142 154.21 171.508 166.656 180.407 175.376C202.127 196.66 238.352 194.368 265.307 186.78C330.538 168.416 385.19 123.937 423.769 69.0871C439.654 46.502 454.006 23.2581 471.492 1.88589" stroke="#90EE90" stroke-width="2" stroke-linecap="round"/>
</svg>
