<svg width="328" height="334" viewBox="0 0 328 334" fill="none" xmlns="http://www.w3.org/2000/svg">
<path d="M165.363 6.31714C165.119 4.36956 130.317 11.0247 125.228 12.2968C109.241 16.2936 93.9137 26.8492 79.8237 35.3032C43.9975 56.799 13.6715 91.8817 6.64931 134.018" stroke="black" stroke-width="3" stroke-linecap="round"/>
<path d="M5.73714 150.436C5.73714 163.886 7.38957 177.582 10.8046 190.622C13.3284 200.258 15.8413 210.005 19.47 219.303C22.4861 227.032 29.934 236.94 28.5408 245.3" stroke="black" stroke-width="3" stroke-linecap="round"/>
<path d="M159.89 5.405C142.449 7.58506 195.728 6.46943 212.085 12.9049C232.401 20.8982 251.515 31.3557 267.017 46.857C284.824 64.6642 305.133 80.3928 309.279 106.653C313.495 133.352 328.349 161.155 325.85 188.645C325.404 193.552 322.068 197.972 321.34 202.885C320.427 209.048 318.507 214.519 316.779 220.469C312.442 235.407 301.194 248.074 292.101 260.35C282.744 272.982 271.623 284.435 258.402 292.934C239.949 304.797 222.389 312.277 202.051 320.805C187.562 326.881 166.137 324.656 150.312 324.656C134.158 324.656 116.43 319.86 101.057 315.028C88.7889 311.173 80.4716 303.951 71.4117 295.062C55.4852 279.436 34.9557 262.242 25.8044 241.651" stroke="black" stroke-width="3" stroke-linecap="round"/>
<path d="M160.802 4.49283C160.802 41.6372 163.18 79.4719 166.478 116.484C167.508 128.044 168.045 142.618 165.566 154.085C164.877 157.269 165.563 162.663 163.995 165.487C162.484 168.206 161.638 172.621 160.295 175.672C151.918 194.712 139.983 212.198 131.613 231.263C125.463 245.271 120.235 259.816 115.245 274.286C112.496 282.259 109.748 290.411 106.529 298.204C104.997 301.915 102.425 306.847 102.425 310.974" stroke="black" stroke-width="3" stroke-linecap="round"/>
<path d="M138.911 26.3844C138.358 21.4149 110.073 43.4826 108.556 44.5766C89.7635 58.1292 71.0064 71.9315 61.0234 93.7312C52.3254 112.725 45.2163 135.065 41.1082 155.605C35.6572 182.86 36.8595 208.586 50.9391 233.138C59.677 248.375 70.0905 262.369 82.3068 274.944C83.4226 276.093 88.1053 284.264 89.6547 284.117C93.4154 283.758 98.5206 268.002 99.6883 265.316C108.771 244.425 115.109 222.445 124.671 201.77C130.688 188.759 137.105 175.921 141.647 162.294C147.655 144.27 147.47 125.911 146.208 107.059C145.461 95.8983 144.811 84.8674 143.015 73.816C142.409 70.0855 142.268 55.4965 138.708 53.242C130.928 48.3147 104.656 95.6077 101.969 102.751C91.642 130.205 88.2635 158.75 88.7932 187.885C88.8637 191.762 88.6008 231.457 96.4451 213.78C105.593 193.164 108.716 169.495 112.762 147.497C114.821 136.305 119.809 121.495 117.019 109.896C115.473 103.468 100.445 122.911 99.6376 123.984C87.3985 140.26 81.6469 159.381 74.3508 178.105C72.753 182.205 71.2079 186.45 69.0807 190.317C62.2902 202.664 51.3593 173.285 51.1925 172.733C48.8121 164.86 47.3606 156.689 46.4797 148.511C44.8223 133.123 48.0286 117.339 45.3648 102.093C45.1096 100.632 42.9395 98.4368 41.8176 99.4068C38.6143 102.176 37.1588 106.554 35.6353 110.505C24.3649 139.731 34.7949 121.267 25.8044 152.261" stroke="#FF0000" stroke-opacity="0.5" stroke-width="50" stroke-linecap="round"/>
<path d="M184.518 32.7694C180.583 36.7041 182.067 42.1119 182.694 47.161C184.038 58.0014 183.759 68.5365 186.342 79.2382C191.569 100.894 194.722 124.5 194.552 146.788C194.391 167.77 176.499 180.195 169.417 198.831C161.642 219.291 149.551 237.893 140.532 257.766C136.695 266.22 133.455 275.611 131.613 284.725C130.409 290.688 124.553 300.41 130.397 305.045C137.584 310.745 149.726 308.824 158.066 307.782C170.073 306.281 182.212 305.131 193.943 302.056C218.738 295.556 233.602 282.848 252.473 266.279C267.325 253.238 281.535 236.568 287.54 217.428C292.856 200.484 293.434 179.782 294.685 162.092C296.457 137.035 280.445 108.971 268.638 88.309C258.904 71.2735 246.953 52.9873 229.72 42.6003C226.047 40.3867 216.739 35.1248 212.085 36.6207C207.065 38.2342 220.279 64.5205 221.46 68.1404C238.718 121.029 212.378 168.775 192.727 217.023C188.111 228.358 183.369 239.64 179.704 251.33C178.281 255.868 175.395 262.426 176.714 267.394C180.932 283.274 205.428 261.865 209.754 256.803C228.402 234.981 233.567 199.912 238.639 172.632C241.928 154.94 243.332 136.385 247.456 118.917C247.817 117.389 248.998 113.488 250.75 116.687C258.008 129.941 253.358 152.036 251.865 166.095C249.941 184.213 247.104 202.347 243.808 220.266C242.642 226.603 241.485 233.401 238.335 238.915" stroke="#0000FF" stroke-opacity="0.5" stroke-width="50" stroke-linecap="round"/>
<path d="M209.146 112.126C208.931 110.191 206.959 109.049 205.092 109.592C196.906 111.974 194.666 123.796 196.072 130.876C199.711 149.209 216.499 132.591 209.146 120.336" stroke="black" stroke-width="3" stroke-linecap="round"/>
<path d="M218.267 106.653C214.709 110.657 220.394 126.329 220.801 131.383C221.682 142.308 220.776 132.444 222.524 128.342C225.345 121.723 232.64 126.904 234.686 131.484C236.882 136.399 230.661 136.685 227.389 137.666" stroke="black" stroke-width="3" stroke-linecap="round"/>
<path d="M249.28 128.545C244.781 119.546 241.527 131.599 243.402 131.94C245.894 132.393 245.743 126.555 247.659 126.619C250.799 126.724 253.834 131.584 257.49 132.193" stroke="black" stroke-width="3" stroke-linecap="round"/>
<path d="M262.05 119.423C262.29 123.981 262.754 128.522 262.963 133.106C263.075 135.588 263.406 128.147 263.875 125.707C264.613 121.859 266.593 120.383 269.196 124.187C271.345 127.329 270.562 134.235 273.148 128.9C277.099 120.75 282.068 131.515 283.03 135.842" stroke="black" stroke-width="3" stroke-linecap="round"/>
<path d="M295.8 129.457C295.33 128.517 293.113 123.271 291.543 124.592C287.139 128.301 288.155 138.227 293.165 130.369C293.896 129.223 294.783 123.017 295.648 123.984C300.167 129.035 304.485 133.966 309.482 138.578" stroke="black" stroke-width="3" stroke-linecap="round"/>
<path d="M206.41 169.591C206.41 165.203 200.198 163.887 196.933 165.74C192.261 168.392 191.93 178.006 197.339 173.139C200.565 170.235 202.161 165.326 204.382 171.416C206.382 176.896 205.374 189.536 209.146 193.307" stroke="black" stroke-width="3" stroke-linecap="round"/>
<path d="M241.983 181.449C241.983 183.042 242.514 184.484 242.895 186.01" stroke="black" stroke-width="3" stroke-linecap="round"/>
<path d="M187.254 224.32C187.026 224.121 192.778 238.499 194.653 241.246C199.78 248.755 205.641 222.499 206.41 218.847" stroke="black" stroke-width="3" stroke-linecap="round"/>
<path d="M219.18 233.442C218.958 231.228 214.218 227.611 213.099 230.857C210.37 238.77 219.205 244.06 220.092 232.53" stroke="black" stroke-width="3" stroke-linecap="round"/>
<path d="M231.95 215.199C231.789 215.098 232.705 235.965 232.862 238.002" stroke="black" stroke-width="3" stroke-linecap="round"/>
<path d="M225.565 230.705C226.012 226.676 237.411 224.565 240.159 223.408" stroke="black" stroke-width="3" stroke-linecap="round"/>
<path d="M247.456 227.057C244.351 230.55 253.953 226.791 255.209 224.827C257.608 221.079 249.417 224.968 248.47 226.145C243.858 231.875 252.633 232.53 255.665 232.53" stroke="black" stroke-width="3" stroke-linecap="round"/>
<path d="M275.733 214.287C278.193 214.287 270.465 217.046 270.513 219.506C270.615 224.721 276.64 225.626 278.469 229.692C280.547 234.31 269.735 235.546 267.523 236.178" stroke="black" stroke-width="3" stroke-linecap="round"/>
<path d="M51.1843 101.934C47.9062 102.299 48.7261 124.433 48.6329 126.172" stroke="black" stroke-width="3" stroke-linecap="round"/>
<path d="M49.9086 103.21C50.1839 102.522 51.0375 104.616 51.0425 104.627C52.6997 108.356 54.3553 112.045 56.1452 115.719C56.9217 117.313 58.0781 121.745 58.9801 120.219C61.1118 116.612 61.1771 111.08 61.6377 107.037C61.9011 104.725 61.373 94.2633 64.0118 101.509C66.8053 109.179 68.0937 116.958 69.6815 124.897" stroke="black" stroke-width="3" stroke-linecap="round"/>
<path d="M79.8869 114.691C73.8873 109.025 67.6292 128.51 80.5247 122.983" stroke="black" stroke-width="3" stroke-linecap="round"/>
<path d="M92.6436 98.1074C83.8583 93.9729 78.7375 137.357 98.3841 124.259" stroke="black" stroke-width="3" stroke-linecap="round"/>
<path d="M108.59 117.242C106.199 114.937 101.678 111.851 98.6322 115.223C96.038 118.095 97.4625 123.819 101.538 119.404C102.358 118.516 104.239 113.844 105.4 114.975C108.392 117.886 110.033 121.334 113.692 123.621" stroke="black" stroke-width="3" stroke-linecap="round"/>
<path d="M116.244 112.14C116.557 116.219 117.852 120.3 118.795 124.259" stroke="black" stroke-width="3" stroke-linecap="round"/>
<path d="M112.417 98.7452C111.821 98.2156 111.322 97.8316 111.779 98.7452" stroke="black" stroke-width="3" stroke-linecap="round"/>
<path d="M122.622 116.605C125.008 119.256 123.564 126.074 124.039 118.731C124.239 115.648 124.42 107.46 129.355 111.289C133.058 114.163 135.855 118.195 137.93 122.345" stroke="black" stroke-width="3" stroke-linecap="round"/>
<path d="M84.9896 180.388C85.6479 181.129 85.9626 182.032 86.2652 182.94" stroke="black" stroke-width="3" stroke-linecap="round"/>
<path d="M40.9789 207.177C39.3318 206.972 41.0996 209.474 41.7585 210.792C42.9508 213.176 47.0317 220.727 50.3338 216.674C52.5825 213.914 53.2539 209.26 54.3734 205.902" stroke="black" stroke-width="3" stroke-linecap="round"/>
<path d="M69.0437 208.453C68.7856 206.389 64.9179 207.146 63.8701 207.815C60.7055 209.837 60.0929 214.98 64.7206 215.611C72.0183 216.606 69.5191 210.485 67.768 207.177" stroke="black" stroke-width="3" stroke-linecap="round"/>
<path d="M80.5247 196.334C79.5176 195.579 79.8785 198.028 79.8869 198.531C79.9915 204.807 80.7156 211.125 81.1626 217.383" stroke="black" stroke-width="3" stroke-linecap="round"/>
<path d="M71.595 207.177C75.6467 205.354 79.9803 205.264 84.3517 205.264" stroke="black" stroke-width="3" stroke-linecap="round"/>
<path d="M89.4545 207.815C89.4545 211.068 94.2144 209.284 95.2658 207.532C95.8422 206.571 89.8363 208.421 91.368 213.131C92.6205 216.982 96.604 217.126 99.6598 216.107" stroke="black" stroke-width="3" stroke-linecap="round"/>
<path d="M114.33 204.626C114.087 202.678 101.924 206.919 106.57 210.615C108.42 212.086 115.322 213.171 115.322 216.249C115.322 219.684 109.068 221.05 106.676 221.848" stroke="black" stroke-width="3" stroke-linecap="round"/>
<path d="M218.916 167.208C218.916 165.379 220.556 163.169 222.411 165.023C224.223 166.835 223.95 168.384 221.974 169.766C221.538 170.072 218.899 171.059 219.571 171.452C223.928 173.993 229.641 174.238 229.151 181.094C228.997 183.252 223.137 189.129 221.725 186.305" stroke="black" stroke-width="3" stroke-linecap="round"/>
<path d="M254.302 165.523C254.302 163.982 254.694 161.602 256.517 161.185C263.337 159.627 262.768 165.808 260.48 169.766C258.998 172.332 253.817 177.206 259.388 178.379C262.2 178.971 265.672 179.51 268.344 178.441" stroke="black" stroke-width="3" stroke-linecap="round"/>
<path d="M54.9066 159.906C51.5624 160.035 47.2338 163.763 47.5424 167.364C47.982 172.492 56.0255 171.293 54.7506 177.88C53.789 182.848 48.6852 184.008 50.6004 178.067C52.3233 172.722 55.6845 168.352 57.715 163.276" stroke="black" stroke-width="3" stroke-linecap="round"/>
<path d="M68.3869 159.344C68.3869 152.004 69.5955 173.983 70.6336 181.25" stroke="black" stroke-width="3" stroke-linecap="round"/>
<path d="M105.458 156.536C105.163 153.884 101.691 155.08 100.59 156.411C94.0363 164.33 106.662 167.486 106.269 174.853C106.133 177.402 104.542 181.144 101.651 181.687C98.5755 182.263 100.435 174.602 100.59 173.854C101.752 168.235 106.581 162.217 106.581 156.536" stroke="black" stroke-width="3" stroke-linecap="round"/>
</svg>
