<svg width="216" height="226" viewBox="0 0 216 226" fill="none" xmlns="http://www.w3.org/2000/svg">
<path d="M60.2643 3.39761C61.6714 3.39761 58.367 5.4767 57.3841 6.48356C54.7412 9.19096 52.1897 11.9351 49.515 14.6099C44.648 19.4769 38.9016 21.5783 32.7222 23.9963C28.7536 25.5493 0.583678 28.9619 2.50563 34.5143C3.43179 37.1899 6.95415 39.7701 8.52323 42.2806C9.47597 43.805 13.2688 44.0174 14.798 44.5951C18.6399 46.0465 22.5123 47.3273 26.4989 48.3239C33.8618 50.1646 42.5882 53.5554 48.8978 57.7618C51.4614 59.4709 55.1794 61.0906 57.3841 63.2136C58.6521 64.4347 58.3221 66.2378 59.3386 67.5083C60.3432 68.764 63.087 66.9641 63.9675 69.3855C65.0077 72.246 65.8191 74.3559 65.8191 77.4605C65.8191 79.6033 65.3562 81.5898 65.3562 83.7095C65.3562 85.7448 69.3798 85.5354 70.448 87.0783C71.4598 88.5398 69.5495 92.4152 70.9109 93.0959C73.4229 94.352 78.0057 89.3299 79.1401 87.747C81.3385 84.6794 82.2703 80.8327 84.2319 77.5633C85.3618 75.6803 86.5568 71.8871 88.2694 70.5171C89.8353 69.2644 89.1235 70.0668 90.6096 70.4913C91.8371 70.8421 96.1377 67.0462 97.0386 66.1453C101.181 62.0032 95.0621 74.2521 99.9703 70.98C104.626 67.876 109.372 64.1152 114.68 62.185C120.94 59.9085 127.785 58.6426 134.327 57.4532C137.596 56.8589 140.796 55.1218 144.151 55.2416C147.547 55.3629 148.234 59.1501 150.168 61.1563C154.479 65.6262 151.801 57.6071 155.852 59.4076C156.781 59.8205 160.403 62.1379 161.381 61.4392C163.008 60.2765 162.101 54.9162 162.101 53.1329C162.101 50.1964 163.289 45.7879 161.998 43.2064C160.363 39.9363 156.117 41.6768 152.946 41.8177C150.959 41.906 148.561 43.9457 146.722 42.7435C144.992 41.612 142.659 40.1088 142.659 37.8574C142.659 36.9491 143.928 33.4821 143.354 33.0227C141.499 31.5389 139.076 32.1141 136.847 32.457C130.197 33.4802 123.212 33.9485 116.48 33.9485C113.383 33.9485 109.623 34.2761 107.068 36.263C105.237 37.687 103.559 39.586 101.462 40.6348C100.091 41.3202 98.2216 41.896 98.2216 39.7347C98.2216 37.6381 93.1759 42.0943 92.564 42.6406C86.1728 48.3471 74.9989 31.0931 71.8624 27.9566C68.6349 24.7291 63.3001 23.0234 58.9014 24.9478C57.3471 25.6279 55.4116 27.3926 53.5524 26.9794C51.2987 26.4786 54.257 20.3613 54.9154 19.496C57.9625 15.4912 61.8531 12.233 66.0762 9.51808C67.8454 8.38078 72.4476 6.08235 71.811 3.2176C71.3547 1.16452 61.3296 3.23589 59.8015 2.47182" stroke="black" stroke-width="3" stroke-linecap="round"/>
<path d="M143.585 68.2026C141.364 66.4253 136.036 70.0468 137.387 72.6001C138.59 74.8724 142.584 76.4307 142.659 79.0549C142.722 81.2576 143.79 83.8591 141.502 85.3039C139.798 86.3804 137.601 85.1053 135.947 86.024C133.576 87.3414 133.36 89.8815 132.476 92.1702C132.083 93.1851 127.706 97.344 127.41 94.9732C127.232 93.555 130.702 87.9641 127.641 89.7014C123.411 92.102 121.744 96.5243 118.589 99.6793C117.155 101.113 115.496 101.164 113.728 101.557C111.263 102.104 110.083 105.182 109.228 107.188C106.848 112.772 108.56 118.013 106.296 123.57C105.129 126.435 104.112 129.855 102.388 132.442C101.769 133.369 99.6763 135.426 100.176 136.711C101.953 141.282 100.536 144.591 100.536 149.415C100.536 151.499 102.198 153.372 103.211 155.124C105.114 158.418 106.554 162.819 107.222 166.542C109.354 178.416 107.86 189.236 102.85 200.23C101.14 203.984 99.3741 207.969 97.2701 211.519C96.3562 213.061 93.3291 217.459 94.5184 219.209C95.9715 221.345 99.321 220.031 101.488 220.031C104.868 220.031 108.256 220.031 111.645 220.031C119.309 220.031 126.578 218.643 134.224 218.643C137.95 218.643 142.552 219.042 146.105 220.057C148.725 220.806 150.603 223.272 153.769 223.272" stroke="black" stroke-width="3" stroke-linecap="round"/>
<path d="M153.306 221.883C153.539 223.745 162.183 222.809 163.695 222.809C168.741 222.809 173.078 225.358 178.302 224.197C184.632 222.791 188.279 217.667 191.032 212.162C193.198 207.829 194.725 199.336 200.058 197.813C203.681 196.777 203.412 191.761 204.327 188.915C204.55 188.22 207.927 183.341 207.927 186.035C207.927 188.575 207.726 190.79 210.807 188.452C215.191 185.126 213.482 179.065 213.482 174.411C213.482 171.133 212.161 169.086 210.705 166.336C208.364 161.915 209.903 156.859 208.133 152.192C206.428 147.698 203.507 133.522 197.049 133.522C194.087 133.522 190.134 139.177 188.203 141.108C186.082 143.229 183.147 147.091 180.154 147.923C177.868 148.558 170.931 152.053 170.459 147.332C170.002 142.764 173.177 141.02 174.702 137.276C175.674 134.891 179.022 132.751 180.822 130.95C182.675 129.097 182.912 125.865 184.422 123.75C185.615 122.08 188.023 119.396 188.023 117.269C188.023 113.55 185.632 108.168 184.32 104.668C183.424 102.281 180.715 97.3177 184.062 95.7962C185.693 95.0552 185.873 98.3395 185.708 95.0504C185.426 89.3984 181.438 84.2751 177.016 81.1636C174.926 79.6929 172.154 79.199 169.713 78.6177C165.624 77.6443 162.992 76.785 159.786 73.7573C156.784 70.9218 138.956 65.7528 138.956 65.4253" stroke="black" stroke-width="3" stroke-linecap="round"/>
</svg>
