<svg width="342" height="329" viewBox="0 0 342 329" fill="none" xmlns="http://www.w3.org/2000/svg">
<path d="M6.29474 36.6952C6.29474 7.19666 8.17726 95.6722 8.17726 125.171" stroke="black" stroke-width="5" stroke-linecap="round"/>
<path d="M2.52989 27.2829C3.73897 16.4016 49.6718 15.6839 55.8661 14.9423C84.7647 11.4827 114.406 10.8453 142.878 4.27506C148.244 3.03659 150.981 0.679933 151.662 8.03997C154.839 42.3538 156.891 77.5097 156.891 111.993" stroke="black" stroke-width="5" stroke-linecap="round"/>
<path d="M6.29474 123.288C37.7061 122.306 69.4338 117.525 100.627 113.98C117.276 112.088 143.552 113.697 156.891 102.581" stroke="black" stroke-width="5" stroke-linecap="round"/>
<path d="M60.8861 14.1057C60.8861 1.55594 60.8861 39.2051 60.8861 51.7548" stroke="black" stroke-width="5" stroke-linecap="round"/>
<path d="M10.0598 57.4021C11.4844 68.7998 65.1627 55.3082 72.1808 53.6372" stroke="black" stroke-width="5" stroke-linecap="round"/>
<path d="M66.5335 27.2828C39.2902 27.2828 121.284 23.4724 147.479 15.988" stroke="black" stroke-width="5" stroke-linecap="round"/>
<path d="M66.5335 42.3424C37.8539 42.3424 123.121 32.9073 151.244 27.2827" stroke="black" stroke-width="5" stroke-linecap="round"/>
<path d="M68.4158 55.5196C101.309 55.5196 134.392 51.823 166.304 44.2249" stroke="black" stroke-width="5" stroke-linecap="round"/>
<path d="M8.17726 79.9917C14.6196 85.1454 31.136 80.8227 37.2507 80.2008C74.4254 76.4203 111.056 71.1435 147.479 63.0496" stroke="black" stroke-width="5" stroke-linecap="round"/>
<path d="M13.8246 98.8161C62.2924 96.5081 111.729 83.663 158.774 72.4617" stroke="black" stroke-width="5" stroke-linecap="round"/>
<path d="M13.8246 108.229C65.9971 113.446 122.165 89.6102 171.951 76.2268" stroke="black" stroke-width="5" stroke-linecap="round"/>
<path d="M10.0598 66.8144C24.0352 75.4152 57.6662 66.9456 71.7625 65.6641C103.411 62.7869 134.047 59.1168 164.421 49.8723" stroke="black" stroke-width="5" stroke-linecap="round"/>
<path d="M19.472 19.7529C19.472 27.3632 8.94265 46.2763 19.5766 37.6363C29.4609 29.6053 26.8356 32.2114 25.1194 44.2248" stroke="black" stroke-width="5" stroke-linecap="round"/>
<path d="M40.179 25.4004C36.1469 30.4407 30.7627 43.0934 41.2248 32.9302C51.7603 22.6959 42.9337 38.9817 53.3562 34.8127" stroke="black" stroke-width="5" stroke-linecap="round"/>
<path d="M57.1211 32.9302C61.3763 33.403 59.7505 37.4725 59.0036 40.4601" stroke="black" stroke-width="5" stroke-linecap="round"/>
<path d="M262.309 70.5794C269.795 70.5794 247.073 73.0813 240.87 77.2727C228.531 85.6097 221.172 105.177 232.608 117.327C243.535 128.937 280.308 131.603 287.408 113.458C294.021 96.5591 276.218 75.6516 262.309 68.697" stroke="black" stroke-width="5" stroke-linecap="round"/>
<path d="M240.016 125.479C240.016 137.387 232.322 140.975 223.984 147.923" stroke="black" stroke-width="5" stroke-linecap="round"/>
<path d="M266.735 122.807C262.931 130.415 268.495 142.412 276.087 145.786C279.996 147.523 283.662 149.974 287.309 152.228C296.869 158.138 299.166 167.879 299.867 178.383" stroke="black" stroke-width="5" stroke-linecap="round"/>
<path d="M221.846 146.854C217.007 151.694 209.981 153.555 205.162 158.611C195.041 169.229 194.564 184.435 196.73 198.155" stroke="black" stroke-width="5" stroke-linecap="round"/>
<path d="M298.264 171.97C302.878 181.661 305.133 193.357 303.607 204.034" stroke="black" stroke-width="5" stroke-linecap="round"/>
<path d="M186.043 205.637C190.501 205 194.305 204.668 198.927 204.865C214.199 205.517 229.368 205.493 244.647 205.221C275.199 204.677 306.068 204.34 336.205 198.69" stroke="black" stroke-width="5" stroke-linecap="round"/>
<path d="M182.302 204.034C182.302 215.443 183.483 227.52 181.233 238.769" stroke="black" stroke-width="5" stroke-linecap="round"/>
<path d="M179.096 241.975C186.176 249.842 199.244 252.026 209.17 254.147C245.843 261.983 284.261 256.128 321.242 253.731" stroke="black" stroke-width="5" stroke-linecap="round"/>
<path d="M338.877 200.293C338.494 212.35 337.141 224.578 334.721 236.394C334.067 239.586 333.708 245.183 330.861 247.319" stroke="black" stroke-width="5" stroke-linecap="round"/>
<path d="M198.868 249.456C205.007 264.804 209.864 280.318 215.196 295.948C218.661 306.104 221.425 316.993 226.656 326.408" stroke="black" stroke-width="5" stroke-linecap="round"/>
<path d="M315.364 254.266C314.201 268.222 311.555 282.052 308.417 295.681C306.945 302.073 304.142 309.078 304.142 315.72" stroke="black" stroke-width="5" stroke-linecap="round"/>
<path d="M234.672 140.976C229.259 143.682 232.939 163.974 233.425 167.814C234.901 179.478 238.534 190.737 245.359 200.293" stroke="black" stroke-width="5" stroke-linecap="round"/>
<path d="M270.476 140.442C270.476 154.712 270.648 168.538 266.438 182.332C264.777 187.775 262.113 192.783 260.322 198.155" stroke="black" stroke-width="5" stroke-linecap="round"/>
<path d="M250.169 150.595C252.095 166.388 251.772 181.787 251.772 197.621" stroke="black" stroke-width="5" stroke-linecap="round"/>
<path d="M241.619 146.854C253.557 148.691 262.602 147.473 274.216 144.717" stroke="black" stroke-width="5" stroke-linecap="round"/>
</svg>
