<svg width="376" height="158" viewBox="0 0 376 158" fill="none" xmlns="http://www.w3.org/2000/svg">
<path d="M1.87286 115.141C12.9836 93.9292 28.8513 77.6391 47.7551 62.7789C91.5215 28.3743 142.377 -0.579327 199.237 16.3712C212.613 20.3588 224.558 29.9992 235.049 38.6994C245.051 46.9932 257.799 57.103 262.806 69.7838C265.905 77.631 266.602 107.278 265.958 115.141C264.491 133.059 260.276 138.399 247.483 152.354C238.408 162.255 221.976 150.46 215.698 143.423C179.295 102.62 234.406 50.3907 265.958 28.3672C281.562 17.4764 307.118 0.213232 328.215 1.83603C343.454 3.00828 358.715 4.22935 373.834 6.38923" stroke="#90EE90" stroke-width="3" stroke-linecap="round"/>
</svg>
