<svg width="274" height="298" viewBox="0 0 274 298" fill="none" xmlns="http://www.w3.org/2000/svg">
<path d="M5.73712 22.3885C8.08985 3.56753 6.23611 60.3299 5.73712 79.2907C4.92813 110.031 10.1735 141.059 7.31774 171.903C5.9688 186.473 6.49576 201.129 4.15651 215.634C3.32605 220.783 0.562281 230.639 4.68337 235.245C11.8802 243.289 19.0636 232.765 25.2314 238.933C32.1002 245.802 33.1471 260.764 43.2036 263.638C47.0285 264.73 50.7871 265.443 54.6777 266.857C59.2549 268.522 60.2376 273.409 64.5127 275.053C70.2529 277.261 69.8267 274.236 73.411 270.253C76.5825 266.729 79.9222 273.187 82.7191 274.761C93.7724 280.978 96.7947 277.659 105.023 270.253C108.837 266.821 118.361 267.911 122.937 267.911C130.504 267.911 131.133 271.54 131.133 278.214C131.133 288.902 137.938 298.933 150.569 294.723C154.763 293.325 160.339 289.693 161.691 285.298C162.684 282.074 163.788 273.659 166.141 271.307C170.175 267.272 171.418 263.08 173.048 257.374C173.259 256.636 179.19 244.593 180.6 249.529C183.981 261.36 188.483 256.183 194.884 248.358C201.267 240.557 199.8 226.203 209.11 220.727C212.653 218.643 212.686 213.628 215.667 211.243C217.985 209.389 220.797 219.611 222.34 220.493C230.595 225.21 246.742 203.692 250.206 197.31C256.266 186.147 258.513 175.789 261.563 163.59C264.497 151.855 269.516 140.972 268.178 128.934C267.853 126.006 262.632 116.347 265.485 114.064C268.186 111.904 269.174 109.157 269.174 105.634C269.174 92.7181 267.373 80.7322 269.7 67.6995C273.018 49.1211 271.281 29.0319 271.281 10.2119C271.281 -5.09995 259.672 5.88982 251.26 10.5631C239.237 17.2429 225.519 17.999 213.852 26.0766C204.235 32.7344 199.278 40.4187 186.981 43.2292C183.783 43.9602 176.306 44.5729 173.283 43.2292C169.386 41.4973 165.8 44.1343 161.926 45.3367C154.603 47.6092 142.44 47.5771 135.348 45.044C126.028 41.7155 116.18 45.5499 129.845 37.1409C134.113 34.5142 134.65 32.926 127.972 32.926C121.493 32.926 115.014 32.926 108.536 32.926C104.772 32.926 96.1621 24.0198 91.6759 22.3885C82.7915 19.1578 74.1127 21.3347 64.7469 21.3347C58.5669 21.3347 6.2182 24.6795 7.84458 18.1735" stroke="black" stroke-width="3" stroke-linecap="round"/>
</svg>
