<svg width="386" height="250" viewBox="0 0 386 250" fill="none" xmlns="http://www.w3.org/2000/svg">
<path d="M4.36852 61.5499C3.38829 61.4099 6.33012 59.662 6.66094 59.4156C12.8287 54.8199 19.5658 51.1415 25.5932 46.2934C32.2251 40.959 37.3762 33.9882 43.8535 28.5073C53.0122 20.7576 45.7509 53.9814 46.5017 55.8583C47.786 59.0689 52.7273 56.4539 54.8414 55.5026C63.8996 51.4265 74.601 52.5478 84.1686 50.562C93.0124 48.7265 102.02 47.3584 110.769 45.1867C121.993 42.4005 133.749 36.9025 145.392 36.6494C160.689 36.3169 176.007 30.9579 191.162 30.9579C204.818 30.9579 219.565 26.85 233.058 24.3968C243.841 22.4361 254.873 18.3304 265.547 15.6618C274.566 13.4071 284.074 11.3546 293.214 9.7727C297.279 9.0692 301.29 8.65943 305.348 8.15218C308.974 7.69899 310.334 5.3256 313.49 3.92305C317.104 2.31683 320.748 -0.0962715 323.253 4.63449C326.219 10.2377 331.859 13.6264 334.833 19.5748C339.553 29.0133 346.207 38.611 357.955 38.7837C369.285 38.9503 354.546 52.1769 351.908 56.9255C350.491 59.4759 352.637 62.8108 353.687 65.1071C355.289 68.6125 354.4 74.8583 351.71 77.755C350.186 79.3969 345.819 83.2796 348.39 85.3832C351.46 87.8944 355.52 87.6573 352.62 92.8138C348.229 100.619 344.273 99.7026 346.73 109.533C347.285 111.753 347.874 117.247 350.446 117.714C354.978 118.538 358.616 115.432 362.896 119.177C365.839 121.752 363.647 122.264 363.647 124.868C363.647 127.154 372.766 131.533 374.477 132.694C379.434 136.058 387.591 141.462 382.105 147.634C378.457 151.738 374.842 155.41 371.868 160.045C368.497 165.299 366.551 172.16 362.066 176.645C355.358 183.353 342.131 179.236 336.928 186.803C331.541 194.639 318.513 195.485 309.735 197.435C301.171 199.339 292.656 200.545 283.886 201.032C272.058 201.689 259.851 207.774 248.472 210.913C237.922 213.824 226.43 215.427 215.667 217.356C201.162 219.956 186.245 222.573 171.637 224.312C136.375 228.51 101.864 238.738 67.3707 247.236C57.9667 249.553 46.8868 247.948 37.1344 247.948C30.0487 247.948 32.51 239.522 32.51 234.588C32.51 229.116 31.8929 222.701 30.85 217.356C28.2599 204.081 25.0003 190.456 25.0003 176.843C25.0003 162.201 21.9611 145.693 19.3088 131.271C16.4464 115.707 14.0204 101.177 8.99289 86.0946C6.02697 77.1968 2.23419 67.5084 2.23419 57.9927" stroke="black" stroke-width="3" stroke-linecap="round"/>
</svg>
