<svg width="354" height="239" viewBox="0 0 354 239" fill="none" xmlns="http://www.w3.org/2000/svg">
<path d="M54 29C56.25 40.7567 54 54.0049 54 66.1425C54 81.9459 54 97.8175 54 113.602C54 141.528 54.6319 225.305 54.6319 197.379" stroke="#0000FE" stroke-width="3" stroke-linecap="round"/>
<path d="M53.7774 30.3333C55.1031 30.3333 56.6153 29.9226 58.1349 29.9226C61.0066 29.9226 63.709 31.0147 66.5077 31.1546C67.7292 31.2157 71.5521 31.2068 72.0287 32.4322C73.0323 35.0129 71.7459 39.586 71.5268 42.2879C71.1479 46.9605 70.6142 51.6031 70.6142 56.2957C70.6142 60.8429 70.6664 65.2915 71.2302 69.8016C72.0712 76.53 71.6944 83.2685 72.3481 89.9693C73.649 103.303 72.6675 117.13 72.6675 130.533C72.6675 151.987 71.4355 173.381 71.4355 194.8C71.4355 195.845 72.2555 198.369 71.0249 199.02C69.5703 199.791 67.6471 198.981 66.3024 199.728C64.0786 200.963 55.244 199.053 54.1881 201.165" stroke="#0000FE" stroke-width="3" stroke-linecap="round"/>
<path d="M94.4321 124.373C94.4321 118.07 95.2534 136.96 95.2534 143.263C95.2534 155.696 93.3411 168.048 93.2001 180.45C93.1431 185.472 92.8289 191.073 93.8161 196.009C94.5913 199.885 94.0653 199.153 98.3105 199.112C101.944 199.076 105.416 198.29 108.987 198.29C112.078 198.29 111.68 196.386 111.68 193.75C111.68 182.836 112.345 171.385 110.653 160.556C109.342 152.166 110.037 143.874 110.037 135.483C110.037 133.254 111.808 125.86 108.987 124.578C107.225 123.777 103.039 124.784 101.003 124.784C98.7912 124.784 96.0255 123.782 94.0215 124.784" stroke="#0000FE" stroke-width="3" stroke-linecap="round"/>
<path d="M134.265 124.784C134.228 124.488 134.734 129.426 134.653 130.761C134.362 135.562 134.265 140.311 134.265 145.134C134.265 154.742 134.265 164.241 134.265 173.857C134.265 181.248 134.265 188.64 134.265 196.032C134.265 200.677 143.125 197.469 145.855 197.469C152.815 197.469 151.102 189.878 151.102 184.328C151.102 174.598 150.122 164.877 149.049 155.217C147.924 145.091 150.692 135.624 150.692 125.605C150.692 122.572 146.236 123.8 144.121 124.053C141.598 124.356 136.887 124.131 134.676 125.605" stroke="#0000FE" stroke-width="3" stroke-linecap="round"/>
<path d="M172.456 13.4965C172.059 13.5462 173.688 24.1031 173.688 24.9948C173.688 30.1356 173.688 35.2763 173.688 40.4171C173.688 47.6412 172.867 54.746 172.867 61.9308C172.867 83.4644 172.046 105.056 172.046 126.654C172.046 136.665 172.867 146.713 172.867 156.723C172.867 163.068 173.278 169.37 173.278 175.705C173.278 180.945 172.721 186.509 173.3 191.72C173.519 193.69 173.283 196.158 173.711 198.085C174.042 199.575 180.363 197.5 181.491 197.469C183.677 197.41 185.873 197.469 188.061 197.469C191.106 197.469 189.704 191.274 189.704 188.891C189.704 181.493 187.65 174.212 187.65 166.83C187.65 159.343 188.882 151.888 188.882 144.404C188.882 132.575 189.704 120.63 189.704 108.768C189.704 95.525 189.293 82.2505 189.293 68.9803C189.293 58.6509 189.293 48.1917 189.293 37.8847C189.293 31.3005 188.705 24.9729 188.882 18.4244C189.013 13.5744 189.788 10.6219 184.365 10.6219C180.351 10.6219 172.456 9.90798 172.456 15.1391" stroke="#0000FE" stroke-width="3" stroke-linecap="round"/>
<path d="M213.111 104.662C212.011 104.799 214.008 114.956 213.909 116.137C213.372 122.583 212.906 129.277 212.084 135.689C210.259 149.922 212.29 164.501 212.29 178.784C212.29 183.414 211.879 187.934 211.879 192.541C211.879 194.09 211.122 197.908 212.906 198.701C217.124 200.576 223.326 199.237 227.689 198.268C232.43 197.214 229.663 179.257 229.537 175.613C229.11 163.233 228.937 150.959 228.716 138.563C228.523 127.797 228.716 116.987 228.716 106.304C228.716 99.5189 214.641 102.386 212.29 106.304" stroke="#0000FE" stroke-width="3" stroke-linecap="round"/>
<path d="M250.48 64.4175C250.48 67.3435 250.891 70.1894 250.891 73.1325C250.891 78.4185 249.659 83.6329 249.659 88.8742C249.659 98.0131 250.742 106.996 250.891 116.069C251.033 124.744 253.524 134.02 251.918 142.693C250.718 149.168 252.123 156.263 252.123 162.746C252.123 172.794 251.712 182.766 251.712 192.747C251.712 196.025 251.764 198.701 255.819 198.701C258.883 198.701 262.799 197.492 265.674 198.61C270.747 200.583 268.96 169.589 268.96 166.761C268.96 155.663 269.781 144.596 269.781 133.407C269.781 114.975 266.906 96.7832 266.906 78.4025C266.906 75.7751 269.384 63.4733 265.355 63.1855C259.925 62.7977 253.18 61.3078 248.838 65.6495" stroke="#0000FE" stroke-width="3" stroke-linecap="round"/>
<path d="M73.0781 158.046C75.9886 158.046 80.5063 159.428 83.162 158.366C87.1929 156.753 89.0364 160.325 89.0936 163.932C89.2215 171.989 89.0936 180.058 89.0936 188.115C89.0936 190.936 89.5043 193.618 89.5043 196.42C89.5043 198.048 87.5611 197.84 86.219 197.88C82.247 197.997 78.2425 197.88 74.3101 197.88C72.5149 197.88 73.8994 187.602 73.8994 185.88C73.8994 179.76 74.1396 173.629 74.3101 167.491C74.3419 166.347 74.0224 158.745 73.8994 158.868" stroke="#FE0000" stroke-width="3" stroke-linecap="round"/>
<path d="M114.965 160.921C112.514 161.193 114.965 183.271 114.965 185.743C114.965 189.388 115.375 193.124 115.375 196.83C115.375 198.94 124.124 198.074 125.642 197.857C130.611 197.147 128.555 192.674 129.018 188.617C129.788 181.881 128.516 175.492 128.516 168.815C128.516 167.187 129.142 162.247 126.782 162.153C122.565 161.984 118.047 161.332 113.733 161.332" stroke="#FE0000" stroke-width="3" stroke-linecap="round"/>
<path d="M152.745 162.153C150.578 162.153 152.334 170.657 152.334 172.807C152.334 178.424 151.513 184.026 151.513 189.644C151.513 191.45 150.441 197.299 152.95 197.857C156.658 198.681 160.387 197.058 164.038 197.058C171.944 197.058 167.654 174.217 167.528 169.955C167.482 168.39 166.999 163.912 165.475 163.066C161.949 161.107 153.348 160.729 150.281 163.796" stroke="#FE0000" stroke-width="3" stroke-linecap="round"/>
<path d="M190.114 149.423C189.653 149.365 190.418 152.25 190.502 153.506C190.692 156.356 190.688 159.317 191.027 162.153C191.736 168.095 191.346 174.233 191.346 180.222C191.346 184.175 193.278 191.177 191.666 195.005C189.955 199.067 194.321 198.327 196.89 197.88C199.884 197.359 207.564 198.418 207.75 194.252C208.147 185.316 207.908 176.781 207.385 167.879C207.096 162.966 206.986 157.314 206.107 152.48C205.117 147.038 193.502 149.833 189.704 149.833" stroke="#FE0000" stroke-width="3" stroke-linecap="round"/>
<path d="M230.769 160.51C236.097 161.102 232.306 186.308 231.978 189.256C231.747 191.335 230.027 196.771 231.681 198.61C233.752 200.911 240.37 198.29 243.066 198.29C244.906 198.29 247.246 196.265 247.583 194.412C248.749 187.995 248.548 180.793 248.427 174.244C248.384 171.925 248.521 160.51 245.758 160.51C241.565 160.51 237.081 160.51 232.822 160.51" stroke="#FE0000" stroke-width="3" stroke-linecap="round"/>
<path d="M269.781 160.1C269.781 157.748 270.903 161.482 270.99 162.176C271.381 165.305 270.88 168.951 270.283 172.009C269.065 178.249 269.37 184.871 269.37 191.218C269.37 193.134 268.298 198.701 271.104 198.701C275.863 198.701 281.241 199.816 285.386 197.378C288.599 195.488 286.618 182.573 286.618 179.309C286.618 174.176 287.741 168.752 286.298 163.704C285.771 161.859 286.132 161.752 284.975 160.305C284.015 159.105 280.588 159.49 279.226 159.187C275.943 158.457 271.838 158.592 268.96 160.51" stroke="#FE0000" stroke-width="3" stroke-linecap="round"/>
<path d="M21.3309 59.2044C21.4206 57.5908 24.7985 56.895 23.7174 59.5046C23.5383 59.9367 22.0921 61.5578 22.7145 61.9056C23.4077 62.293 24.3746 62.3431 25.1521 62.4986" stroke="black" stroke-linecap="round"/>
<path d="M28.051 59.3362C27.7045 57.5607 26.1396 59.4875 26.3234 60.5514C26.458 61.3306 27.2735 62.061 27.8753 61.1956C28.7171 59.9848 28.4688 59.092 27.5239 58.2821" stroke="black" stroke-linecap="round"/>
<path d="M30.818 58.4138C29.7997 58.032 29.0446 62.9203 31.2646 61.7885C32.3034 61.2589 32.5946 58.5774 31.4769 58.0185" stroke="black" stroke-linecap="round"/>
<path d="M32.9263 62.235C33.9217 62.235 32.1722 64.4217 32.0039 64.6068" stroke="black" stroke-linecap="round"/>
<path d="M36.4839 58.5456C35.0658 57.1842 33.6551 61.3442 35.1663 62.1765C36.0028 62.6372 36.8862 62.0626 37.3111 61.3127C37.8973 60.2783 37.0235 58.7749 36.2204 58.1503" stroke="black" stroke-linecap="round"/>
<path d="M40.0416 57.8868C38.9334 57.0002 38.1508 60.1628 38.3872 60.8588C38.7846 62.0288 39.8544 62.2848 40.6053 61.2541C41.5041 60.0205 41.084 58.8802 40.1734 57.8868" stroke="black" stroke-linecap="round"/>
<path d="M44.2581 58.4138C44.4237 58.0116 44.1091 57.9639 43.775 58.1137C42.788 58.5561 42.3808 61.9735 43.4968 62.3814C45.4214 63.0851 45.615 58.0264 43.5993 57.6232" stroke="black" stroke-linecap="round"/>
<path d="M23.5709 127.591C23.5709 126.095 23.8345 130.575 23.8345 132.071" stroke="black" stroke-linecap="round"/>
<path d="M28.051 128.645C28.0332 128.343 27.8499 128.068 27.5239 128.015C26.5314 127.854 26.2706 129.547 26.2355 130.153C26.1951 130.851 26.7236 133.259 27.8606 132.254C28.8594 131.371 29.2899 129.884 28.3145 128.908" stroke="black" stroke-linecap="round"/>
<path d="M32.1357 128.118C31.8537 127.585 31.3934 127.69 30.9352 128.03C29.9202 128.783 29.4581 129.897 29.7127 131.141C30.1782 133.417 33.6925 130.48 31.7404 128.25" stroke="black" stroke-linecap="round"/>
<path d="M33.1898 131.28C33.4934 131.356 33.1046 132.629 33.058 132.861" stroke="black" stroke-linecap="round"/>
<path d="M36.4839 127.986C36.4555 127.758 36.1552 127.875 36.0155 127.935C35.1667 128.299 34.9015 129.989 35.0052 130.775C35.1337 131.748 35.823 131.883 36.4254 131.163C37.3439 130.065 36.8833 129.107 36.3522 127.986" stroke="black" stroke-linecap="round"/>
<path d="M40.4369 127.986C40.3168 125.944 38.385 129.31 38.68 130.49C38.8712 131.254 39.4205 131.748 40.1368 131.207C41.6692 130.049 41.236 128.586 40.5687 127.195" stroke="black" stroke-linecap="round"/>
<path d="M44.7852 128.118C43.618 126.562 41.9506 130.904 42.633 131.968C43.3235 133.045 44.6788 131.389 44.9535 130.753C45.496 129.497 44.6581 128.59 43.8628 127.722" stroke="black" stroke-linecap="round"/>
<path d="M23.5709 92.4093C23.5709 91.2234 23.5052 94.7829 23.5709 95.967" stroke="black" stroke-linecap="round"/>
<path d="M25.2839 92.5411C25.3123 92.7969 25.3665 93.5048 25.5474 93.5952" stroke="black" stroke-linecap="round"/>
<path d="M25.6792 92.5411C25.3474 92.4996 25.6941 92.1457 25.8256 92.0799C26.6456 91.6699 27.7009 91.584 28.578 91.3552" stroke="black" stroke-linecap="round"/>
<path d="M26.2062 93.727C25.7631 93.727 27.1475 93.8146 27.48 94.1076C28.751 95.2278 27.1369 96.3632 25.9427 96.2305" stroke="black" stroke-linecap="round"/>
<path d="M30.818 93.727C30.7913 93.4594 30.6479 93.3482 30.3935 93.4927C29.5273 93.9849 29.7772 95.2923 30.1885 96.0402C30.9213 97.3725 33.1173 93.7915 30.818 93.3317" stroke="black" stroke-linecap="round"/>
<path d="M33.1898 96.0988C33.5928 95.7405 32.8907 97.6479 32.3992 97.8117" stroke="black" stroke-linecap="round"/>
<path d="M37.5381 92.9364C37.5381 91.9717 36.5205 92.8238 36.44 93.4195C35.9932 96.7259 39.8325 93.895 37.8016 92.5411" stroke="black" stroke-linecap="round"/>
<path d="M41.7546 92.8046C41.1764 91.7767 39.6946 94.7133 40.393 95.5863C41.3771 96.8165 44.2239 92.6728 41.0957 92.6728" stroke="black" stroke-linecap="round"/>
<path d="M45.444 93.0681C45.6076 92.884 45.5591 92.7481 45.2829 92.7607C43.9765 92.8201 44.1958 94.8578 44.4118 95.6815C44.6433 96.564 45.6308 96.6871 46.2346 96.0548C47.3835 94.8518 46.7204 93.541 45.7075 92.6729" stroke="black" stroke-linecap="round"/>
<path d="M25.9427 162.706C25.7037 162.497 25.9427 163.455 25.9427 163.629" stroke="black" stroke-linecap="round"/>
<path d="M26.2062 161.916C25.1703 161.786 28.224 161.378 29.2368 161.125" stroke="black" stroke-linecap="round"/>
<path d="M26.8651 163.101C26.7808 163.15 28.1494 163.715 28.4609 164.068C29.4143 165.147 27.4532 166.518 27.1286 165.869" stroke="black" stroke-linecap="round"/>
<path d="M31.2133 162.838C31.399 162.312 30.7291 162.468 30.4593 162.626C29.6075 163.124 29.0892 163.912 29.4272 164.888C29.7968 165.954 30.5696 165.982 31.2573 165.173C32.0081 164.29 31.7654 163.619 31.0816 162.838" stroke="black" stroke-linecap="round"/>
<path d="M32.9263 164.946C33.2813 165.346 32.2849 166.905 32.6627 166.527" stroke="black" stroke-linecap="round"/>
<path d="M36.3522 162.311C36.3122 161.971 36.0756 161.936 35.7592 162.003C34.91 162.184 34.5138 163.732 34.6465 164.456C34.8014 165.3 35.7483 164.942 36.1765 164.58C37.2177 163.7 37.2236 162.929 36.6157 161.916" stroke="black" stroke-linecap="round"/>
<path d="M40.4369 162.574C40.6912 162.284 39.9399 162.578 39.8952 162.596C39.119 162.923 38.2601 164.212 38.5775 165.078C39.0318 166.317 43.0263 164.311 40.1734 162.706" stroke="black" stroke-linecap="round"/>
<path d="M44.6534 163.497C44.5243 162.334 41.9979 164.495 43.021 165.707C44.1119 167 47.542 162.687 44.1263 162.443" stroke="black" stroke-linecap="round"/>
<path d="M1.50119 134.938C2.08939 135.526 3.13939 135.521 3.89976 135.647C4.93126 135.817 6.00467 136.084 7.04296 135.969" stroke="black" stroke-linecap="round"/>
<path d="M2.14559 135.582C3.4391 134.474 5.32732 134.12 6.82817 133.334C7.98448 132.728 4.98433 131.941 4.72315 131.874C4.37949 131.784 1.83345 130.883 1.83771 130.878C2.20273 130.513 3.56481 130.551 4.02149 130.499C5.07004 130.38 6.12233 130.274 7.17185 130.169" stroke="black" stroke-linecap="round"/>
<path d="M4.4654 128.494C5.23001 129.163 5.8873 124.931 3.95705 125.673C3.42068 125.879 3.47917 126.702 3.54893 127.162C3.70046 128.162 4.64241 128.446 5.53939 128.279C7.05848 127.997 7.31427 126.856 6.39858 125.788" stroke="black" stroke-linecap="round"/>
<path d="M0.727924 121.406C0.13986 121.406 1.9016 121.284 2.48927 121.305C3.38437 121.339 4.28525 121.43 5.18139 121.377C5.47948 121.359 6.19384 121.139 6.47017 121.277C6.49808 121.291 4.83828 122.937 4.89499 123.353C5.01158 124.208 7.09404 123.712 7.34368 123.138C7.61292 122.52 6.79862 121.835 6.39858 121.535" stroke="black" stroke-linecap="round"/>
<path d="M3.3055 119.73C1.88719 119.73 6.14018 119.601 7.55849 119.601" stroke="black" stroke-linecap="round"/>
<path d="M1.50119 119.473C1.28696 119.458 1.37232 119.466 1.37232 119.344" stroke="black" stroke-linecap="round"/>
<path d="M4.33652 115.606C3.86325 115.238 3.65016 116.681 3.98568 117.017C4.8386 117.87 7.81216 117.693 6.47017 116.15C6.01634 115.629 5.42155 115.495 4.78043 115.348C4.31823 115.243 4.00502 115.398 4.55847 115.076C5.1579 114.728 6.20145 114.325 6.52744 113.673" stroke="black" stroke-linecap="round"/>
<path d="M4.07876 112.771C3.99533 112.904 6.32669 112.811 6.60621 112.771C6.96347 112.72 4.92929 112.614 4.50835 112.484C1.71609 111.623 5.94093 110.26 6.91408 109.936" stroke="black" stroke-linecap="round"/>
<path d="M2.53222 106.327C1.77239 106.295 2.65392 106.051 2.9117 105.998C4.20279 105.73 5.54615 105.698 6.821 105.368C7.58554 105.169 6.23674 105.351 6.09069 105.368C4.83051 105.515 3.57995 105.645 2.33174 105.353C0.180982 104.85 1.15148 103.162 2.70406 102.289C3.99346 101.563 4.81037 104.665 4.07876 104.909" stroke="black" stroke-linecap="round"/>
<path d="M4.85204 100.141C4.52986 99.8544 4.25284 100.362 4.22912 100.671C4.15294 101.661 5.56567 103.109 6.53462 102.425C8.92284 100.739 4.66721 98.0279 4.20764 100.785" stroke="black" stroke-linecap="round"/>
<path d="M4.4654 97.6921C5.09544 98.2592 6.98864 97.8065 7.73031 97.7494C8.51174 97.6893 9.30867 97.5633 10.0931 97.5633C11.9614 97.5633 6.331 98.1619 4.49404 97.821C2.73013 97.4937 3.97119 96.2811 5.16707 96.1169C6.04778 95.9961 6.6423 96.5658 6.88545 97.3628C6.90074 97.4129 7.09047 98.6079 6.91408 98.0788" stroke="black" stroke-linecap="round"/>
<path d="M3.69213 95.1146C2.41061 95.1146 7.45158 95.1887 7.34368 93.9117C7.2039 92.2575 5.5563 92.293 4.33652 92.537" stroke="black" stroke-linecap="round"/>
<path d="M1.63007 91.1193C0.20048 91.1193 4.48926 91.1193 5.91885 91.1193C6.5299 91.1193 7.88139 91.3459 7.30071 90.4749" stroke="black" stroke-linecap="round"/>
<path d="M4.4654 87.253C3.25891 87.9515 4.01758 89.3106 5.22434 89.5155C7.14839 89.8422 7.37759 88.529 5.88305 87.5394C5.55772 87.324 3.93421 86.8837 4.39379 86.8664C5.07672 86.8406 6.96924 86.4978 6.7852 85.5776" stroke="black" stroke-linecap="round"/>
<path d="M2.27446 84.6754C1.18549 84.6754 3.61103 84.5471 3.73509 84.5465C4.83461 84.5413 5.95922 84.6344 7.04296 84.4177" stroke="black" stroke-linecap="round"/>
<path d="M3.821 86.0931C3.821 87.3507 3.70317 83.5487 3.3055 82.3556" stroke="black" stroke-linecap="round"/>
<path d="M3.43437 81.0668C3.29963 80.9128 5.16545 80.8522 5.39618 80.8377C5.51472 80.8303 7.23668 80.7126 6.91408 80.5513" stroke="black" stroke-linecap="round"/>
<path d="M1.63008 80.6802V80.5513" stroke="black" stroke-linecap="round"/>
<path d="M4.59428 76.5561C3.29989 77.7211 4.83269 79.0662 6.31266 78.6611C8.08488 78.1761 5.15038 74.813 3.94989 76.8138" stroke="black" stroke-linecap="round"/>
<path d="M3.94989 74.8807C4.18462 75.3501 6.41792 74.9118 6.88545 74.8807C7.73369 74.8241 5.21416 74.5595 4.39381 74.3365C1.52816 73.5575 6.07499 71.7876 7.30072 71.7876" stroke="black" stroke-linecap="round"/>
<path d="M62.9451 213.36C63.1376 211.435 66.2338 212.351 65.2631 214.32C64.8207 215.217 63.3104 216.459 64.6777 217.27C65.4523 217.729 66.3561 217.593 67.1596 217.363" stroke="black" stroke-linecap="round"/>
<path d="M70.9526 213.36C70.2605 212.322 68.5705 214.745 69.5244 215.842C70.7083 217.203 71.7658 214.122 70.7419 213.781" stroke="black" stroke-linecap="round"/>
<path d="M73.9027 213.36C73.8261 212.67 71.6761 215.184 73.212 216.72C74.6936 218.201 76.554 214.23 74.7456 212.938" stroke="black" stroke-linecap="round"/>
<path d="M76.8529 212.095C76.8817 212.071 76.8008 213.874 76.8763 214.308C77.0996 215.592 78.8377 214.876 79.5923 214.624" stroke="black" stroke-linecap="round"/>
<path d="M80.0137 213.149C79.7203 212.635 79.4616 217.429 80.0137 217.153" stroke="black" stroke-linecap="round"/>
<path d="M103.193 212.938C103.704 211.406 107.58 212.95 105.722 215.537C105.351 216.054 104.352 216.668 105.137 217.27C106.132 218.034 107.309 217.16 108.04 216.521" stroke="black" stroke-linecap="round"/>
<path d="M111.411 213.992C111.411 211.762 107.512 213.628 108.344 215.631C109.36 218.076 111.949 214.856 110.99 212.938" stroke="black" stroke-linecap="round"/>
<path d="M114.151 213.57C114.151 213.212 114.099 213.117 113.706 213.161C112.507 213.294 112.476 214.662 112.676 215.607C113.027 217.268 115.733 214.941 114.151 213.36" stroke="black" stroke-linecap="round"/>
<path d="M118.365 212.306C117.83 211.771 117.116 211.806 116.609 212.458C115.153 214.33 119.392 215.309 118.916 216.357C118.565 217.127 115.91 218.863 115.93 217.083C115.953 215.091 117.635 213.737 117.944 211.885" stroke="black" stroke-linecap="round"/>
<path d="M142.177 212.938C143.05 212.284 144.556 212.493 145.455 212.962C147.046 213.792 144.545 215.245 143.921 215.947C142.511 217.534 146.619 216.993 147.445 216.521" stroke="black" stroke-linecap="round"/>
<path d="M149.763 212.728C149.526 212.305 149.319 212.241 149.014 212.657C148.332 213.586 148.583 214.574 149.037 215.561C149.489 216.542 150.282 216.161 150.676 215.35C151.084 214.51 150.695 213.738 150.395 212.938" stroke="black" stroke-linecap="round"/>
<path d="M152.924 212.306C152.79 211.637 152.713 213.66 152.713 214.343C152.713 214.924 152.459 216.731 153.135 216.731" stroke="black" stroke-linecap="round"/>
<path d="M155.242 212.938C155.432 212.129 156.772 212.279 157.045 212.985C157.397 213.896 155.983 214.936 155.546 215.584C154.549 217.065 157.617 216.521 158.403 216.521" stroke="black" stroke-linecap="round"/>
<path d="M180.95 213.36C183.128 213.142 184.776 213.04 183.315 215.748C182.358 217.522 184.078 217.591 185.375 216.942" stroke="black" stroke-linecap="round"/>
<path d="M189.801 213.781C188.771 212.19 185.928 214.754 187.155 216.005C187.948 216.815 189.116 216.117 189.824 215.561C191.041 214.604 190.399 213.681 190.011 212.517" stroke="black" stroke-linecap="round"/>
<path d="M192.118 212.517C192.118 213.213 191.602 216.974 192.329 216.731" stroke="black" stroke-linecap="round"/>
<path d="M196.544 212.306C193.902 212.306 193.897 219.268 196.813 216.825C197.919 215.898 197.59 214.774 196.029 215.092C195.488 215.203 193.887 216.563 194.647 216.31" stroke="black" stroke-linecap="round"/>
<path d="M219.934 213.149C220.805 212.365 221.9 212.038 223.071 212.095C224.46 212.164 223.135 215.084 222.79 215.643C221.673 217.451 224.071 216.898 225.202 216.521" stroke="black" stroke-linecap="round"/>
<path d="M228.574 213.57C227.063 212.472 224.714 216.083 226.63 216.802C228.555 217.523 230.765 214.006 228.363 212.938" stroke="black" stroke-linecap="round"/>
<path d="M230.892 213.36C230.937 212.633 231.624 213.021 231.851 213.477C232.241 214.255 230.463 215.668 230.025 216.123C228.711 217.488 232.303 216.866 232.999 216.31" stroke="black" stroke-linecap="round"/>
<path d="M235.949 214.203C235.949 212.06 233.107 213.685 232.788 214.975C232.471 216.259 233.717 216.905 234.778 216.333C236.562 215.373 236.385 214 235.949 212.517" stroke="black" stroke-linecap="round"/>
<path d="M259.761 214.624C260.047 211.952 264.174 211.632 262.781 214.484C262.617 214.82 261.019 216.605 261.868 216.895C262.891 217.245 264.206 216.898 265.029 216.31" stroke="black" stroke-linecap="round"/>
<path d="M267.768 213.149C266.948 211.69 264.682 214.873 266.035 215.947C266.893 216.627 268.219 216.014 268.67 215.139C269.255 214.003 268.526 213.064 267.768 212.306" stroke="black" stroke-linecap="round"/>
<path d="M269.032 213.149C269.298 212.698 270.165 212.26 270.461 212.985C270.869 213.988 269.498 215.111 269.068 215.865C268.297 217.213 271.24 217.484 271.561 216.521" stroke="black" stroke-linecap="round"/>
<path d="M273.036 212.095C272.105 214.075 273.841 215.524 275.143 213.57" stroke="black" stroke-linecap="round"/>
<path d="M275.354 210.62C275.354 209.372 275.416 213.12 275.342 214.367C275.324 214.684 274.871 216.973 275.354 216.731" stroke="black" stroke-linecap="round"/>
<path d="M157.138 231.903C157.407 230.021 157.56 235.691 157.56 237.593" stroke="black" stroke-linecap="round"/>
<path d="M157.349 231.482C157.212 232.712 160.612 232.187 161.353 231.693" stroke="black" stroke-linecap="round"/>
<path d="M157.56 234.643C157.251 234.996 160.275 234.37 160.721 234.221" stroke="black" stroke-linecap="round"/>
<path d="M157.771 236.961C156.647 237.101 160.236 237.219 161.142 236.539" stroke="black" stroke-linecap="round"/>
<path d="M162.828 231.271C162.276 231.409 161.893 236.388 162.196 236.539" stroke="black" stroke-linecap="round"/>
<path d="M164.724 234.011C164.724 236.095 167.284 234.275 166.703 233.695C165.516 232.508 163.732 234.818 163.811 235.931C163.925 237.517 165.837 236.955 166.621 236.329" stroke="black" stroke-linecap="round"/>
<path d="M170.625 233.378C169.948 233.904 169.183 233.79 168.541 234.69C168.001 235.445 167.942 236.231 168.681 236.867C169.476 237.551 170.385 236.531 171.046 236.118" stroke="black" stroke-linecap="round"/>
<path d="M173.364 232.114C172.742 233.668 172.894 235.761 172.732 237.382" stroke="black" stroke-linecap="round"/>
<path d="M171.468 233.8C171.274 233.579 173.373 233.286 173.786 233.168" stroke="black" stroke-linecap="round"/>
<path d="M174.207 233.589C173.515 233.849 174.305 236.82 174.418 237.382" stroke="black" stroke-linecap="round"/>
<path d="M174.839 231.482V231.693" stroke="black" stroke-linecap="round"/>
<path d="M178.632 234.643C177.782 233.132 175.34 235.43 176.244 236.797C177.407 238.556 180.187 235.997 177.579 234.432" stroke="black" stroke-linecap="round"/>
<path d="M179.686 234.221C179.288 233.873 179.844 235.988 179.885 236.317C180.053 237.663 180.09 236.11 180.224 235.591C180.448 234.729 181.01 233.593 182.121 233.847C183.314 234.119 183.45 236.212 183.69 237.171" stroke="black" stroke-linecap="round"/>
<path d="M319.45 103.844C318.943 103.787 319.411 106.354 319.442 106.571C319.532 107.207 319.599 109.134 319.599 108.492C319.599 107.213 319.298 105.525 319.928 104.355C320.765 102.801 322.945 105.474 322.945 106.481C322.945 107.368 320.387 108.832 320.044 108.146" stroke="black" stroke-linecap="round"/>
<path d="M324.049 106.514C323.904 106.555 324.986 106.667 325.36 106.464C326.498 105.848 326.304 104.449 324.882 105.146C323.936 105.609 323.678 106.928 324.494 107.668C325.404 108.492 326.451 107.494 327.164 106.959" stroke="black" stroke-linecap="round"/>
<path d="M327.609 105.179C327.658 105.912 327.837 106.631 327.898 107.363C327.957 108.074 327.951 106.637 327.997 106.44C328.116 105.925 328.389 104.743 328.945 104.503C329.6 104.22 330.023 106.128 330.098 106.514C330.393 108.013 330.647 105.878 331.087 105.278C331.881 104.196 332.458 107.132 332.505 107.552" stroke="black" stroke-linecap="round"/>
<path d="M334.582 106.217C334.774 105.795 334.849 105.162 334.137 105.36C332.95 105.69 333.785 107.635 334.219 108.195C335.951 110.431 337.586 103.671 335.324 105.179" stroke="black" stroke-linecap="round"/>
<path d="M339.329 105.179C338.714 104.086 336.978 106.083 337.203 106.876C337.483 107.865 338.905 107.955 339.329 107.107" stroke="black" stroke-linecap="round"/>
<path d="M339.922 105.92C340.387 106.56 340.152 109.116 340.4 106.778C340.556 105.32 341.076 105.03 342.444 105.03" stroke="black" stroke-linecap="round"/>
<path d="M344.521 106.069C344.94 105.53 343.279 106.031 342.997 106.374C342.114 107.443 343.148 109.076 344.109 107.618C344.407 107.166 344.71 106.554 344.661 105.995C344.615 105.456 344.607 105.648 344.826 106.085C345.203 106.839 345.515 107.753 346.301 108.146" stroke="black" stroke-linecap="round"/>
<path d="M347.637 103.102C346.896 103.595 347.437 106.225 347.488 106.86C347.509 107.114 347.402 108.796 347.933 108.442" stroke="black" stroke-linecap="round"/>
<path d="M346.005 105.475C345.063 105.61 347.973 105.456 348.823 105.03" stroke="black" stroke-linecap="round"/>
<path d="M319.005 116.305C318.73 116.064 319.001 117.134 319.014 117.253C319.102 118.08 319.302 120.566 319.302 119.733C319.302 118.688 318.418 113.901 320.621 114.656C322.687 115.366 322.362 116.828 320.588 117.335C320.198 117.446 321.31 117.705 321.643 117.937C322.303 118.396 322.996 119.052 323.159 119.865" stroke="black" stroke-linecap="round"/>
<path d="M324.346 117.492C324.487 118.766 327.15 116.78 325.648 116.634C324.554 116.529 322.644 117.974 323.621 119.09C324.248 119.808 325.276 119.773 325.978 119.272" stroke="black" stroke-linecap="round"/>
<path d="M327.461 117.195C327.487 118.615 328.055 120.007 328.055 121.398C328.055 122.283 327.767 119.651 327.626 118.777C327.534 118.207 327.163 116.755 327.783 116.321C328.674 115.697 329.97 117.359 329.802 118.2C329.647 118.973 328.102 118.88 328.203 118.678" stroke="black" stroke-linecap="round"/>
<path d="M330.725 116.898C330.561 115.913 330.917 119.556 331.912 119.651C333.099 119.764 333.832 117.53 333.247 116.75" stroke="black" stroke-linecap="round"/>
<path d="M334.879 115.266C334.706 116.032 334.875 116.827 334.945 117.599C334.986 118.063 334.614 119.125 335.06 118.992C335.72 118.793 335.326 116.67 336.37 116.775C339.066 117.044 335.726 120.838 335.324 118.827" stroke="black" stroke-linecap="round"/>
<path d="M338.142 115.415C338.09 114.105 337.994 117.758 337.994 118.134C337.994 118.391 337.744 120.23 338.291 119.865" stroke="black" stroke-linecap="round"/>
<path d="M339.626 116.75C339.626 117.543 339.708 118.374 339.922 119.123" stroke="black" stroke-linecap="round"/>
<path d="M339.626 114.673C339.762 114.69 339.724 114.721 339.774 114.821" stroke="black" stroke-linecap="round"/>
<path d="M342.593 116.75C341.611 116.75 340.878 118.394 340.994 119.239C341.191 120.673 343.111 120.014 343.928 119.717" stroke="black" stroke-linecap="round"/>
<path d="M346.45 117.64C346.382 116.496 345.115 117.303 344.76 117.813C343.437 119.712 345.561 119.954 346.475 118.398C346.731 117.961 346.66 116.819 346.664 116.964C346.68 117.548 347.006 119.123 347.785 119.123" stroke="black" stroke-linecap="round"/>
<path d="M348.675 116.602C348.675 117.47 348.972 118.304 348.972 119.173C348.972 120.139 349.172 117.133 349.796 116.395C351.276 114.646 352.379 119.248 352.532 120.014" stroke="black" stroke-linecap="round"/>
<path d="M303.28 100.283C303.28 102.986 303.132 105.687 303.132 108.393C303.132 109.016 303.144 109.595 303.28 110.206C303.444 110.942 306.038 110.139 306.528 110.074C308.703 109.786 310.988 109.579 313.187 109.629C313.622 109.639 314.029 109.85 314.472 109.769C314.951 109.682 314.946 107.8 314.967 107.486C315.045 106.295 315.678 100.977 313.632 100.613C311.51 100.236 308.938 101.149 306.758 101.173C305.565 101.187 304.452 101.275 303.28 101.47" stroke="#0000FE" stroke-linecap="round"/>
<path d="M302.984 112.299C303.202 110.549 303.538 115.816 303.396 117.574C303.306 118.681 302.857 120.765 303.355 121.86C303.98 123.236 309.125 122.207 310.212 122.099C311.596 121.96 313.836 122.533 315.148 121.761C315.765 121.398 315.05 118.534 315.008 117.953C314.914 116.633 315.009 115.226 314.736 113.931C314.664 113.591 314.68 112.503 314.324 112.299C313.855 112.031 313.341 112.226 312.824 112.266C311.246 112.39 309.61 112.58 308.027 112.58C307.567 112.58 302.935 112.944 302.835 112.744" stroke="#FE0000" stroke-linecap="round"/>
<path d="M49.5857 0.580986C48.8099 1.45376 49.2717 3.72946 49.2717 4.71494C49.2717 9.18711 49.2425 13.6313 49.5857 18.0936C50.1489 25.4151 50.5276 32.8025 50.5276 40.1414C50.5276 59.2883 51.1556 78.4363 51.1556 97.5981C51.1556 106.117 51.1556 114.627 51.1556 123.134C51.1556 136.014 51.774 148.881 50.9986 161.753C50.507 169.913 50.0392 178.238 50.0392 186.417C50.0392 188.968 49.8666 191.477 49.8997 194.022C49.9192 195.524 50.5828 197.331 49.8997 198.697" stroke="black" stroke-opacity="0.2" stroke-linecap="round"/>
<path d="M51.9405 198.854C53.9272 198.854 55.8309 198.686 57.8013 198.366C62.2775 197.637 65.9268 198.586 70.1508 199.552C76.0613 200.903 83.5071 200.432 89.3729 199.482C99.1825 197.894 109.732 199.796 119.654 199.796C131.379 199.796 143.183 199.954 154.871 198.714C167.366 197.389 180.072 196.97 192.635 196.97C205.588 196.97 218.757 199.095 231.689 198.069C238.937 197.494 246.41 197.537 253.685 197.598C259.142 197.644 265.042 197.112 270.447 197.755C275.236 198.325 280.1 198.564 284.907 199.098C286.537 199.279 288.223 199.168 289.861 199.168C291.621 199.168 291.324 199.161 289.617 198.54" stroke="black" stroke-opacity="0.2" stroke-linecap="round"/>
<path d="M61.8434 34.0849C60.4025 32.8041 59.6682 43.955 59.6682 45.6136C59.6682 46.9755 59.9158 48.4747 60.3208 49.7707C61.333 53.0098 60.9371 55.0752 62.6168 49.7465C62.8832 48.9015 65.9831 36.4535 66.5322 36.4535C66.9939 36.4535 66.1422 46.4582 65.9763 47.3537C64.6491 54.5206 64.6193 62.8091 64.4537 70.0969C64.2599 78.6219 63.3671 87.1459 62.7377 95.6436C61.7925 108.403 63.1274 122.15 64.1153 134.87C65.2131 149.005 63.9772 162.948 63.1244 177.021C62.7518 183.169 60.5383 189.15 60.5383 195.269C60.5383 196.75 61.8745 197.195 62.931 196.139C65.3448 193.725 65.6092 190.272 66.0972 186.979C66.4832 184.373 66.519 180.525 65.4204 178.084C64.1326 175.222 61.5412 185.434 60.9733 182.169C59.3829 173.024 58.7186 162.997 59.5715 153.722C60.7613 140.783 59.5453 127.821 60.2966 114.834C61.2058 99.1175 60.9732 83.7687 59.7649 68.2117C59.5012 64.8173 58.046 59.0576 59.5715 55.8371C61.1948 52.4103 64.5313 69.8567 64.6712 71.2086C66.0633 84.6653 67.7918 98.5871 67.934 112.103C68.0019 118.552 68.3691 124.993 68.3691 131.462C68.3691 138.947 67.7438 146.735 68.8041 154.157" stroke="#0000FE" stroke-opacity="0.2" stroke-width="10" stroke-linecap="round"/>
<path d="M97.517 125.879C97.517 118.534 96.1982 140.568 96.6711 147.897C97.1244 154.923 97.5464 162.165 96.7436 169.19C95.9701 175.959 96.1659 183.663 96.6711 190.483C97.0714 195.887 100.909 195.273 104.913 195.051C109.344 194.805 104.043 160.078 104.043 155.897C104.043 149.219 103.173 142.614 103.173 135.933C103.173 133.373 103.11 126.78 105.783 125.444" stroke="#0000FE" stroke-opacity="0.2" stroke-width="10" stroke-linecap="round"/>
<path d="M139.281 128.924C139.281 123.892 140.794 138.968 140.369 143.982C139.668 152.248 139.716 160.468 139.716 168.755C139.716 174.928 139.714 181.061 139.305 187.196C139.165 189.305 138.244 195.41 140.828 196.114C149.248 198.411 146.253 163.288 145.589 158.507C144.732 152.335 143.564 145.954 143.632 139.704C143.649 138.104 144.552 127.594 144.502 127.619" stroke="#0000FE" stroke-opacity="0.2" stroke-width="10" stroke-linecap="round"/>
<path d="M176.26 16.6832C175.02 15.2886 175.825 21.1324 175.825 22.2904C175.825 25.9158 175.825 29.5411 175.825 33.1665C175.825 42.0473 174.955 50.873 174.955 59.7525C174.955 77.249 175.39 94.7198 175.39 112.199C175.39 134.009 175.825 155.846 175.825 177.625C175.825 181.079 174.96 191.246 178.435 193.48C182.923 196.365 183.628 189.73 183.656 187.22C183.754 178.18 183.724 169.281 182.447 160.344C181.471 153.508 182.296 146.335 182.35 139.414C182.528 116.674 182.786 94.0056 182.786 71.257C182.786 62.4977 182.86 53.6403 182.133 44.9127C181.496 37.2751 182.407 29.5304 181.456 21.9279C181.19 19.7951 180.311 17.2685 179.716 15.1847C179.53 14.5338 178.273 14.2838 179.136 13.4204C180.037 12.5197 181.923 12.3552 182.35 13.6379" stroke="#0000FE" stroke-opacity="0.2" stroke-width="10" stroke-linecap="round"/>
<path d="M217.154 104.997C217.668 101.399 218.566 112.149 218.797 115.776C219.21 122.247 219.24 129 218.217 135.426C217.007 143.032 216.284 150.557 216.284 158.266C216.284 166.396 215.344 175.008 216.501 183.111C216.998 186.585 215.445 194.636 219.136 196.985C223.572 199.808 223.657 189.543 223.68 187.752C223.783 179.678 224.686 171.492 224.018 163.39C222.851 149.243 222.374 134.858 222.374 120.659C222.374 117.919 222.374 115.18 222.374 112.441C222.374 111.353 222.882 108.381 221.504 110.218" stroke="#0000FE" stroke-opacity="0.2" stroke-width="10" stroke-linecap="round"/>
<path d="M255.873 67.5833C255.668 67.1482 255.438 65.408 255.438 66.544C255.438 69.132 255.097 71.8236 254.979 74.4231C254.687 80.8467 254.288 87.2593 254.108 93.71C253.558 113.526 253.564 133.4 254.906 153.19C255.722 165.228 254.015 177.693 255.849 189.613C256.198 191.886 257.194 193.773 259.571 194.398C263.276 195.374 263.571 191.252 263.897 188.695C265.609 175.239 264.352 161.631 264.139 148.163C264.062 143.315 262.833 138.555 262.833 133.662C262.833 125.96 262.981 118.218 261.77 110.604C260.156 100.459 260.658 88.9911 260.658 78.701C260.658 77.2306 261.511 65.5649 259.788 66.7132" stroke="#0000FE" stroke-opacity="0.2" stroke-width="10" stroke-linecap="round"/>
<path d="M77.0699 161.553C77.0699 153.929 74.8947 176.696 74.8947 184.32C74.8947 187.485 74.3645 195.233 78.4717 196.259C87.3498 198.479 85.5513 177.32 85.2391 173.105C84.9925 169.777 84.5579 166.372 84.4657 163.051C84.4494 162.464 84.5492 160.432 84.0306 161.988" stroke="#FE0000" stroke-opacity="0.2" stroke-width="10" stroke-linecap="round"/>
<path d="M119.269 164.598C119.269 158.811 119.339 176.183 119.801 181.951C120.035 184.873 119.093 191.941 121.662 193.939C123.058 195.025 124.055 177.495 124.055 175.812C124.055 172.432 122.75 169.194 122.75 165.903" stroke="#FE0000" stroke-opacity="0.2" stroke-width="10" stroke-linecap="round"/>
<path d="M156.248 165.033C155.524 172.268 156.307 179.625 155.595 186.882C155.349 189.395 155.164 194.416 158.326 195.389C163.673 197.034 163.22 170.741 162.338 166.773" stroke="#FE0000" stroke-opacity="0.2" stroke-width="10" stroke-linecap="round"/>
<path d="M191.921 153.287C192.121 153.021 193.227 165.306 193.227 166.846C193.227 172.549 192.791 178.229 192.791 183.933C192.791 186.716 192.208 197.598 198.012 196.308C202.26 195.364 201.91 184.978 201.927 182.096C201.959 176.789 201.665 171.557 201.033 166.29C200.581 162.52 200.196 158.5 199.414 154.785C199.164 153.598 200.052 153.084 199.317 151.982" stroke="#FE0000" stroke-opacity="0.2" stroke-width="10" stroke-linecap="round"/>
<path d="M237.166 162.858C237.166 155.514 235.861 177.507 235.861 184.852C235.861 185.84 237.596 195.977 239.776 194.108C242.214 192.019 241.905 186.304 242.169 183.522C242.66 178.339 242.821 173.231 242.821 168.03C242.821 167.291 242.386 161.158 242.386 164.163" stroke="#FE0000" stroke-opacity="0.2" stroke-width="10" stroke-linecap="round"/>
<path d="M274.145 161.118C274.145 152.75 273.56 177.842 273.299 186.205C273.286 186.622 273.373 196.328 276.151 194.785C281.897 191.593 280.714 182.602 280.67 177.166C280.637 173.022 279.694 168.982 279.389 164.864C279.365 164.53 279.519 161.679 278.93 162.858" stroke="#FE0000" stroke-opacity="0.2" stroke-width="10" stroke-linecap="round"/>
<path d="M309.383 114.133C308.163 114.133 308.458 115.318 308.513 116.308C308.638 118.559 310.217 116.663 308.731 116.332C304.467 115.385 307.331 122.588 309.383 118.483" stroke="#FE0000" stroke-opacity="0.2" stroke-width="10" stroke-linecap="round"/>
<path d="M310.253 104.562C309.314 101.628 307.567 103.393 308.296 105.432C309.383 108.477 310.533 102.779 307.643 104.224C305.84 105.125 308.451 109.595 309.818 106.52C309.955 106.211 310.578 104.32 309.721 104.32C309.287 104.32 309.282 106.069 309.818 104.997" stroke="#0000FE" stroke-opacity="0.2" stroke-width="10" stroke-linecap="round"/>
<path d="M42.7015 196.791C43.5703 194.805 40.3953 197.573 42.0731 198.531C44.1952 199.744 45.0209 197.37 43.5716 195.921" stroke="black" stroke-linecap="round"/>
</svg>
