<svg width="172" height="246" viewBox="0 0 172 246" fill="none" xmlns="http://www.w3.org/2000/svg">
<path d="M60.616 3.25634C60.5047 2.47716 58.2911 3.70272 57.9094 3.91649C54.6772 5.72653 52.4084 8.99899 51.1759 12.4324C48.7279 19.2517 50.7 28.3511 51.704 35.2735C53.829 49.9249 60.8437 63.9022 77.1196 55.0779C88.7052 48.7966 97.1051 30.3331 90.9167 17.7796C88.5485 12.9755 83.5058 7.16875 78.3409 5.40182C74.1157 3.95635 62.7261 8.93124 60.616 6.82114" stroke="black" stroke-width="5" stroke-linecap="round"/>
<path d="M56.4571 56.7283C60.5122 57.2352 50.4486 65.7542 48.4363 66.2014C38.2659 68.4616 31.2058 71.2772 25.0011 80.1965C14.8615 94.7722 6.63646 110.268 3.5793 127.892C2.8751 131.952 1.60576 144.066 8.36537 144.066C13.1607 144.066 19.3176 141.55 21.9974 137.53" stroke="black" stroke-width="5" stroke-linecap="round"/>
<path d="M90.3226 52.5695C89.7936 52.6451 93.9977 59.9107 94.8116 60.8873C97.7274 64.3864 100.923 63.3572 104.912 64.1551C112.756 65.7239 118.529 62.1543 121.218 71.7138C121.952 74.325 123.591 92.6283 127.819 89.3397C136.599 82.5109 136.43 72.1945 137.721 61.7455C138.814 52.9007 142.951 36.6926 152.079 32.6991C156.118 30.9322 159.799 39.6947 159.836 42.4692C159.929 49.3787 157.439 56.618 155.809 63.2639C151.323 81.553 146.378 104.647 132.506 118.518" stroke="black" stroke-width="5" stroke-linecap="round"/>
<path d="M20.8091 142.877C26.3632 138.712 34.2799 136.073 40.4155 132.645C45.0855 130.036 49.9032 127.901 54.6747 125.516C61.0801 122.313 65.6771 119.651 72.8287 118.221C89.7648 114.834 107.586 121.477 124.188 115.547" stroke="black" stroke-width="5" stroke-linecap="round"/>
<path d="M58.8336 59.6991C57.6259 48.8304 62.4366 81.3132 65.369 91.8483C67.2506 98.608 70.0507 104.821 73.6869 110.795C75.1509 113.2 77.5625 115.886 78.44 118.518" stroke="black" stroke-width="5" stroke-linecap="round"/>
<path d="M88.5402 51.9753C92.6556 64.7784 95.6561 77.8904 93.3263 91.2871C91.7925 100.106 91.2015 109.086 89.7285 117.924" stroke="black" stroke-width="5" stroke-linecap="round"/>
<path d="M77.2517 68.0168C77.2517 65.249 75.8962 72.2545 76.1955 73.8261C76.4662 75.2472 77.4847 72.5716 77.9779 76.8628C79.1326 86.9083 79.6283 96.8509 79.6283 106.965C79.6283 108.776 78.5569 116.497 80.2224 117.33" stroke="black" stroke-width="5" stroke-linecap="round"/>
<path d="M18.4326 145.848C16.1518 147.844 17.3104 158.204 17.3104 160.966C17.3104 164.618 17.6386 168.417 18.4326 171.99C20.0481 179.26 33.7491 177.099 38.7651 177.403C44.3835 177.744 49.7384 178.733 55.4008 178.393C60.8897 178.064 66.4712 176.457 71.7725 178.525C77.2662 180.669 83.8736 179.926 89.7285 180.902" stroke="black" stroke-width="5" stroke-linecap="round"/>
<path d="M74.281 117.924C73.9488 117.592 73.2813 116.547 73.0598 117.396C70.673 126.545 70.6158 137.02 70.1881 146.376C69.7729 155.461 69.8034 164.865 71.0463 173.904C71.335 176.004 71.8043 177.509 73.0928 179.12" stroke="black" stroke-width="5" stroke-linecap="round"/>
<path d="M89.1344 179.12C89.1344 187.604 142.482 176.776 150.198 174.961C155.135 173.799 160.58 172.531 165.183 170.34C167.991 169.003 167.045 159.594 167.263 157.104C167.64 152.792 171.419 109.012 166.075 109.012C163.084 109.012 159.509 110.193 156.502 110.53C148.13 111.47 138.807 111.455 130.724 113.765" stroke="black" stroke-width="5" stroke-linecap="round"/>
<path d="M153.895 176.743C154.577 172.648 156.111 184.789 156.502 188.923C157.285 197.185 157.327 205.74 157.46 214.041C157.604 223.088 161.637 235.34 155.677 243.286" stroke="black" stroke-width="5" stroke-linecap="round"/>
<path d="M86.7579 184.467C83.7704 185.214 83.8733 206.76 84.0513 209.618C84.588 218.24 86.315 227.597 89.7285 235.562" stroke="black" stroke-width="5" stroke-linecap="round"/>
<path d="M27.9387 180.902C27.9387 200.472 22.788 222.686 30.3153 241.504" stroke="black" stroke-width="5" stroke-linecap="round"/>
</svg>
