<svg xmlns="http://www.w3.org/2000/svg" width="805" height="600"><rect width="805" height="600" x="0" y="0" fill="#FFFFFF" id="background"/><g transform="translate(20,20)" id="viz"><g id="nodes"><g transform="translate(383.5,281)"><path id="p_943.5" d="M-5.143516556418883e-14,280A280,280,0,1,1,5.143516556418883e-14,-280A280,280,0,1,1,-5.143516556418883e-14,280Z" fill="none" stroke="#ccc"/></g><g transform="translate(320.5449194030701,261.94171803569844)" id="Denver, Colorado"><path id="p_644.7415649784987" d="M-1.161974168127425e-14,63.25492753973019A63.25492753973019,63.25492753973019,0,1,1,1.161974168127425e-14,-63.25492753973019A63.25492753973019,63.25492753973019,0,1,1,-1.161974168127425e-14,63.25492753973019Z" fill="#1f77b4" stroke="none"/></g><g transform="translate(449.01126800366785,261.94171803569844)" id="Miami, Florida"><path id="p_773.2079135790965" d="M-1.161974168127425e-14,63.25492753973019A63.25492753973019,63.25492753973019,0,1,1,1.161974168127425e-14,-63.25492753973019A63.25492753973019,63.25492753973019,0,1,1,-1.161974168127425e-14,63.25492753973019Z" fill="#1f77b4" stroke="none"/></g><g transform="translate(384.77809370336894,373.1968394552436)" id="Tampa, Florida"><path id="p_820.2298606983427" d="M-1.161974168127425e-14,63.25492753973019A63.25492753973019,63.25492753973019,0,1,1,1.161974168127425e-14,-63.25492753973019A63.25492753973019,63.25492753973019,0,1,1,-1.161974168127425e-14,63.25492753973019Z" fill="#1f77b4" stroke="none"/></g><g transform="translate(384.77809370336894,155.43007810567858)" id="Albuquerque, New Mexico"><path id="p_598.377738528768" d="M-1.0869273073536214e-14,59.16956671972047A59.16956671972047,59.16956671972047,0,1,1,1.0869273073536214e-14,-59.16956671972047A59.16956671972047,59.16956671972047,0,1,1,-1.0869273073536214e-14,59.16956671972047Z" fill="#1f77b4" stroke="none"/></g><g transform="translate(264.5689961052778,150.86820124508606)" id="Jacksonville, Florida"><path id="p_473.6067640700843" d="M-1.0869273073536214e-14,59.16956671972047A59.16956671972047,59.16956671972047,0,1,1,1.0869273073536214e-14,-59.16956671972047A59.16956671972047,59.16956671972047,0,1,1,-1.0869273073536214e-14,59.16956671972047Z" fill="#1f77b4" stroke="none"/></g><g transform="translate(500.67069901963185,153.63966769323514)" id="Colorado Springs, Colorado"><path id="p_708.0907408768172" d="M-1.0062991481396403e-14,54.78037416395024A54.78037416395024,54.78037416395024,0,1,1,1.0062991481396403e-14,-54.78037416395024A54.78037416395024,54.78037416395024,0,1,1,-1.0062991481396403e-14,54.78037416395024Z" fill="#1f77b4" stroke="none"/></g><g transform="translate(504.6676703231526,368.2450378433425)" id="Columbus, Ohio"><path id="p_926.6930823304453" d="M-1.0062991481396403e-14,54.78037416395024A54.78037416395024,54.78037416395024,0,1,1,1.0062991481396403e-14,-54.78037416395024A54.78037416395024,54.78037416395024,0,1,1,-1.0062991481396403e-14,54.78037416395024Z" fill="#1f77b4" stroke="none"/></g><g transform="translate(264.88851708358527,368.2450378433425)" id="Las Vegas, Nevada"><path id="p_686.913929090878" d="M-1.0062991481396403e-14,54.78037416395024A54.78037416395024,54.78037416395024,0,1,1,1.0062991481396403e-14,-54.78037416395024A54.78037416395024,54.78037416395024,0,1,1,-1.0062991481396403e-14,54.78037416395024Z" fill="#1f77b4" stroke="none"/></g><g transform="translate(562.2761639115962,240.81252895765383)" id="Cedar Rapids, Iowa"><path id="p_852.0961039328646" d="M-9.186212383905231e-15,50.00741106361459A50.00741106361459,50.00741106361459,0,1,1,9.186212383905231e-15,-50.00741106361459A50.00741106361459,50.00741106361459,0,1,1,-9.186212383905231e-15,50.00741106361459Z" fill="#1f77b4" stroke="none"/></g><g transform="translate(206.4884564582891,245.61681262539372)" id="Cincinnati, Ohio"><path id="p_501.11268014729745" d="M-9.186212383905231e-15,50.00741106361459A50.00741106361459,50.00741106361459,0,1,1,9.186212383905231e-15,-50.00741106361459A50.00741106361459,50.00741106361459,0,1,1,-9.186212383905231e-15,50.00741106361459Z" fill="#1f77b4" stroke="none"/></g><g transform="translate(605.4867952448562,333.17589049695624)" id="Des Moines, Iowa"><path id="p_987.6700968054271" d="M-9.186212383905231e-15,50.00741106361459A50.00741106361459,50.00741106361459,0,1,1,9.186212383905231e-15,-50.00741106361459A50.00741106361459,50.00741106361459,0,1,1,-9.186212383905231e-15,50.00741106361459Z" fill="#1f77b4" stroke="none"/></g><g transform="translate(162.6172979297602,337.66826923757066)" id="Grand Rapids, Michigan"><path id="p_549.2929782309454" d="M-9.186212383905231e-15,50.00741106361459A50.00741106361459,50.00741106361459,0,1,1,9.186212383905231e-15,-50.00741106361459A50.00741106361459,50.00741106361459,0,1,1,-9.186212383905231e-15,50.00741106361459Z" fill="#1f77b4" stroke="none"/></g><g transform="translate(445.4253599594221,62.303510790817256)" id="Manchester, New Hampshire"><path id="p_556.7362818138539" d="M-9.186212383905231e-15,50.00741106361459A50.00741106361459,50.00741106361459,0,1,1,9.186212383905231e-15,-50.00741106361459A50.00741106361459,50.00741106361459,0,1,1,-9.186212383905231e-15,50.00741106361459Z" fill="#1f77b4" stroke="none"/></g><g transform="translate(328.2173733321733,59.76643111648312)" id="Pensacola, Florida"><path id="p_436.991215512271" d="M-9.186212383905231e-15,50.00741106361459A50.00741106361459,50.00741106361459,0,1,1,9.186212383905231e-15,-50.00741106361459A50.00741106361459,50.00741106361459,0,1,1,-9.186212383905231e-15,50.00741106361459Z" fill="#1f77b4" stroke="none"/></g><g transform="translate(456.3978326325302,463.45199039882345)" id="Toledo, Ohio"><path id="p_968.8572340949682" d="M-9.186212383905231e-15,50.00741106361459A50.00741106361459,50.00741106361459,0,1,1,9.186212383905231e-15,-50.00741106361459A50.00741106361459,50.00741106361459,0,1,1,-9.186212383905231e-15,50.00741106361459Z" fill="#1f77b4" stroke="none"/></g><g transform="translate(313.15835477420774,463.45199039882345)" id="Virginia Beach, Virginia"><path id="p_825.6177562366457" d="M-9.186212383905231e-15,50.00741106361459A50.00741106361459,50.00741106361459,0,1,1,9.186212383905231e-15,-50.00741106361459A50.00741106361459,50.00741106361459,0,1,1,-9.186212383905231e-15,50.00741106361459Z" fill="#1f77b4" stroke="none"/></g></g><g id="labels"><g transform="translate(320.5449194030701,261.94171803569844)"><text text-anchor="middle" dominant-baseline="text-before-edge" transform="translate(0,-11.5)"><tspan x="0" y="0" dy="0" style="font-family: Arial, sans-serif; font-size: 10px; fill: black; font-weight: bold;">Denver, Colorado</tspan><tspan x="0" y="0" dy="12" style="font-family: Arial, sans-serif; font-size: 10px; fill: black; font-weight: normal;">8</tspan></text></g><g transform="translate(449.01126800366785,261.94171803569844)"><text text-anchor="middle" dominant-baseline="text-before-edge" transform="translate(0,-11.5)"><tspan x="0" y="0" dy="0" style="font-family: Arial, sans-serif; font-size: 10px; fill: black; font-weight: bold;">Miami, Florida</tspan><tspan x="0" y="0" dy="12" style="font-family: Arial, sans-serif; font-size: 10px; fill: black; font-weight: normal;">8</tspan></text></g><g transform="translate(384.77809370336894,373.1968394552436)"><text text-anchor="middle" dominant-baseline="text-before-edge" transform="translate(0,-11.5)"><tspan x="0" y="0" dy="0" style="font-family: Arial, sans-serif; font-size: 10px; fill: black; font-weight: bold;">Tampa, Florida</tspan><tspan x="0" y="0" dy="12" style="font-family: Arial, sans-serif; font-size: 10px; fill: black; font-weight: normal;">8</tspan></text></g><g transform="translate(384.77809370336894,155.43007810567858)"><text text-anchor="middle" dominant-baseline="text-before-edge" transform="translate(0,-11.5)"><tspan x="0" y="0" dy="0" style="font-family: Arial, sans-serif; font-size: 10px; fill: black; font-weight: bold;">Albuquerque, New Mexico</tspan><tspan x="0" y="0" dy="12" style="font-family: Arial, sans-serif; font-size: 10px; fill: black; font-weight: normal;">7</tspan></text></g><g transform="translate(264.5689961052778,150.86820124508606)"><text text-anchor="middle" dominant-baseline="text-before-edge" transform="translate(0,-11.5)"><tspan x="0" y="0" dy="0" style="font-family: Arial, sans-serif; font-size: 10px; fill: black; font-weight: bold;">Jacksonville, Florida</tspan><tspan x="0" y="0" dy="12" style="font-family: Arial, sans-serif; font-size: 10px; fill: black; font-weight: normal;">7</tspan></text></g><g transform="translate(500.67069901963185,153.63966769323514)"><text text-anchor="middle" dominant-baseline="text-before-edge" transform="translate(0,-11.5)"><tspan x="0" y="0" dy="0" style="font-family: Arial, sans-serif; font-size: 10px; fill: black; font-weight: bold;">Colorado Springs, Colorado</tspan><tspan x="0" y="0" dy="12" style="font-family: Arial, sans-serif; font-size: 10px; fill: black; font-weight: normal;">6</tspan></text></g><g transform="translate(504.6676703231526,368.2450378433425)"><text text-anchor="middle" dominant-baseline="text-before-edge" transform="translate(0,-11.5)"><tspan x="0" y="0" dy="0" style="font-family: Arial, sans-serif; font-size: 10px; fill: black; font-weight: bold;">Columbus, Ohio</tspan><tspan x="0" y="0" dy="12" style="font-family: Arial, sans-serif; font-size: 10px; fill: black; font-weight: normal;">6</tspan></text></g><g transform="translate(264.88851708358527,368.2450378433425)"><text text-anchor="middle" dominant-baseline="text-before-edge" transform="translate(0,-11.5)"><tspan x="0" y="0" dy="0" style="font-family: Arial, sans-serif; font-size: 10px; fill: black; font-weight: bold;">Las Vegas, Nevada</tspan><tspan x="0" y="0" dy="12" style="font-family: Arial, sans-serif; font-size: 10px; fill: black; font-weight: normal;">6</tspan></text></g><g transform="translate(562.2761639115962,240.81252895765383)"><text text-anchor="middle" dominant-baseline="text-before-edge" transform="translate(0,-11.5)"><tspan x="0" y="0" dy="0" style="font-family: Arial, sans-serif; font-size: 10px; fill: black; font-weight: bold;">Cedar Rapids, Iowa</tspan><tspan x="0" y="0" dy="12" style="font-family: Arial, sans-serif; font-size: 10px; fill: black; font-weight: normal;">5</tspan></text></g><g transform="translate(206.4884564582891,245.61681262539372)"><text text-anchor="middle" dominant-baseline="text-before-edge" transform="translate(0,-11.5)"><tspan x="0" y="0" dy="0" style="font-family: Arial, sans-serif; font-size: 10px; fill: black; font-weight: bold;">Cincinnati, Ohio</tspan><tspan x="0" y="0" dy="12" style="font-family: Arial, sans-serif; font-size: 10px; fill: black; font-weight: normal;">5</tspan></text></g><g transform="translate(605.4867952448562,333.17589049695624)"><text text-anchor="middle" dominant-baseline="text-before-edge" transform="translate(0,-11.5)"><tspan x="0" y="0" dy="0" style="font-family: Arial, sans-serif; font-size: 10px; fill: black; font-weight: bold;">Des Moines, Iowa</tspan><tspan x="0" y="0" dy="12" style="font-family: Arial, sans-serif; font-size: 10px; fill: black; font-weight: normal;">5</tspan></text></g><g transform="translate(162.6172979297602,337.66826923757066)"><text text-anchor="middle" dominant-baseline="text-before-edge" transform="translate(0,-11.5)"><tspan x="0" y="0" dy="0" style="font-family: Arial, sans-serif; font-size: 10px; fill: black; font-weight: bold;">Grand Rapids, Michigan</tspan><tspan x="0" y="0" dy="12" style="font-family: Arial, sans-serif; font-size: 10px; fill: black; font-weight: normal;">5</tspan></text></g><g transform="translate(445.4253599594221,62.303510790817256)"><text text-anchor="middle" dominant-baseline="text-before-edge" transform="translate(0,-11.5)"><tspan x="0" y="0" dy="0" style="font-family: Arial, sans-serif; font-size: 10px; fill: black; font-weight: bold;">Manchester, New Hampshire</tspan><tspan x="0" y="0" dy="12" style="font-family: Arial, sans-serif; font-size: 10px; fill: black; font-weight: normal;">5</tspan></text></g><g transform="translate(328.2173733321733,59.76643111648312)"><text text-anchor="middle" dominant-baseline="text-before-edge" transform="translate(0,-11.5)"><tspan x="0" y="0" dy="0" style="font-family: Arial, sans-serif; font-size: 10px; fill: black; font-weight: bold;">Pensacola, Florida</tspan><tspan x="0" y="0" dy="12" style="font-family: Arial, sans-serif; font-size: 10px; fill: black; font-weight: normal;">5</tspan></text></g><g transform="translate(456.3978326325302,463.45199039882345)"><text text-anchor="middle" dominant-baseline="text-before-edge" transform="translate(0,-11.5)"><tspan x="0" y="0" dy="0" style="font-family: Arial, sans-serif; font-size: 10px; fill: black; font-weight: bold;">Toledo, Ohio</tspan><tspan x="0" y="0" dy="12" style="font-family: Arial, sans-serif; font-size: 10px; fill: black; font-weight: normal;">5</tspan></text></g><g transform="translate(313.15835477420774,463.45199039882345)"><text text-anchor="middle" dominant-baseline="text-before-edge" transform="translate(0,-11.5)"><tspan x="0" y="0" dy="0" style="font-family: Arial, sans-serif; font-size: 10px; fill: black; font-weight: bold;">Virginia Beach, Virginia</tspan><tspan x="0" y="0" dy="12" style="font-family: Arial, sans-serif; font-size: 10px; fill: black; font-weight: normal;">5</tspan></text></g></g></g></svg>