<svg width="314" height="322" viewBox="0 0 314 322" fill="none" xmlns="http://www.w3.org/2000/svg">
<path d="M154.337 8.21835C151.033 8.63136 151.868 47.0859 151.609 52.6387C150.796 70.137 154.337 87.0687 154.337 104.307C154.337 115.192 156.769 126.139 157.143 136.959C157.325 142.235 160.179 155.337 158.234 159.715C155.423 166.039 155.458 175.932 154.337 182.938C151.728 199.243 148.668 216.352 147.401 232.814C145.467 257.962 140.31 283.226 140.31 308.406" stroke="black" stroke-width="3" stroke-linecap="round"/>
<path d="M157.143 6.81559C144.079 4.94945 183.539 6.48986 196.731 6.81559C217.06 7.31754 235.924 16.2764 253.231 26.532C299.475 53.936 313.501 107.09 311.367 158.312C309.581 201.166 288.968 252.75 253.62 279.26C239.992 289.482 225.859 308.138 208.187 311.212C199.372 312.745 191.135 316.594 182.392 318.537C169.08 321.496 156.409 319.333 143.115 318.226" stroke="black" stroke-width="3" stroke-linecap="round"/>
<path d="M157.143 8.21836C157.143 -11.7168 78.8688 24.4649 70.5619 30.8961C33.3637 59.6947 -2.86924 105.697 2.52863 155.819C4.12501 170.642 3.57024 187.32 10.1658 201.018C21.2754 224.092 32.8669 243.831 49.053 264.064C60.9714 278.962 78.0904 293.499 94.7982 302.717C103.22 307.364 112.785 310.725 121.996 313.316C131.777 316.067 142.02 314.105 151.532 316.823" stroke="black" stroke-width="3" stroke-linecap="round"/>
<path d="M131.466 30.0895C129.652 21.9256 97.2346 43.9052 94.8811 45.6213C83.1184 54.1983 69.6948 63.1055 61.5533 75.4534C59.3459 78.8014 55.0454 84.1359 54.284 88.3237C54.017 89.7921 54.1315 90.2115 53.0526 91.5016C47.4474 98.2034 42.4593 103.641 38.9111 111.84C30.8651 130.432 28.4063 147.855 29.3776 167.929C30.2745 186.466 33.8702 205.171 43.3204 221.396C55.5873 242.459 75.8866 255.581 93.7688 271.328C102.933 279.398 112.254 287.264 121.416 295.282C123.505 297.109 123.601 295.284 123.601 293.375C123.601 285.536 122.288 277.833 121.893 270.018C120.789 248.154 126.461 226.717 126.461 204.872C126.461 175.267 126.978 145.545 125.905 115.971C125.46 103.697 125.561 91.3102 124.594 79.0682C124.48 77.6265 122.984 61.2241 118.556 63.6953C112.098 67.2998 106.903 77.597 103.183 83.4378C95.164 96.031 88.57 109.35 83.4011 123.36C73.477 150.257 70.9394 176.58 74.662 204.872C75.8148 213.633 76.2882 230.336 82.6861 237.445C85.424 240.487 86.9847 230.219 87.5323 226.163C89.6684 210.34 90.0596 194.291 91.743 178.416C94.0345 156.806 97.5627 134.969 105.964 114.779C107.463 111.177 108.136 111.086 108.903 115.177C111.147 127.141 112.57 139.357 113.511 151.484C113.781 154.955 112.072 177.377 116.212 179.925C118.981 181.629 124.571 158.988 124.793 158.078C128.119 144.418 130.289 129.785 131.307 115.733C132.176 103.743 134.475 125.379 134.723 127.252C136.229 138.591 138.008 151.323 134.326 162.368" stroke="#FF0000" stroke-opacity="0.5" stroke-width="50" stroke-linecap="round"/>
<path d="M167.333 28C167.333 10.0962 168.155 63.8544 170.296 81.6296C171.9 94.9417 175.333 107.85 175.333 121.333C175.333 138.572 172.626 155.537 171.333 172.667C169.502 196.932 161.612 220.403 159.63 244.593C158.619 256.922 151.245 284.269 167.407 289.926C186.294 296.536 210.566 272.395 222.296 261.037C237.786 246.039 257.121 236.078 268.667 217.185C289.456 183.165 293.904 135.373 282.667 96.6667C272.259 60.8193 240.582 45.7732 208.963 32.2963C197.839 27.5548 184.588 24.0785 174.667 34C170.791 37.8753 175.335 44.4185 176.667 48.8889C183.145 70.6382 185.308 92.9029 187.333 115.407C189.686 141.545 190.768 167.677 189.704 193.926C189.529 198.224 186.892 254.362 190.296 252.815C197.969 249.327 202.805 235.679 205.704 228.741C214.172 208.469 219.432 186.396 222.296 164.667C227.003 128.962 224.667 93.0486 224.667 57.1852C224.667 54.2413 224.962 53.3092 226.963 56.963C233.243 68.4303 235.806 82.3444 237.704 95.1111C243.001 130.749 241.018 169.204 235.407 204.741C234.799 208.594 231.703 230.717 236.296 214.741C242.197 194.216 250.942 169.65 247.333 148" stroke="#0000FF" stroke-opacity="0.5" stroke-width="50" stroke-linecap="round"/>
<path d="M192.089 105.204C191.374 104.56 190.11 104.002 189.132 104.415C186.056 105.715 183.479 110 181.862 112.523C178.934 117.094 175.79 122.222 180.31 126.741C185.58 132.012 190.884 130.061 193.987 123.661C197.853 115.686 195.322 108.996 189.428 103.43" stroke="black" stroke-width="3" stroke-linecap="round"/>
<path d="M203.622 98.5503C203.351 98.3131 203.241 98.1239 203.203 98.6735C202.997 101.657 203.271 104.925 203.375 107.865C203.601 114.214 203.752 120.622 204.484 126.939C204.806 129.715 205.036 129.404 205.593 127.481C206.407 124.673 210.078 114.106 214.711 119.102C217.245 121.835 217.29 126.268 215.426 129.329C212.987 133.333 212.439 130.294 209.832 130.487" stroke="black" stroke-width="3" stroke-linecap="round"/>
<path d="M236.889 124.277C234.235 114.325 222.307 126.545 227.87 129.107C229.854 130.021 231.789 125.034 232.872 124.105C234.682 122.553 243.841 128.063 245.317 128.713" stroke="black" stroke-width="3" stroke-linecap="round"/>
<path d="M243.986 117.624C244.057 116.99 244.506 116.534 245.071 117.131C245.945 118.056 248.05 124.874 248.668 124.671C250.989 123.912 249.577 116.295 253.4 116.589C255.402 116.743 257.149 119.74 258.18 121.172C259.226 122.625 259.635 125.711 260.842 126.791C262.549 128.319 261.975 122.327 262.912 120.236C264.466 116.765 266.821 116.675 269.812 118.757C272.538 120.655 272.419 124.014 272.818 126.939" stroke="black" stroke-width="3" stroke-linecap="round"/>
<path d="M287.899 121.616C285.464 118.658 278.238 116.405 276.933 121.542C275.587 126.843 279.631 131.444 283.661 126.15C285.101 124.258 286.442 121.954 286.914 119.595C287.174 118.295 286.876 118.189 287.579 119.595C289.635 123.707 292.355 127.122 295.44 130.487" stroke="black" stroke-width="3" stroke-linecap="round"/>
<path d="M191.202 146.012C193.305 145.749 190.801 157.57 190.709 159.122C190.39 164.491 198.846 163.719 201.404 160.65" stroke="black" stroke-width="3" stroke-linecap="round"/>
<path d="M202.735 148.23C201.709 152.074 202.423 156.619 202.513 160.502C202.638 165.875 202.735 171.243 202.735 176.618" stroke="black" stroke-width="3" stroke-linecap="round"/>
<path d="M225.8 148.673C221.341 148.673 210.747 155.008 214.317 160.107C217.288 164.353 227.41 167.183 223.287 174.055C217.878 183.069 213.79 173.217 215.771 166.81C217.653 160.721 222.67 155.949 223.582 149.56" stroke="black" stroke-width="3" stroke-linecap="round"/>
<path d="M235.115 176.618C235.177 177.179 236.446 178.863 236.446 178.392" stroke="black" stroke-width="3" stroke-linecap="round"/>
<path d="M256.85 153.109C255.317 152.751 254.024 152.874 252.66 153.799C248.758 156.447 250.973 158.93 253.572 161.561C258.499 166.549 262.712 172.203 256.283 178.318C252.615 181.807 252.181 168.294 252.71 166.416C254.306 160.745 259.801 157.059 260.842 151.335" stroke="black" stroke-width="3" stroke-linecap="round"/>
<path d="M187.21 205.45C187.705 204.211 188.485 207.808 188.91 209.072C189.877 211.944 191.335 221.656 194.603 222.847C200.318 224.932 201.526 205.356 201.404 202.788" stroke="black" stroke-width="3" stroke-linecap="round"/>
<path d="M215.598 215.652C215.436 212.729 213.088 210.721 209.98 210.97C204.844 211.381 204.815 218.99 207.244 222.059C209.706 225.169 214.808 222.136 216.189 219.373C217.919 215.913 217.196 210.177 214.267 207.668" stroke="black" stroke-width="3" stroke-linecap="round"/>
<path d="M226.687 195.691C225.442 193.356 226.741 200.99 226.983 203.626C227.636 210.751 228.172 217.905 229.349 224.967" stroke="black" stroke-width="3" stroke-linecap="round"/>
<path d="M218.259 212.103C213.009 212.103 228.636 210.471 233.784 209.442" stroke="black" stroke-width="3" stroke-linecap="round"/>
<path d="M238.22 215.652C241.22 217.307 245.02 215.453 247.781 213.976C250.27 212.645 252.029 208.889 247.584 209.935C243.923 210.796 239.727 215.496 240.29 219.496C241.247 226.295 249.446 222.46 252.858 221.418" stroke="black" stroke-width="3" stroke-linecap="round"/>
<path d="M267.052 209.442C261.534 209.442 258.391 216.07 263.355 219.299C267.156 221.771 268.211 223.256 263.602 226.149C260.501 228.096 255.378 231.124 251.97 229.846" stroke="black" stroke-width="3" stroke-linecap="round"/>
<path d="M34.6231 95.0018C34.6231 102.458 36.4384 110.626 38.3688 117.796C39.2773 121.171 37.8079 110.817 37.8759 107.323C37.9164 105.244 38.8216 88.4122 44.8251 93.4739C51.4747 99.0804 38.1221 101.339 41.7941 104.44C45.6918 107.731 49.8121 110.216 52.8093 114.519C54.5589 117.03 55.2651 119.771 56.3579 122.503" stroke="black" stroke-width="3" stroke-linecap="round"/>
<path d="M67.8905 106.091C68.6266 105.171 68.0224 104.4 66.8556 104.317C62.6288 104.015 54.379 108.295 56.9493 113.533C60.2763 120.314 71.8241 119.873 72.4248 111.463C72.739 107.065 68.1661 105.436 64.7856 104.76" stroke="black" stroke-width="3" stroke-linecap="round"/>
<path d="M76.3183 104.76C76.9569 100.29 78.0926 122.706 78.0926 118.19C78.0926 114.214 80.5106 96.2882 86.4957 106.263C88.1295 108.986 89.2834 112.043 90.0689 115.11C90.8376 118.112 90.4894 113.791 90.5124 112.991C90.5817 110.583 91.3263 103.158 95.5888 105.647C99.8488 108.135 100.62 113.759 101.158 118.067" stroke="black" stroke-width="3" stroke-linecap="round"/>
<path d="M99.8273 106.091C100.419 108.59 100.793 111.132 101.38 113.632C102.647 119.035 104.45 108.453 105.347 106.682C109.811 97.8698 112.895 113.88 113.578 117.18" stroke="black" stroke-width="3" stroke-linecap="round"/>
<path d="M118.457 108.752C115.543 115.309 128.987 104.968 122.942 104.662C117.366 104.379 117.52 113.768 118.777 116.761C121.887 124.162 126.555 120.171 130.433 116.293" stroke="black" stroke-width="3" stroke-linecap="round"/>
<path d="M129.99 105.647C128.243 108.559 130.5 115.198 132.7 117.353C138.234 122.771 139.96 107.6 139.896 105.524C139.862 104.404 139.494 101.08 139.403 102.197C139.173 105.041 140.804 108.359 141.67 110.97C146.29 124.89 135.917 133.416 125.554 141.133" stroke="black" stroke-width="3" stroke-linecap="round"/>
<path d="M43.8289 145.49C46.7448 143.946 45.4143 146.561 46.3606 148.909C47.6062 152 53.7242 157.493 56.8494 154.367" stroke="black" stroke-width="3" stroke-linecap="round"/>
<path d="M58.6249 144.306C58.6249 136.215 57.7694 160.611 59.2168 168.572" stroke="black" stroke-width="3" stroke-linecap="round"/>
<path d="M70.4617 144.898C70.2977 143.422 69.106 143.833 68.0943 144.339C61.7408 147.516 63.2869 164.003 65.4639 169.065C67.6452 174.136 77.7249 172.373 76.4459 166.336C75.7873 163.227 72.0793 162.871 70.5275 165.415C68.9632 167.979 70.2554 169.296 71.0535 171.531" stroke="black" stroke-width="3" stroke-linecap="round"/>
<path d="M85.8496 167.98V171.531" stroke="black" stroke-width="3" stroke-linecap="round"/>
<path d="M93.5435 147.265C94.005 138.496 106.836 150.661 107.09 155.847C107.225 158.599 101.61 167.679 103.144 169.492C106.903 173.934 117.948 172.461 123.136 172.714" stroke="black" stroke-width="3" stroke-linecap="round"/>
<path d="M36.135 196.98C36.4505 201.24 40.6216 209.237 44.355 211.053C48.3283 212.985 47.9718 199.191 47.9718 196.98" stroke="black" stroke-width="3" stroke-linecap="round"/>
<path d="M63.3596 202.898C64.2395 202.647 63.0372 201.656 62.702 201.452C60.118 199.872 57.028 201.524 56.126 204.312C54.2795 210.02 61.1847 210.713 63.8199 206.712C66.0073 203.392 63.475 200.617 60.9923 198.755" stroke="black" stroke-width="3" stroke-linecap="round"/>
<path d="M75.1964 186.327C73.6871 178.78 75.5034 201.717 75.7883 209.409" stroke="black" stroke-width="3" stroke-linecap="round"/>
<path d="M68.6862 201.715C69.1861 200.382 81.011 199.574 82.2985 199.347" stroke="black" stroke-width="3" stroke-linecap="round"/>
<path d="M89.4006 200.531C89.8699 202.643 93.6701 200.707 94.3326 199.676C95.2552 198.241 90.9929 201.505 90.5843 203.161C89.0397 209.423 97.5712 206.822 100.054 207.041" stroke="black" stroke-width="3" stroke-linecap="round"/>
<path d="M116.033 196.98C116.735 196.88 115.979 196.29 115.672 196.125C113.671 195.048 109.654 197.711 109.589 199.873C109.459 204.244 117.527 206.331 114.751 210.987C113.252 213.501 111.48 213.486 109.523 212.368" stroke="black" stroke-width="3" stroke-linecap="round"/>
</svg>
