<svg width="321" height="325" viewBox="0 0 321 325" fill="none" xmlns="http://www.w3.org/2000/svg">
<path d="M154.337 11.2184C151.033 11.6314 151.868 50.0859 151.609 55.6387C150.796 73.137 154.337 90.0687 154.337 107.307C154.337 118.192 156.769 129.139 157.143 139.959C157.325 145.235 160.179 158.337 158.234 162.715C155.423 169.039 155.458 178.932 154.337 185.938C151.728 202.243 148.668 219.352 147.401 235.814C145.467 260.962 140.31 286.226 140.31 311.406" stroke="black" stroke-width="3" stroke-linecap="round"/>
<path d="M157.143 9.81559C144.079 7.94945 183.539 9.48986 196.731 9.81559C217.06 10.3175 235.924 19.2764 253.231 29.532C299.475 56.936 313.501 110.09 311.367 161.312C309.581 204.166 288.968 255.75 253.62 282.26C239.992 292.482 225.859 311.138 208.187 314.212C199.372 315.745 191.135 319.594 182.392 321.537C169.08 324.496 156.409 322.333 143.115 321.226" stroke="black" stroke-width="3" stroke-linecap="round"/>
<path d="M157.143 11.2184C157.143 -8.71675 78.8688 27.4649 70.5619 33.8961C33.3637 62.6947 -2.86924 108.697 2.52863 158.819C4.12501 173.642 3.57024 190.32 10.1658 204.018C21.2754 227.092 32.8669 246.831 49.053 267.064C60.9714 281.962 78.0904 296.499 94.7982 305.717C103.22 310.364 112.785 313.725 121.996 316.316C131.777 319.067 142.02 317.105 151.532 319.823" stroke="black" stroke-width="3" stroke-linecap="round"/>
<path d="M172.396 28.8776C172.525 28.8937 174.487 53.6412 175.094 56.9048C178.954 77.6534 181.164 100.227 181.164 121.315C181.164 144.777 179.572 167.021 174.42 189.922C169.776 210.559 167.662 231.495 164.678 252.383C162.954 264.448 160.936 278.679 165.127 290.415C170.026 304.133 186.584 292.855 195.702 290.228C207.377 286.864 220.271 280.441 229.687 272.654C238.899 265.037 244.082 255.517 251.157 246.201C264.144 229.101 275.209 209.544 282.669 189.435C286.427 179.304 291.765 169.649 294.097 159.047C296.205 149.464 296.01 140.777 295.146 131.057C292.804 104.706 281.917 77.0171 265.995 55.8557C257.323 44.329 243.884 34.9267 230.549 29.627C225.921 27.7875 209.517 21.6772 205.782 27.9034C201.416 35.1793 211.387 49.6733 213.538 56.4177C221.421 81.1413 220.063 111.127 217.435 136.565C214.403 165.91 210.013 196.253 201.398 224.543C200.869 226.279 186.862 264.871 194.466 263.399C201.956 261.95 204.684 251.922 207.131 246.051C212.335 233.561 217.258 220.952 222.83 208.619C237.011 177.231 246.965 147.244 242.914 112.36C240.898 95.0035 234.546 78.6636 225.003 64.0989C224.673 63.5952 223.323 62.1499 224.329 63.2746C227.756 67.1052 231.4 70.9615 234.371 75.1525C241.435 85.1173 245.182 97.6555 249.134 109.062C253.162 120.69 257.399 132.222 260.674 144.096C264.61 158.363 266.05 176.065 258.052 189.397" stroke="#FF0000" stroke-opacity="0.5" stroke-width="50" stroke-linecap="round"/>
<path d="M129.231 33.5988C128.9 30.9448 117.494 40.0684 116.904 40.5681C111.213 45.3835 105.413 50.0555 99.8552 55.0313C84.6971 68.6031 67.5827 79.715 52.1191 92.8755C35.7733 106.787 31.0961 128.527 29.5624 149.08C27.3354 178.923 29.5793 208.09 48.7468 232.599C57.8007 244.177 68.4894 255.8 79.4718 265.61C87.1598 272.477 96.3272 277.642 104.314 284.157C107.562 286.807 114.021 295.156 118.44 295.286C122.026 295.391 117.595 278.019 117.391 276.326C116.166 266.169 117.091 254.887 117.091 244.627C117.091 231.132 116.731 217.746 117.129 204.235C117.48 192.287 117.438 179.481 119.639 167.74C121.808 156.174 125.727 144.889 128.407 133.418C130.798 123.183 129.561 112.488 129.269 102.131C128.882 88.404 130.322 73.1675 126.683 59.8274C122.337 43.8904 91.9299 50.7761 81.4202 54.8814C56.1792 64.7412 50.0591 89.5403 51.6695 114.833C53.4628 142.999 56.709 171.396 65.2334 198.39C69.0133 210.359 74.5498 221.196 81.4202 231.663C82.0746 232.66 89.3256 243.127 89.5511 241.142C90.1181 236.153 88.3401 229.584 87.6402 224.843C86.0453 214.04 84.277 203.259 82.8441 192.432C80.2737 173.011 79.1512 153.44 81.4952 133.942C82.9924 121.488 84.99 99.588 96.0334 90.5524C98.3087 88.6907 98.2546 98.796 98.2816 99.1704C99.0286 109.535 99.9892 123.365 106.225 132.144C113.651 142.598 118.779 127.944 124.36 136.715C136.947 156.493 134.42 181.974 130.243 203.785C127.323 219.033 121.138 234.481 121.138 250.098" stroke="#0000FF" stroke-opacity="0.5" stroke-width="50" stroke-linecap="round"/>
<path d="M178.466 101.718C178.636 108.184 178.985 114.657 179.178 121.128C179.202 121.925 179.595 128.971 179.853 124.725C180.178 119.351 179.46 99.4638 186.41 97.1471C190.066 95.9283 184.012 107.484 184.012 108.088C184.012 114.725 196.002 117.848 196.002 125.999" stroke="black" stroke-width="3" stroke-linecap="round"/>
<path d="M210.84 111.161C209.113 102.955 195.142 114.228 200.873 122.402C203.932 126.764 210.148 122.038 211.739 118.804C213.832 114.552 212.828 111.791 210.165 108.463" stroke="black" stroke-width="3" stroke-linecap="round"/>
<path d="M219.608 108.463C219.608 107.133 219.385 111.113 219.233 112.435C218.267 120.858 219.422 116.252 220.882 110.898C223.26 102.178 227.028 117.126 227.701 120.491C228.144 122.706 228.556 120.669 228.825 119.479C229.715 115.543 230.102 110.207 232.947 107.039C236.659 102.905 239.167 119.106 239.167 121.277" stroke="black" stroke-width="3" stroke-linecap="round"/>
<path d="M242.539 109.137C243.724 113.73 243.121 118.908 242.539 123.563C242.415 124.554 243.12 113.891 243.738 111.46C246.032 102.44 250.826 111.74 252.506 116.069C253.495 118.617 254.679 123.975 254.679 123.975" stroke="black" stroke-width="3" stroke-linecap="round"/>
<path d="M261.424 112.51C264.576 115.312 266.182 102.25 260.075 109.287C257.304 112.479 253.528 120.68 257.377 124.425C260.724 127.681 265.373 126.096 268.168 123.301" stroke="black" stroke-width="3" stroke-linecap="round"/>
<path d="M271.541 109.137C269.473 111.722 271.526 124.477 275.213 124.275C278.578 124.091 281.83 118.221 282.781 115.582C282.995 114.991 283.573 108.429 283.343 108.613C280.149 111.168 290.18 132.641 290.875 136.153C293.448 149.161 278.124 152.206 268.843 148.93" stroke="black" stroke-width="3" stroke-linecap="round"/>
<path d="M198.025 146.907C197.776 153.628 193.737 163.829 204.77 161.07" stroke="black" stroke-width="3" stroke-linecap="round"/>
<path d="M208.817 152.977C208.817 143.981 209.491 170.959 209.491 179.955" stroke="black" stroke-width="3" stroke-linecap="round"/>
<path d="M218.259 152.302C217.02 152.479 220.924 152.974 221.107 152.977C223.122 153.002 229.184 151.837 230.699 153.351C232.102 154.755 230.452 160.02 230.174 161.295C228.628 168.395 226.525 175.597 222.98 181.978" stroke="black" stroke-width="3" stroke-linecap="round"/>
<path d="M235.12 177.931C235.551 178.416 235.603 178.706 235.795 179.28" stroke="black" stroke-width="3" stroke-linecap="round"/>
<path d="M259.4 147.581C253.422 151.043 249.156 159.111 248.235 165.716C247.66 169.833 248.083 185.152 256.066 181.791C259.059 180.53 265.971 169.302 261.199 170.962C256.431 172.62 253.455 177.183 252.656 181.978" stroke="black" stroke-width="3" stroke-linecap="round"/>
<path d="M169.698 221.096C170.672 215.256 170.433 234.334 175.057 238.032C176.58 239.251 181.794 222.578 182.513 220.422" stroke="black" stroke-width="3" stroke-linecap="round"/>
<path d="M196.002 227.166C196.002 220.446 185.328 226.92 188.133 231.887C193.24 240.931 200.675 227.022 198.7 221.096" stroke="black" stroke-width="3" stroke-linecap="round"/>
<path d="M210.165 208.956C210.165 217.335 210.169 226.506 212.189 234.585" stroke="black" stroke-width="3" stroke-linecap="round"/>
<path d="M204.77 223.12C200.717 223.12 212.41 220.412 216.236 219.073" stroke="black" stroke-width="3" stroke-linecap="round"/>
<path d="M222.306 222.445C226.245 225.596 235.782 215.445 228.9 218.886C225.438 220.617 220.132 224.389 222.343 229.002C224.99 234.526 232.288 230.519 235.795 228.515" stroke="black" stroke-width="3" stroke-linecap="round"/>
<path d="M256.703 217.05C257.608 215.885 239.585 216.698 250.071 223.494C251.813 224.623 259.576 227.668 256.553 230.763C254.966 232.388 250.407 233.011 249.284 231.887" stroke="black" stroke-width="3" stroke-linecap="round"/>
<path d="M55.7162 99.0205C54.4427 94.5637 50.5921 93.1103 46.049 95.1237C38.8782 98.3017 34.324 109.93 37.2062 117.156C40.0289 124.232 45.936 126.641 52.1191 121.502C59.8627 115.067 55.2195 106.099 52.3439 99.0205" stroke="black" stroke-width="3" stroke-linecap="round"/>
<path d="M63.8096 94.2994C63.8096 100.417 63.7085 106.543 63.8096 112.659C63.8924 117.668 66.3607 108.91 69.3176 108.725C78.9797 108.121 78.6879 121.277 68.5307 121.277" stroke="black" stroke-width="3" stroke-linecap="round"/>
<path d="M90.7876 115.207C90.454 111.038 86.4008 112.072 84.2679 114.533C82.613 116.442 78.8941 125.938 82.9939 120.678C84.8899 118.245 87.5105 110.826 90.1132 116.032C91.9376 119.681 93.2825 123.301 97.5321 123.301" stroke="black" stroke-width="3" stroke-linecap="round"/>
<path d="M99.5555 112.51C99.5555 110.304 98.1353 121.119 99.0309 119.104C100.133 116.625 100.139 113.376 101.579 111.086C102.214 110.076 104.642 116.797 104.801 117.605C105.715 122.255 106.784 112.523 107.986 110.674C110.613 106.633 115.939 120.876 116.417 122.626" stroke="black" stroke-width="3" stroke-linecap="round"/>
<path d="M129.906 113.858C128.097 110.241 122.348 108.075 120.089 112.959C116.565 120.577 123.488 122.752 126.908 115.357C129.743 109.228 125.081 109.037 128.632 115.132C131.385 119.859 134.598 122.626 140.023 122.626" stroke="black" stroke-width="3" stroke-linecap="round"/>
<path d="M36.8315 161.07C37.012 159.446 36.2594 168.809 36.7566 170.4C38.4401 175.787 44.6348 174.733 48.2972 172.536" stroke="black" stroke-width="3" stroke-linecap="round"/>
<path d="M49.6461 166.466C49.6461 173.068 48.2493 181.16 50.3205 187.374" stroke="black" stroke-width="3" stroke-linecap="round"/>
<path d="M57.7395 164.442C61.1403 164.442 73.1416 160.436 75.1628 162.794C77.0225 164.963 68.048 179.862 67.1818 183.327" stroke="black" stroke-width="3" stroke-linecap="round"/>
<path d="M82.6942 184.676C82.6942 185.104 82.6942 185.104 82.6942 184.676" stroke="black" stroke-width="3" stroke-linecap="round"/>
<path d="M100.904 157.698C100.904 155.442 99.1262 162.327 100.005 164.405C101.911 168.909 107.423 164.968 109.672 163.093" stroke="black" stroke-width="3" stroke-linecap="round"/>
<path d="M111.021 160.396C111.021 155.835 112.05 161.528 112.37 163.168C113.717 170.072 112.889 177.232 114.393 184.001" stroke="black" stroke-width="3" stroke-linecap="round"/>
<path d="M46.2738 219.073C46.4692 215.946 47.7997 221.312 47.9225 221.696C49.2752 225.923 51.8552 235.396 55.866 237.883C59.8824 240.373 62.437 219.653 61.7862 217.05" stroke="black" stroke-width="3" stroke-linecap="round"/>
<path d="M73.9264 226.492C73.2787 219.368 65.6202 224.592 66.2076 229.977C66.693 234.426 71.4887 233.041 73.8514 231.063C76.6863 228.69 76.6241 225.131 76.6241 221.771" stroke="black" stroke-width="3" stroke-linecap="round"/>
<path d="M84.0431 208.956C84.969 217.752 86.7839 226.42 87.4154 235.26" stroke="black" stroke-width="3" stroke-linecap="round"/>
<path d="M78.6475 222.445C74.0953 222.445 87.3521 219.681 91.4621 217.724" stroke="black" stroke-width="3" stroke-linecap="round"/>
<path d="M98.2066 220.422C98.8179 225.924 107.9 213.208 101.654 217.799C98.0034 220.482 92.9382 228.004 96.1457 232.637C99.098 236.901 105.551 231.88 108.323 229.864" stroke="black" stroke-width="3" stroke-linecap="round"/>
<path d="M125.185 217.05C123.882 214.589 121.927 215.28 119.826 216.825C115.302 220.151 117.934 223.2 121.438 225.967C122.804 227.047 129.52 231.088 126.084 233.311C123.057 235.27 118.697 236.609 115.068 236.609" stroke="black" stroke-width="3" stroke-linecap="round"/>
</svg>
