<svg width="386" height="227" viewBox="0 0 386 227" fill="none" xmlns="http://www.w3.org/2000/svg">
<path d="M329.08 3C329.201 3 323.136 10.8932 322.199 12.3582C318.254 18.5211 314.962 24.5844 313.226 31.7353C309.07 48.8464 324.159 58.1979 339.539 55.2961C355.589 52.2678 357.443 32.2741 353.301 20.2852C348.545 6.51776 339.909 4.98172 327.098 4.98172" stroke="black" stroke-width="5" stroke-linecap="round"/>
<path d="M318.18 55.5164C319.929 53.9858 316.968 61.8679 315.208 63.4434C312.238 66.1 305.404 67.9923 301.776 69.4437C289.266 74.4477 287.397 91.4861 283.5 102.528C280.255 111.72 274.424 125.061 264.233 126.914C250.405 129.429 242.181 124.729 229.937 119.373C223.833 116.702 220.024 118.469 224.653 124.878C228.761 130.566 241.389 133.644 248.048 135.006C263.114 138.088 274.975 147.152 289.445 138.309C291.031 137.34 295.42 130.933 296.876 130.933C298.267 130.933 293.428 160.329 292.858 162.641C290.034 174.093 288.785 185.971 289.5 197.762C289.714 201.297 294.384 222.486 295.39 221.983" stroke="black" stroke-width="5" stroke-linecap="round"/>
<path d="M360.788 151.631C360.788 164.982 362.769 178.572 362.769 192.092C362.769 200.463 359.797 225.4 359.797 217.029" stroke="black" stroke-width="5" stroke-linecap="round"/>
<path d="M362.769 147.668C363.132 144.766 370.416 151.56 371.687 151.631C376.067 151.874 376.764 150.369 379.394 147.447C386.813 139.204 381.596 118.6 381.596 109.024C381.596 97.1974 379.683 83.3292 370.917 74.5631C366.795 70.4411 362.33 69.2905 357.595 66.416C351.331 62.6131 349.525 57.0856 346.915 50.562" stroke="black" stroke-width="5" stroke-linecap="round"/>
<path d="M195.312 104.069C198.017 100.59 189.266 102.63 187.935 103.739C182.667 108.129 176.471 116.495 182.651 122.676C194.145 134.17 210.011 108.033 192.339 108.033" stroke="black" stroke-width="5" stroke-linecap="round"/>
<path d="M183.421 124.877C172.519 124.877 170.54 142.971 170.54 150.86C170.54 161.761 170.623 172.459 180.504 179.375C187.577 184.326 197.982 183.597 204.67 187.853C212.733 192.984 213.226 208.268 217.111 216.038" stroke="black" stroke-width="5" stroke-linecap="round"/>
<path d="M201.257 119.923C207.622 126.995 213.564 134.064 217.111 142.933C218.969 147.579 222.677 164.323 227.02 166.494" stroke="black" stroke-width="5" stroke-linecap="round"/>
<path d="M146.759 110.014C148.648 107.586 144.159 104.947 142.025 105.335C133.931 106.807 127.878 117.171 133.327 124.437C144.077 138.771 171.115 111.996 142.796 111.996" stroke="black" stroke-width="5" stroke-linecap="round"/>
<path d="M135.86 127.85C119.134 127.85 119.662 155.385 122.978 165.723C124.721 171.158 129.831 172.844 131.401 178.495C133.683 186.713 132.744 193.983 136.3 202.111C138.417 206.951 139.237 214.191 144.777 216.038" stroke="black" stroke-width="5" stroke-linecap="round"/>
<path d="M153.695 219.01C159.043 218.416 163.485 206.804 165.035 202.716C168.056 194.751 166.39 185.657 169.99 177.944C173.397 170.642 169.261 163.611 167.567 156.365C165.481 147.438 164.658 135.903 160.631 127.85" stroke="black" stroke-width="5" stroke-linecap="round"/>
<path d="M90.2793 105.06C77.917 93.3842 62.9227 119.664 79.9302 127.575C101.211 137.473 96.1599 95.1836 86.3158 100.106" stroke="black" stroke-width="5" stroke-linecap="round"/>
<path d="M75.4162 128.841C75.0205 125.675 67.717 132.568 67.0488 133.3C63.8897 136.76 62.5349 141.302 62.5349 145.906C62.5349 155.834 65.5075 164.996 65.5075 174.917C65.5075 186.722 65.5181 192.349 75.8566 198.257C84.5828 203.244 78.3889 216.085 78.3889 223.965" stroke="black" stroke-width="5" stroke-linecap="round"/>
<path d="M106.133 218.02C106.133 225.016 101.727 204.01 103.381 197.211C105.007 190.524 109.956 193.279 113.51 189.725C117.269 185.965 117.657 172.475 117.969 167.485C118.803 154.134 115.967 137.216 104.152 129.832" stroke="black" stroke-width="5" stroke-linecap="round"/>
<path d="M35.7813 101.097C23.3159 99.7114 16.5438 117.477 26.5332 126.089C37.7555 135.763 50.9824 97.9549 28.8453 109.024" stroke="black" stroke-width="5" stroke-linecap="round"/>
<path d="M23.8908 127.85C23.8908 122.499 13.31 128.107 11.1746 129.281C7.27924 131.424 3.62516 137.334 3.13754 141.722C1.67618 154.874 12.3493 163.142 12.0004 176.403C11.9355 178.868 8.4956 186.312 12.5509 186.312C17.8029 186.312 24.3283 191.703 27.7993 195.174C36.6254 204 31.8179 211.554 31.8179 221.983" stroke="black" stroke-width="5" stroke-linecap="round"/>
<path d="M59.5622 218.02C64.545 217.397 58.1895 203.974 57.1401 201.725C54.1598 195.339 54.6212 189.241 56.5896 182.843C58.8137 175.615 58.0259 172.663 55.5988 164.953C52.5453 155.253 53.1302 144.729 50.6444 134.786" stroke="black" stroke-width="5" stroke-linecap="round"/>
<path d="M46.6809 132.805C45.6543 128.698 40.1434 120.189 36.7722 117.941" stroke="black" stroke-width="5" stroke-linecap="round"/>
<path d="M226.029 164.512C235.038 165.413 233.124 174.659 232.965 180.366C232.577 194.354 233.212 204.767 225.038 217.029" stroke="black" stroke-width="5" stroke-linecap="round"/>
</svg>
