<svg width="313" height="316" viewBox="0 0 313 316" fill="none" xmlns="http://www.w3.org/2000/svg">
<path d="M151.337 9.41802C154.895 -19.048 156.948 66.6099 156.948 95.2974C156.948 114.583 156.948 133.285 156.948 152.498" stroke="black" stroke-width="3" stroke-linecap="round"/>
<path d="M152.74 158.109C151.68 168.71 141.249 183.049 135.595 191.775C127.071 204.932 112.924 217.197 101.929 228.558C92.4778 238.325 83.8823 248.686 75.5887 259.419C71.5877 264.597 67.4036 274.422 61.5612 277.343" stroke="black" stroke-width="3" stroke-linecap="round"/>
<path d="M152.74 6.61252C131.39 3.94368 113.509 14.3398 94.6038 24.7703C61.2375 43.1795 36.4558 60.4706 19.4788 96.3105C0.436909 136.509 -1.28408 176.171 14.1795 217.804C24.9118 246.699 45.6856 269.884 67.1723 291.37" stroke="black" stroke-width="3" stroke-linecap="round"/>
<path d="M154.143 3.80698C136.42 3.80698 191.544 5.15122 206.044 15.3407C239.803 39.0629 274.592 58.8545 294.417 97.0897C302.563 112.799 307.042 133.277 307.042 150.784C307.042 162.879 312.17 174.471 311.172 186.944C310.219 198.86 304.659 209.935 301.431 221.233C296.64 238 283.749 253.964 272.597 266.9C263.772 277.137 256.703 287.076 245.009 294.176C235.212 300.124 220.443 303.282 209.473 306.801C185.518 314.484 157.505 313.814 132.556 313.814C119.828 313.814 109.878 307.353 98.0326 304.307C84.4492 300.814 68.3231 296.603 60.1584 284.357" stroke="black" stroke-width="3" stroke-linecap="round"/>
<path d="M94.4575 264.877C94.4575 272.323 84.017 278.974 99.2197 280.663C119.166 282.879 139.22 284.29 159.189 286.748C185.126 289.94 201.925 280.129 223.743 268.228C243.478 257.463 259.052 248.576 270.66 228.014C299.52 176.891 291.14 120.049 250.024 77.5625C234.72 61.7484 215.941 52.0974 197.727 40.2584C192.362 36.771 186.979 32.9908 181.853 29.1465C176.851 25.3948 178.191 31.5259 177.356 36.6426C169.941 82.0568 195.858 129.226 168.36 171.572C159.869 184.649 153.79 199.104 145.255 212.14C138.403 222.604 129.346 232.087 123.913 243.447C121.302 248.905 120.998 256.984 128.851 258.88C148.32 263.579 168.037 226.234 174.533 213.903C188.656 187.097 208.906 151.678 206.811 120.246C206.784 119.838 205.576 111.937 205.576 113.985C205.576 131.335 205.62 148.691 204.518 166.017C203.021 189.559 199.048 212.607 194.817 235.774C193.506 242.952 187.497 261.079 193.935 257.645C202.2 253.238 207.638 230.617 209.986 223.075C220.192 190.283 221.802 155.594 221.098 121.481C220.788 106.511 220.432 90.7257 217.482 75.9751C217.261 74.8724 214.319 65.5127 217.394 71.742C235.348 108.123 242.212 147.317 239.617 187.711C238.875 199.268 237.468 210.706 236.09 222.193C235.938 223.457 235.416 230.944 236.707 224.486C240.693 204.557 243.126 184.458 248.084 164.694C249.665 158.389 256.85 144.076 254.786 137.884" stroke="#FF0000" stroke-opacity="0.5" stroke-width="50" stroke-linecap="round"/>
<path d="M128.691 26.6362C132.197 22.6293 117.795 27.2757 116.737 27.608C100.557 32.6934 84.5524 37.2781 72.3248 49.7657C50.3487 72.2092 36.9021 100.107 30.7305 130.622C24.5086 161.386 22.6318 191.837 32.8685 222.168C37.3705 235.508 47.1434 261.341 61.5374 245.881C87.9243 217.539 130.55 184.533 138.992 144.13C145.295 113.966 144.392 72.9681 134.327 43.9348C132.28 38.0285 132.921 27.796 125.873 33.9249C101.209 55.3716 88.344 98.564 79.3219 128.873C76.8445 137.195 50.9313 202.14 61.6347 208.951C68.7178 213.459 98.109 113.419 101.285 103.994C102.053 101.717 105.95 79.4737 105.95 86.1121" stroke="#0000FF" stroke-opacity="0.5" stroke-width="50" stroke-linecap="round"/>
<path d="M193.933 117.945C197.489 115.811 199.036 143.845 199.139 146.948" stroke="black" stroke-width="3" stroke-linecap="round"/>
<path d="M185.009 115.714C174.304 115.714 206.323 113.68 216.987 112.74" stroke="black" stroke-width="3" stroke-linecap="round"/>
<path d="M214.756 134.306C214.756 130.229 214.756 150.611 214.756 146.535C214.756 137.712 217.012 122.264 228.885 124.638" stroke="black" stroke-width="3" stroke-linecap="round"/>
<path d="M231.116 126.869C227.521 131.118 227.589 143.82 234.835 144.634C243.702 145.631 241.925 129.906 240.04 125.382" stroke="black" stroke-width="3" stroke-linecap="round"/>
<path d="M245.989 129.1C245.631 130.943 246.307 142.127 246.898 138.107C247.829 131.778 250.645 126.12 253.261 135.462C255.999 145.24 255.426 134.851 257.723 130.505C259.731 126.702 264.176 139.515 264.581 140.999" stroke="black" stroke-width="3" stroke-linecap="round"/>
<path d="M269.787 142.486C270.064 146.502 270.796 150.499 271.439 154.467C271.953 157.64 272.579 161.359 273.174 164.548C273.469 166.128 272.77 169.976 274.207 169.258C276.608 168.057 267.713 131.945 268.506 126.662C269.913 117.282 278.36 125.703 280.033 130.422C281.923 135.756 276.165 136.537 272.017 136.537" stroke="black" stroke-width="3" stroke-linecap="round"/>
<path d="M224.423 200.491C225.027 201.631 225.566 202.922 226.654 203.466" stroke="black" stroke-width="3" stroke-linecap="round"/>
<path d="M179.804 239.162C181.911 243.377 185.032 253.821 189.347 255.439C193.396 256.958 195.959 239.604 196.164 236.931" stroke="black" stroke-width="3" stroke-linecap="round"/>
<path d="M208.063 241.393C208.063 237.185 203.777 243.75 203.683 245.689C203.584 247.75 204.393 256.722 208.063 252.134C210.741 248.786 210.792 245.323 211.037 241.393" stroke="black" stroke-width="3" stroke-linecap="round"/>
<path d="M214.756 228.75C216.06 220.922 218.581 244.157 220.705 251.804" stroke="black" stroke-width="3" stroke-linecap="round"/>
<path d="M211.781 243.623C212.46 241.813 222.937 242.348 225.167 241.393" stroke="black" stroke-width="3" stroke-linecap="round"/>
<path d="M229.629 242.88C229.629 247.637 238.169 240.868 235.496 239.905C231.419 238.438 226.758 246.106 227.315 249.449C228.472 256.392 237.737 250.522 240.784 248.829" stroke="black" stroke-width="3" stroke-linecap="round"/>
<path d="M252.682 236.187C252.585 235.41 246.565 236.109 249.873 240.814C252.02 243.867 257.521 249.087 253.178 252.465C250.601 254.469 246.558 255.288 244.502 252.547" stroke="black" stroke-width="3" stroke-linecap="round"/>
<path d="M49.6634 84.4804C42.409 85.2059 36.5557 95.2582 37.393 101.956C38.5299 111.051 48.829 108.061 53.3817 104.559" stroke="black" stroke-width="3" stroke-linecap="round"/>
<path d="M57.1 85.2241C57.1 93.444 57.2379 101.588 57.8436 109.765" stroke="black" stroke-width="3" stroke-linecap="round"/>
<path d="M64.5366 94.148C64.6976 97.3692 65.1008 100.586 65.2802 103.816" stroke="black" stroke-width="3" stroke-linecap="round"/>
<path d="M66.7675 84.4804L66.0239 82.9931" stroke="black" stroke-width="3" stroke-linecap="round"/>
<path d="M75.6914 95.6353C74.6541 95.765 73.957 105.849 74.5347 103.402C74.9702 101.558 76.298 93.2007 79.7403 94.3959C84.5006 96.0488 86.2126 104.145 87.59 108.278" stroke="black" stroke-width="3" stroke-linecap="round"/>
<path d="M96.5139 83.7368C96.5139 74.7991 98.0012 101.571 98.0012 110.509" stroke="black" stroke-width="3" stroke-linecap="round"/>
<path d="M88.3337 100.097C87.7088 99.2642 100.127 96.7143 101.72 96.379" stroke="black" stroke-width="3" stroke-linecap="round"/>
<path d="M118.08 100.097C113.663 94.0529 101.939 98.3898 104.942 105.799C106.735 110.222 111.566 111.52 115.312 108.856C119.861 105.621 117.71 102.857 116.593 98.61" stroke="black" stroke-width="3" stroke-linecap="round"/>
<path d="M123.286 100.841C129.646 101.548 121.017 117.063 126.26 102.989C130.164 92.5099 139.901 103.602 141.133 109.765" stroke="black" stroke-width="3" stroke-linecap="round"/>
<path d="M99.4886 155.872C100.25 156.633 100.732 157.03 101.72 157.359" stroke="black" stroke-width="3" stroke-linecap="round"/>
<path d="M41.4832 187.105C41.8105 190.215 45.0517 196.2 47.8456 197.517C51.4678 199.224 54.6889 184.44 55.6127 181.9" stroke="black" stroke-width="3" stroke-linecap="round"/>
<path d="M66.7675 187.849C67.752 187.726 64.0698 185.567 61.562 189.088C59.1792 192.434 61.5201 200.232 66.6023 198.178C71.8912 196.04 70.9873 190.624 70.4859 186.362" stroke="black" stroke-width="3" stroke-linecap="round"/>
<path d="M77.9224 175.951C78.5058 174.2 78.8044 179.538 79.0793 181.363C79.8872 186.724 80.3833 192.122 80.8971 197.517" stroke="black" stroke-width="3" stroke-linecap="round"/>
<path d="M72.7169 191.567C76.6911 189.894 81.8704 189.802 86.1027 188.593" stroke="black" stroke-width="3" stroke-linecap="round"/>
<path d="M90.5647 189.336C90.9886 193.152 98.16 188.178 97.6707 185.535C97.6432 185.387 89.7107 192.445 89.5731 195.368C89.3528 200.049 99.9291 195.202 101.72 194.542" stroke="black" stroke-width="3" stroke-linecap="round"/>
<path d="M113.618 184.131C109.882 181.142 103.748 187.035 107.173 191.072C108.532 192.673 112.788 194.141 112.544 196.773C112.22 200.266 106.247 200.3 103.951 200.491" stroke="black" stroke-width="3" stroke-linecap="round"/>
<path d="M190.083 175.751C187.233 171.95 179.036 179.095 179.717 182.55C180.529 186.674 187.416 187.041 188.602 191.368C189.946 196.267 181.156 199.755 183.015 192.446C184.394 187.024 188.431 182.195 189.477 176.963" stroke="black" stroke-width="3" stroke-linecap="round"/>
<path d="M204.018 172.116C204.85 171.522 203.453 174.788 203.412 174.91C202.48 177.64 202.077 180.603 202.941 183.425C204.531 188.625 211.576 182.729 213.711 181.204" stroke="black" stroke-width="3" stroke-linecap="round"/>
<path d="M216.74 174.54C215.037 176.053 215.802 183.594 215.798 185.108C215.783 190.27 215.956 195.433 216.134 200.591" stroke="black" stroke-width="3" stroke-linecap="round"/>
<path d="M238.55 178.781C238.698 177.309 240.224 175.667 241.815 176.021C248.057 177.408 249.112 182.604 247.369 187.868C246.224 191.325 239.846 198.448 245.484 199.951C249.133 200.924 252.962 201.197 256.726 201.197" stroke="black" stroke-width="3" stroke-linecap="round"/>
<path d="M51.9521 136.978C52.3127 135.535 65.4895 135.152 67.0644 135.261C68.5668 135.365 59.1255 154.17 58.6163 156.97" stroke="black" stroke-width="3" stroke-linecap="round"/>
<path d="M81.6382 133.948C83.9529 141.182 82.8498 149.469 82.8498 156.97" stroke="black" stroke-width="3" stroke-linecap="round"/>
<path d="M126.47 135.766C125.815 129.211 116.817 139.43 115.969 140.747C110.481 149.265 125.914 148 126.403 153.537C126.821 158.271 115.529 166.382 118.662 154.715C120.737 146.987 127.021 140.834 128.894 133.343" stroke="black" stroke-width="3" stroke-linecap="round"/>
</svg>
