<svg width="317" height="332" viewBox="0 0 317 332" fill="none" xmlns="http://www.w3.org/2000/svg">
<path d="M156.157 14.4086C160.371 -19.3063 161.768 82.2085 161.768 116.186C161.768 130.465 163.791 144.536 161.69 158.19C158.193 180.927 146.527 202.312 141.35 224.899C137.329 242.445 131.336 259.398 126.699 276.722C123.89 287.223 122.592 306.03 116.88 314.597" stroke="black" stroke-width="3" stroke-linecap="round"/>
<path d="M158.963 7.3948C119.762 7.9106 78.9889 25.7796 48.0676 50.3345C24.509 69.0427 6.80037 99.3747 3.56935 129.746C0.0425767 162.897 3.39204 197.08 21.0258 226.301C40.9832 259.374 73.4948 301.997 112.672 311.791" stroke="black" stroke-width="3" stroke-linecap="round"/>
<path d="M160.365 5.99208C188.673 2.84671 210.678 17.3909 236.581 26.9554C273.167 40.4639 290.106 75.3616 304.537 108.86C320.525 145.975 317.752 195.288 301.342 231.757C294.403 247.175 290.047 266.097 275.702 276.722C263.764 285.566 252.927 295.431 239.621 302.595C225.518 310.189 205.369 307.892 189.823 311.479C165.548 317.082 145.155 323.733 119.686 321.61" stroke="black" stroke-width="3" stroke-linecap="round"/>
<path d="M136.82 45.5139C122.308 32.6147 80.5718 63.364 70.3253 74.7928C50.9922 96.3566 41.5756 122.282 41.5756 151.077C41.5756 186.007 50.319 209.077 68.9143 237.591C76.9292 249.88 89.0992 269.517 100.662 278.51C101.002 278.775 108.128 247.142 108.6 244.646C113.615 218.081 117.587 191.053 119.359 164.041C121.706 128.25 119.75 92.139 131.264 57.5958C132.177 54.8589 140.301 25.5831 132.058 25.5831C127.504 25.5831 121.557 32.1384 118.653 34.7548C106.768 45.4642 95.8751 57.2636 84.4356 68.4431C69.66 82.8829 54.3097 92.773 48.278 113.773C42.4939 133.91 44.5275 163.279 48.278 183.619C52.0785 204.229 65.5243 215.766 72.2655 234.151C75.0995 241.88 70.3065 235.678 67.9442 233.005C58.2675 222.055 46.5279 212.109 39.9881 198.787C28.3141 175.007 31.1347 146.677 36.0196 121.71C40.9502 96.5091 57.941 70.7973 84.0829 63.3281C89.8498 61.6804 85.4115 80.5173 85.3175 81.1424C80.8557 110.8 75.0876 141.001 75.0876 171.096C75.0876 176.363 74.3547 188.744 78.086 193.408C79.4058 195.057 79.8051 189.532 80.379 187.499C84.6343 172.423 86.7738 156.851 89.5507 141.464C92.5179 125.022 94.7221 106.901 100.31 91.0196C104.753 78.3906 103.444 117.67 103.485 131.058C103.553 153.669 103.648 176.219 102.25 198.787C101.921 204.1 102.699 213.812 107.629 204.167C125.57 169.065 128.849 121.993 126.943 83.6117C126.653 77.7694 125.708 72.009 125.708 66.1502C125.708 53.1052 127.18 92.1989 128.001 105.218C129.507 129.094 128.498 153.089 125.62 176.828C124.487 186.176 122.92 195.456 121.652 204.784C121.434 206.387 120.511 210.575 121.828 209.634C131.754 202.545 133.783 181.431 134.88 170.567C138.339 136.318 141.481 96.0077 130.471 62.9754" stroke="#FF0000" stroke-opacity="0.5" stroke-width="50" stroke-linecap="round"/>
<path d="M182.419 25.4732C179.482 54.8464 180.55 85.0118 182.808 114.687C184.982 143.261 178.217 169.279 173.284 196.904C170.933 210.071 116.642 317.46 158.318 305.36C173.02 301.092 184.592 291.249 199.718 287.09C214.77 282.95 227.983 275.94 241.507 268.236C267.547 253.403 273.077 224.266 276.493 196.515C283.305 141.161 246.362 88.1366 214.101 46.659C204.851 34.7664 235.701 53.504 238.008 55.2112C255.53 68.1773 261.746 88.8784 272.508 106.815C289.882 135.772 286.413 177.162 270.759 206.428C264.193 218.703 220.051 305.539 207.979 275.622C202.648 262.412 203.285 246.953 204.188 233.056C206.229 201.652 211.144 170.752 218.377 140.149C220.002 133.276 220.899 113.706 224.402 119.838C230.216 130.012 225.385 153.215 223.917 163.57C220.193 189.822 211.475 213.801 197.191 236.166C194.671 240.112 178.693 260.788 178.921 260.073C196.39 205.168 223.968 145.536 215.462 86.6012C215.367 85.9491 209.391 66.3174 209.048 69.0111C206.561 88.4917 217.637 114.082 222.653 132.569C229.848 159.088 241.501 186.156 237.425 214.105C237.315 214.863 234.174 225.646 235.287 226.253C238.34 227.918 251.22 207.038 252.391 205.262C267.227 182.752 270.858 158.697 273.48 132.472C277.489 92.38 295.12 228.706 262.887 252.881" stroke="#0000FF" stroke-opacity="0.5" stroke-width="50" stroke-linecap="round"/>
<path d="M176.438 109.219C176.738 116.415 177.174 124.822 179.661 131.612C181.508 136.657 179.382 120.868 179.165 115.499C179.059 112.877 178.39 104.618 182.883 104.675C187.6 104.734 192.399 109.976 191.807 114.673C191.286 118.804 187.647 118.396 185.858 120.952C185.389 121.622 187.482 121.128 188.295 121.2C190.933 121.435 193.684 121.938 196.021 123.266C208.668 130.449 189.827 141.944 186.849 137.478" stroke="black" stroke-width="3" stroke-linecap="round"/>
<path d="M209.159 121.861C206.742 123.372 209.627 134.527 209.903 136.735" stroke="black" stroke-width="3" stroke-linecap="round"/>
<path d="M206.928 109.219H209.159" stroke="black" stroke-width="3" stroke-linecap="round"/>
<path d="M227.751 104.014C227.751 100.612 228.297 110.795 228.66 114.177C228.968 117.051 231.196 130.814 230.395 129.794C228.179 126.973 218.204 123.607 217.835 129.876C217.345 138.205 229.324 135.74 232.956 133.016" stroke="black" stroke-width="3" stroke-linecap="round"/>
<path d="M242.624 127.811C244.091 135.149 254.72 121.841 246.012 123.762C241.225 124.818 235.921 132.315 240.31 136.652C244.692 140.981 250.667 136.771 254.522 134.504" stroke="black" stroke-width="3" stroke-linecap="round"/>
<path d="M261.215 121.118C261.215 126.075 260.037 132.42 261.298 137.148C262.05 139.968 263.409 131.695 264.727 129.091C270.512 117.662 275.22 135.39 277.576 139.709" stroke="black" stroke-width="3" stroke-linecap="round"/>
<path d="M200.979 170.943C200.882 169.392 199.579 168.595 198.004 169.208C193.407 170.995 199.25 178.02 200.318 180.032C201.497 182.256 204.873 187.375 202.301 189.947C200.91 191.339 196.604 190.988 196.145 188.749C194.731 181.857 204.893 173.722 209.159 169.456" stroke="black" stroke-width="3" stroke-linecap="round"/>
<path d="M247.086 184.329C247.086 186.107 247.829 187.692 247.829 189.534" stroke="black" stroke-width="3" stroke-linecap="round"/>
<path d="M178.669 221.512C180.036 224.245 187.045 242.842 189.246 241.301C195.269 237.085 195.631 226.543 197.261 220.024" stroke="black" stroke-width="3" stroke-linecap="round"/>
<path d="M212.877 228.205C208.275 223.602 201.052 229.214 203.003 235.311C204.657 240.48 211.598 236.666 213.538 233.989C216.671 229.666 215.16 226.168 212.877 222.255" stroke="black" stroke-width="3" stroke-linecap="round"/>
<path d="M223.289 215.562C225.182 223.703 226.718 231.935 228.494 240.103" stroke="black" stroke-width="3" stroke-linecap="round"/>
<path d="M215.852 230.436C219.878 227.215 228.087 226.225 232.956 224.486" stroke="black" stroke-width="3" stroke-linecap="round"/>
<path d="M238.162 228.205C241.601 231.644 248.484 224.197 247.581 223.495C244.203 220.867 239.278 234.189 239.897 236.591C241.615 243.263 249.374 237.1 252.291 235.641" stroke="black" stroke-width="3" stroke-linecap="round"/>
<path d="M269.395 222.255C269.134 221.211 267.643 221.452 266.834 221.677C262.301 222.936 265.211 228.362 266.751 231.097C267.911 233.154 274.241 238.78 270.222 240.847C267.09 242.458 263.154 242.334 259.728 242.334" stroke="black" stroke-width="3" stroke-linecap="round"/>
<path d="M42.5794 101.783C42.5794 110.689 43.3231 119.621 43.3231 128.554" stroke="black" stroke-width="3" stroke-linecap="round"/>
<path d="M30.6809 102.526C40.0959 101.854 49.5622 100.634 58.9399 99.5516" stroke="black" stroke-width="3" stroke-linecap="round"/>
<path d="M59.6836 118.143C59.6836 118.033 59.0219 127.153 60.1381 121.076C62.0587 110.62 62.7214 107.371 73.8132 109.219" stroke="black" stroke-width="3" stroke-linecap="round"/>
<path d="M76.7877 109.963C76.0012 114.289 73.0366 123.669 79.6384 125.786C86.5583 128.006 90.2806 116.126 87.9426 111.45" stroke="black" stroke-width="3" stroke-linecap="round"/>
<path d="M93.892 116.656C94.7645 117.747 94.3143 119.384 95.1727 120.374C96.8248 122.28 98.8926 109.918 103.105 114.425C106.39 117.939 105.143 122.961 107.774 117.152C111.472 108.985 116.033 120.291 117.689 123.349" stroke="black" stroke-width="3" stroke-linecap="round"/>
<path d="M122.151 121.118C123.923 127.684 125.296 134.506 125.952 141.279C126.831 150.359 122.473 130.084 122.316 128.72C121.688 123.254 120.8 116.563 123.308 111.368C125.056 107.746 128.203 108.071 130.083 111.368C133.997 118.229 128.09 120.507 122.895 121.118" stroke="black" stroke-width="3" stroke-linecap="round"/>
<path d="M38.8611 150.12C39.1951 147.448 47.5036 147.612 48.9418 147.807C63.4014 149.763 52.1226 166.131 48.5287 173.918" stroke="black" stroke-width="3" stroke-linecap="round"/>
<path d="M79.7623 168.712C80.2192 169.981 80.8314 171.175 81.2496 172.43" stroke="black" stroke-width="3" stroke-linecap="round"/>
<path d="M51.5034 197.715C52.3451 200.427 56.6513 214.545 60.7991 211.472C64.0671 209.052 65.6604 203.058 64.8892 199.202" stroke="black" stroke-width="3" stroke-linecap="round"/>
<path d="M79.7624 204.408C79.3801 202.687 75.4321 203.034 75.507 204.531C75.5933 206.256 78.7728 206.434 79.6798 205.482C81.5838 203.482 79.7232 200.431 79.0187 198.458" stroke="black" stroke-width="3" stroke-linecap="round"/>
<path d="M89.4299 191.765C93.5086 194.485 93.6602 210.186 94.6355 214.819" stroke="black" stroke-width="3" stroke-linecap="round"/>
<path d="M84.2244 204.408C88.5963 204.408 92.6489 204.071 96.8665 202.92" stroke="black" stroke-width="3" stroke-linecap="round"/>
<path d="M104.303 205.151C109.667 208.564 115.422 195.648 109.343 199.863C101.802 205.092 105.811 217.036 114.714 211.1" stroke="black" stroke-width="3" stroke-linecap="round"/>
<path d="M132.562 198.458C131.664 194.417 122.477 199.932 127.357 203.664C128.942 204.876 135.211 207.039 132.934 209.696C130.235 212.845 125.174 213.563 121.407 214.819" stroke="black" stroke-width="3" stroke-linecap="round"/>
<path d="M62.2068 152.263C62.763 151.15 64.6465 147.072 65.9764 149.839C68.5296 155.153 64.0328 158.38 60.8268 161.586C58.9212 163.491 66.8093 162.704 68.1305 165.052C70.5706 169.39 65.5441 172.738 62.2068 174.073" stroke="black" stroke-width="3" stroke-linecap="round"/>
<path d="M100.98 152.263C98.9061 150.377 97.4294 150.479 94.9893 152.195C89.2781 156.211 84.9121 161.601 91.4889 167.072C100.574 174.629 107.907 156.313 96.7395 154.08" stroke="black" stroke-width="3" stroke-linecap="round"/>
<path d="M219.725 166.803C219.725 174.335 216.949 177.023 226.389 174.073" stroke="black" stroke-width="3" stroke-linecap="round"/>
<path d="M230.024 166.803C230.024 174.235 230.643 181.868 229.418 189.219" stroke="black" stroke-width="3" stroke-linecap="round"/>
<path d="M270.009 169.832C266.947 162.175 256.252 174.129 259.003 179.02C261.764 183.928 266.259 185.805 270.38 181.04C274.952 175.753 273.071 170.964 269.404 166.197" stroke="black" stroke-width="3" stroke-linecap="round"/>
</svg>
