<svg width="360" height="255" viewBox="0 0 360 255" fill="none" xmlns="http://www.w3.org/2000/svg">
<path d="M29.4396 35.3213C31.2099 31.9772 31.2934 36.9418 31.3393 38.572C31.4506 42.5233 31.926 46.4272 31.6982 50.4137C31.2289 58.6266 29.8331 67.3068 30.8749 75.5115C32.1736 85.7392 31.3393 96.4402 31.3393 106.752C31.3393 121.307 32.0992 135.957 32.0992 150.531C32.0992 165.624 32.8591 180.643 32.8591 195.723C32.8591 204.738 31.3393 213.655 31.3393 222.637C31.3393 223.951 30.7711 226.839 31.8037 227.871C33.4357 229.504 38.0952 228.829 40.0359 228.526C42.6753 228.113 45.4964 227.674 48.1415 227.576C51.2223 227.462 50.7168 223.334 50.7168 221.075C50.7168 216.648 51.0382 212.069 50.5268 207.671C50.0705 203.747 50.9285 199.922 50.0413 196.04C48.8044 190.629 50.3368 184.753 50.3368 179.301C50.3368 167.988 54.0855 156.57 52.1521 145.211C50.8884 137.786 49.9569 129.871 49.9569 122.33C49.9569 97.8561 49.5769 73.3146 49.5769 48.8517C49.5769 45.8255 51.0489 38.5119 47.9727 36.4611C43.9684 33.7916 35.4123 34.4246 31.3393 36.4611" stroke="#0000FE" stroke-width="3" stroke-linecap="round"/>
<path d="M75.0336 48.9995C79.0802 49.5053 76.353 64.0165 76.089 66.1817C75.4044 71.7954 75.1294 77.079 75.709 82.7306C77.7164 102.301 76.5534 121.959 76.5534 141.581C76.5534 166.527 75.0336 191.53 75.0336 216.515C75.0336 219.143 73.9258 224.749 75.4135 227.112C76.3538 228.605 80.4754 228.359 81.9571 228.336C85.2661 228.285 88.5417 227.349 91.8358 227.196C94.7988 227.058 95.3709 225.834 95.5298 222.974C95.8014 218.085 96.2726 213.133 95.7408 208.241C95.4099 205.196 94.791 202.144 94.791 199.08C94.791 197.406 94.0311 195.822 94.0311 194.14C94.0311 190.311 95.577 186.714 95.9308 182.911C97.0275 171.122 95.1709 159.805 95.1709 147.998C95.1709 130.22 94.791 112.413 94.791 94.6146C94.791 81.1056 93.6511 67.6025 93.6511 54.1077C93.6511 52.8992 93.3759 51.7997 92.8912 50.7093C90.6225 45.6046 82.7648 48.1867 78.8331 49.7594" stroke="#0000FE" stroke-width="3" stroke-linecap="round"/>
<path d="M120.628 109.412C120.336 109.412 120.745 111.143 120.818 111.565C121.384 114.853 121.053 118.447 121.008 121.781C120.93 127.438 120.716 132.965 120.986 138.647C121.914 158.12 119.868 177.782 119.868 197.264C119.868 205.691 119.738 214.127 119.868 222.552C119.949 227.811 126.029 226.816 130.105 226.816C133.738 226.816 139.488 228.914 140.089 224.156C141.052 216.54 140.633 209.54 139.456 201.972C138.389 195.112 139.534 188.446 140.174 181.581C140.966 173.079 141.616 164.458 140.849 155.934C139.995 146.427 140.005 136.435 140.005 126.889C140.005 121.602 140.126 115.619 138.401 110.636C137.367 107.65 125.962 109.218 123.667 109.791" stroke="#0000FE" stroke-width="3" stroke-linecap="round"/>
<path d="M164.322 116.631C164.322 110.761 164.114 128.368 163.942 134.235C163.752 140.701 163.221 147.21 163.646 153.697C164.761 170.689 165.842 187.738 165.842 204.779C165.842 211.878 164.691 219.022 165.082 226.056C165.239 228.881 172.227 227.956 173.821 227.956C176.041 227.956 184.546 230.319 185.198 227.386C186.283 222.504 186.557 217.383 186.338 212.336C186.094 206.735 184.079 201.197 184.079 195.66C184.079 187.684 185.673 179.8 185.958 171.829C186.236 164.044 186.049 156.143 185.578 148.378C185.197 142.091 184.839 135.905 184.839 129.591C184.839 125.406 185.217 119.758 184.058 115.702C183.429 113.5 177.754 115.391 176.48 115.681C174.629 116.101 173.028 116.251 171.119 116.251C170.093 116.251 165.183 117.112 164.702 116.631" stroke="#0000FE" stroke-width="3" stroke-linecap="round"/>
<path d="M211.816 137.528C209.109 137.866 217.28 138.776 219.963 138.288C222.584 137.811 225.299 137.528 227.963 137.528C231.692 137.528 230.433 142.677 230.433 145.528C230.433 155.784 228.153 165.8 228.153 176.072C228.153 186.541 228.193 197.654 229.863 208.009C230.733 213.4 231.803 222.326 230.053 227.576" stroke="#0000FE" stroke-width="3" stroke-linecap="round"/>
<path d="M212.575 137.148C211.742 129.651 212.575 152.233 212.575 159.776C212.575 175.191 213.272 190.662 212.385 206.088C212.119 210.726 211.062 216.337 211.984 220.948C212.335 222.702 211.135 225.094 211.9 226.816C213.534 230.492 225.015 228.055 227.394 225.676" stroke="#0000FE" stroke-width="3" stroke-linecap="round"/>
<path d="M253.99 134.868C254.251 134.64 255.109 142.514 255.151 143.459C255.39 148.841 255.414 154.575 256.08 159.903C257.514 171.38 257.03 183.136 257.03 194.689C257.03 204.187 256.65 213.675 256.65 223.185C256.65 224.043 256.815 227.043 257.6 227.217C259.747 227.694 262.204 228.07 264.439 227.935C266.428 227.814 274.826 228.078 275.563 225.592C276.75 221.584 276.027 216.139 276.027 211.977C276.027 200.314 275.198 188.771 275.352 177.043C275.416 172.091 276.182 132.968 274.127 132.968C272.613 132.968 271.16 133.132 269.652 133.264C266.925 133.503 264.186 132.796 261.42 133.053C259.913 133.193 257.597 133.791 256.27 133.348" stroke="#0000FE" stroke-width="3" stroke-linecap="round"/>
<path d="M51.0967 10.6245C51.0967 19.425 49.8225 27.7083 50.6957 36.44C51.2364 41.8476 51.8566 47.3491 51.8566 52.8412C51.8566 64.4533 50.7168 76.1057 50.7168 87.7122C50.7168 99.659 51.6091 111.505 51.8566 123.385C51.9671 128.69 52.5968 134.065 52.9754 139.364C53.655 148.879 52.6532 158.684 52.2577 168.177C51.7165 181.165 51.8812 194.081 51.1178 207.059C50.8442 211.711 50.3368 216.51 50.3368 221.159C50.3368 223.068 49.5433 226.172 51.4978 227.027C56.0667 229.026 64.8046 229.332 69.5454 227.977C72.7573 227.059 70.433 211.16 70.0098 208.41C68.9283 201.38 69.3343 193.405 69.3343 186.246C69.3343 178.446 70.8541 170.656 70.8541 162.837C70.8541 150.877 70.4742 138.885 70.4742 126.889C70.4742 121.585 70.0942 116.258 70.0942 110.931C70.0942 100.994 70.3082 90.7528 69.6298 80.8309C68.6065 65.8648 70.0942 50.6945 70.0942 35.7012C70.0942 30.7693 70.2312 25.8136 70.0942 20.8832C70.0293 18.5464 70.2288 14.347 69.2499 12.1443C66.6511 6.29709 55.5417 9.73187 51.4767 11.7644" stroke="#FE0000" stroke-width="3" stroke-linecap="round"/>
<path d="M95.1709 41.4005C95.1709 33.6512 96.6907 56.8493 96.6907 64.5985C96.6907 74.9902 98.9704 85.4323 98.9704 95.9022C98.9704 125.179 98.0725 154.438 97.8306 183.713C97.7411 194.542 96.6907 205.399 96.6907 216.177C96.6907 219.846 94.2986 226.816 100.11 226.816C104.441 226.816 108.809 226.816 113.219 226.816C117.81 226.816 116.448 220.171 116.448 216.958C116.448 210.067 115.509 203.261 115.308 196.42C115.227 193.673 114.168 191.045 114.168 188.251C114.168 181.987 114.617 175.734 115.393 169.528C116.904 157.434 116.828 144.962 116.828 132.778C116.828 121.422 117.208 110.024 117.208 98.6463C117.208 92.0816 117.208 85.5169 117.208 78.9522C117.208 72.5323 117.571 65.242 116.638 58.8993C115.809 53.2616 116.844 46.6456 114.084 41.4005C111.233 35.9828 101.133 39.8282 97.0707 40.6406" stroke="#FE0000" stroke-width="3" stroke-linecap="round"/>
<path d="M140.385 66.0972C140.488 67.9475 141.28 69.7443 141.44 71.6276C141.712 74.8232 141.525 78.091 141.525 81.2952C141.525 87.1098 141.145 92.9017 141.145 98.7096C141.145 106.69 141.531 114.636 142.2 122.583C143.05 132.674 142.285 143.01 142.285 153.106C142.285 162.3 142.665 171.444 142.665 180.631C142.665 194.171 142.289 207.655 141.905 221.117C141.863 222.584 140.143 227.025 142.348 227.576C147.23 228.796 151.09 227.956 155.963 227.956C161.429 227.956 160.661 225.049 160.987 220.568C161.489 213.666 161.706 206.236 160.058 199.46C159.635 197.721 159.382 195.911 159.382 194.119C159.382 176.617 161.662 159.284 161.662 141.749C161.662 119.951 163.043 97.9736 161.303 76.2292C161.068 73.2892 161.657 69.559 160.227 66.8571C157.888 62.4394 146.077 64.581 143.045 66.0972" stroke="#FE0000" stroke-width="3" stroke-linecap="round"/>
<path d="M186.739 42.5403C186.115 41.9943 186.733 43.6187 186.739 44.0179C186.783 47.1398 186.804 50.2776 186.549 53.39C186.058 59.3779 185.498 65.4154 185.198 71.4165C184.453 86.3069 185.145 100.78 186.908 115.638C189.841 140.366 187.879 165.677 187.879 190.51C187.879 200.234 187.499 209.896 187.499 219.618C187.499 221.979 186.105 227 188.47 228.505C190.278 229.655 193.831 228.336 195.858 228.336C197.883 228.336 199.938 229.157 201.958 228.526C207.883 226.674 206.116 217.342 206.116 212.336C206.116 206.943 204.035 201.865 203.837 196.716C203.586 190.21 204.503 183.781 204.597 177.211C204.761 165.69 205.736 154.176 205.736 142.636C205.736 132.264 205.356 121.926 205.356 111.543C205.356 91.4322 204.976 71.2311 204.976 51.0681C204.976 48.219 205.407 44.9726 203.921 42.5403C200.938 37.6588 191.155 42.1604 187.119 42.1604" stroke="#FE0000" stroke-width="3" stroke-linecap="round"/>
<path d="M230.053 102.952C231.633 117.168 232.129 131.146 231.953 145.422C231.756 161.359 230.433 177.188 230.433 193.169C230.433 204.116 230.933 215.176 231.573 226.056C231.882 231.303 246.934 227.434 249.621 226.837C252.82 226.126 251.33 215.745 251.33 213.349C251.33 207.061 250.901 201.108 250.212 194.9C249.807 191.255 250.134 187.257 250.19 183.586C250.249 179.79 250.804 175.532 251.52 171.808C252.235 168.091 251.824 164.254 252.28 160.515C253.23 152.726 253.132 144.315 253.23 136.472C253.329 128.535 253.416 120.183 252.829 112.261C252.612 109.331 253.083 102.343 249.726 101.348C247.153 100.586 243.336 100.727 240.692 101.137C238.406 101.492 234.554 102.701 232.333 101.813" stroke="#FE0000" stroke-width="3" stroke-linecap="round"/>
<path d="M277.167 126.129C275.719 126.491 276.407 138.947 276.407 140.968C276.407 147.969 276.407 154.933 276.407 161.908C276.407 177.242 275.647 192.623 275.647 207.987C275.647 213.059 275.568 218.186 276.048 223.228C276.231 225.142 276.035 228.143 278.328 228.716C282.255 229.697 289.204 229.234 292.935 227.576C295.891 226.262 295.785 223.993 295.785 220.737C295.785 214.573 296.173 208.264 295.7 202.119C295.333 197.348 294.665 192.592 294.286 187.85C293.875 182.717 295.025 177.603 295.025 172.483C295.025 158.863 299.425 144.534 297.009 130.942C296.619 128.748 297.324 124.373 294.56 123.554C291.819 122.742 287.842 123.562 285.104 123.765C283.357 123.895 280.229 125.258 278.687 124.23" stroke="#FE0000" stroke-width="3" stroke-linecap="round"/>
<path d="M55.2762 16.7037C55.2762 13.2394 55.5163 23.6284 55.6772 27.089C55.8304 30.382 55.4999 35.9767 57.1759 38.9097C58.6343 41.4619 58.1962 33.1151 58.5057 30.192C58.9592 25.909 59.1992 21.4026 59.92 17.1681C60.3073 14.8928 61.4771 12.0825 64.3105 14.0441C67.5147 16.2623 65.9872 24.8479 65.3237 27.9756C64.3706 32.4687 63.6827 37.9888 64.0361 42.5826C65.1481 57.0375 63.9802 71.3186 63.3396 85.8124C63.151 90.0795 63.1646 94.3633 62.5796 98.6041C61.9992 102.812 60.4204 94.7642 60.2155 93.7492C57.2642 79.1266 58.3158 63.0891 58.3158 48.1763C58.3158 46.5709 59.2677 41.6358 58.2947 40.1762C57.8757 39.5477 57.9451 41.6584 57.9358 42.4137C57.8963 45.6171 57.6263 48.7255 57.2603 51.9124C56.0626 62.3428 59.0757 72.6308 59.0757 83.0683C59.0757 99.3319 58.3158 115.548 58.3158 131.807C58.3158 133.179 57.2553 125.456 57.1759 124.736C56.1584 115.506 56.9903 106.743 57.4714 97.5486C57.6805 93.5539 57.0776 89.8328 56.7749 85.8969C56.7069 85.0135 56.7048 83.2644 56.3316 82.4351C55.6854 80.9991 53.4414 77.9453 56.226 77.5169C62.9762 76.4784 64.9362 102.481 65.3237 106.689C66.4789 119.23 65.4713 131.937 66.5902 144.494C68.2494 163.112 66.6747 182.055 66.6747 200.726C66.6747 206.961 67.0546 213.171 67.0546 219.386C67.0546 220.738 67.3856 226.692 65.1549 226.816C62.9821 226.937 55.1996 225.729 54.5163 222.995C52.7203 215.811 54.9631 207.387 55.5717 200.22C56.4532 189.837 54.438 179.772 54.5163 169.444C54.5983 158.609 56.7189 147.925 58.1258 137.232C58.6107 133.547 58.397 126.476 58.1469 135.396C57.6096 154.561 62.3753 173.522 62.4952 192.705C62.5293 198.162 62.6904 203.693 62.8963 209.148C63.0419 213.008 64.0591 216.921 63.6351 220.737" stroke="#FE0000" stroke-opacity="0.2" stroke-width="10" stroke-linecap="round"/>
<path d="M100.87 41.7804C101.495 36.7812 102.023 51.7916 102.474 56.8096C102.98 62.4397 102.137 68.1697 103.825 73.6962C105.11 77.902 108.228 68.1627 108.385 67.2793C109.461 61.2047 108.849 55.281 108.849 49.1683C108.849 47.5585 109.251 42.6166 110.664 46.8042C112.594 52.5204 112.31 58.053 111.699 63.9653C110.625 74.3483 111.31 83.7307 112.459 94.0658C113.502 103.452 112.922 112.92 112.628 122.33C111.868 146.637 109.989 170.798 109.989 195.154C109.989 203.541 109.791 211.913 109.609 220.272C109.541 223.413 107.958 224.647 104.965 224.536C100.493 224.371 101.575 217.799 101.166 214.573C100.158 206.64 102.801 199.14 102.158 191.291C100.604 172.339 103.174 153.285 102.749 134.172C102.471 121.663 100.977 108.634 101.82 96.1555C102.209 90.4011 101.63 84.6518 101.63 78.8889C101.63 75.7915 101.845 72.8209 100.87 69.8967" stroke="#FE0000" stroke-opacity="0.2" stroke-width="10" stroke-linecap="round"/>
<path d="M144.564 72.1764C145.125 66.0049 145.324 84.5548 145.324 90.7518C145.324 97.7511 146.464 104.678 146.464 111.691C146.464 132.126 146.844 152.516 146.844 172.948C146.844 183.298 147.224 193.638 147.224 203.998C147.224 209.137 145.746 214.173 145.746 219.217C145.746 223.324 148.43 225.049 152.163 224.515C156.451 223.903 155.439 214.775 155.773 211.766C157.237 198.588 152.55 185.95 153.768 172.821C154.558 164.305 154.602 155.418 155.773 146.984C156.453 142.085 155.583 136.781 155.583 131.829C155.583 125.806 155.583 119.783 155.583 113.76C155.583 99.5018 154.811 85.245 154.063 71.0366C153.907 68.0672 149.327 68.2528 147.393 69.1368C145.532 69.9877 148.143 67.2862 148.828 67.0682C151.193 66.3159 154.965 68.0681 157.103 69.1368" stroke="#FE0000" stroke-opacity="0.2" stroke-width="10" stroke-linecap="round"/>
<path d="M190.918 44.4401C189.532 46.1349 189.515 49.8361 189.42 51.8913C189.246 55.6252 189.019 59.317 189.019 63.0576C189.019 69.0178 188.743 75.3606 188.174 81.2952C187.741 85.8173 188.546 90.555 188.66 95.1001C188.836 102.157 189.556 109.211 189.8 116.272C190.237 128.955 191.843 141.646 192.523 154.33C193.622 174.853 192.818 195.123 192.818 215.629C192.818 217.768 192.694 224.156 195.837 224.156C199.671 224.156 200.345 216.917 200.417 214.278C200.626 206.656 200.752 199.127 199.488 191.544C199.075 189.065 198.268 186.732 197.842 184.262C197.027 179.537 198.017 175.076 198.433 170.372C200.418 147.934 200.945 125.571 200.797 103.037C200.72 91.3171 200.12 79.5594 199.678 67.8492C199.39 60.1983 199.982 53.5541 196.998 46.4243C195.868 43.7253 195.078 47.739 194.929 48.7673C193.531 58.4273 193.755 68.6895 193.979 78.4245C194.121 84.5904 194.646 90.76 195.013 96.9154C195.511 105.247 194.956 113.609 195.478 121.95" stroke="#FE0000" stroke-opacity="0.2" stroke-width="10" stroke-linecap="round"/>
<path d="M235.372 105.612C235.372 103.178 235.275 110.484 235.394 112.916C235.644 118.043 237.21 123.074 237.61 128.177C238.351 137.622 238.032 147.425 238.032 156.905C238.032 173.91 237.518 191.93 234.803 208.768C234.243 212.236 234.026 220.118 237.272 222.552C240.81 225.205 243.879 223.498 244.491 219.365C245.668 211.421 244.527 203.199 245.167 195.196C245.778 187.56 243.731 180.095 243.731 172.483C243.731 164.349 244.575 155.947 245.251 147.829C246.077 137.915 246.011 128.01 246.011 118.066C246.011 114.359 246.538 98.0408 239.932 105.591C238.853 106.824 237.226 107.556 237.272 109.412C237.365 113.117 241.359 115.362 243.647 117.686C250.32 124.465 248.528 136.728 247.341 145.169C246.106 153.948 245.535 162.884 244.956 171.723C244.259 182.341 245.376 193.023 244.491 203.639" stroke="#FE0000" stroke-opacity="0.2" stroke-width="10" stroke-linecap="round"/>
<path d="M280.966 128.409C280.031 128.877 280.772 137.896 280.671 139.428C280.31 144.883 279.467 149.908 280.017 155.407C280.965 164.888 279.672 174.502 280.185 184.008C280.481 189.477 280.207 195.038 280.207 200.515C280.207 204.217 280.727 207.866 280.565 211.576C280.471 213.737 279.816 215.859 280.502 217.993C281.19 220.132 284.293 224.256 287.046 223.185C292.241 221.165 290.845 212.329 290.845 207.987C290.845 193.429 292.868 178.961 291.31 164.42C290.04 152.574 289.705 141.063 289.705 129.148C289.705 128.301 289.999 126.761 291.035 126.53C292.725 126.155 291.736 132.198 291.69 132.757C290.759 144.025 291.278 155.656 289.241 166.784C287.516 176.203 284.388 185.336 283.436 194.858C282.941 199.813 283.395 204.896 282.782 209.803C282.525 211.854 281.786 215.148 282.676 217.106C282.952 217.713 283.274 222.257 282.866 222.257C281.607 222.257 280.783 221.804 279.848 223.207C279.188 224.196 278.538 225.065 279.827 223.776" stroke="#FE0000" stroke-opacity="0.2" stroke-width="10" stroke-linecap="round"/>
<path d="M37.0386 42.5403C36.8891 41.1949 36.9591 41.6218 37.123 42.8781C37.5521 46.1679 37.4185 49.4879 37.4185 52.799C37.4185 56.106 37.4185 59.4129 37.4185 62.7199C37.4185 63.6627 36.7518 66.2151 37.4185 65.5484C38.8621 64.1048 39.2238 58.802 39.6138 56.894C40.4572 52.7672 40.9671 48.4118 42.4423 44.4401C43.5548 41.445 45.3043 42.1042 46.4529 44.9889C48.5609 50.2834 46.6778 57.1952 45.8618 62.5933C44.2783 73.0691 45.0175 83.2927 45.0175 93.7914C45.0175 106.027 45.3975 118.246 45.3975 130.478C45.3975 158.984 47.1672 187.42 45.0175 215.903C44.7404 219.575 42.8842 224.795 38.9383 226.204C35.4506 227.45 35.8876 208.006 36.1309 205.898C36.9366 198.915 38.6384 192.032 39.466 185.043C40.0942 179.738 39.6044 174.293 39.8882 168.958C40.7898 152.007 41.5633 135.594 39.8882 118.657C38.1062 100.639 40.1568 46.371 38.1573 64.3663C37.1665 73.2835 35.149 81.9188 35.7299 90.9628C36.7471 106.803 37.6176 122.539 37.7774 138.435C37.9245 153.076 38.5584 167.723 38.5584 182.362" stroke="#0000FE" stroke-opacity="0.2" stroke-width="10" stroke-linecap="round"/>
<path d="M78.4531 53.1789C79.3762 55.1404 79.3154 57.4474 79.593 59.5537C80.3331 65.1703 80.8536 70.7341 81.3238 76.377C81.6591 80.3999 81.8405 84.9028 82.8225 88.8309C83.0828 89.872 83.2879 89.0452 83.4769 88.3876C84.5607 84.6159 84.5323 80.6704 84.5323 76.7781C84.5323 75.1987 82.5312 51.8802 86.6643 54.0233C91.392 56.4747 90.9448 63.6299 90.7593 68.0814C90.4657 75.1272 89.1504 82.1411 89.0917 89.1898C88.8804 114.547 87.9519 139.917 87.9519 165.264C87.9519 180.095 87.2036 194.858 86.8331 209.676C86.7545 212.819 88.281 222.03 84.2368 223.776C83.5198 224.086 81.808 225.287 81.0283 224.747C78.3738 222.91 78.8627 217.984 79.023 215.354C79.6861 204.48 79.6185 193.506 80.4373 182.657C81.5089 168.459 82.8042 153.95 82.9914 139.723C83.204 123.563 81.8727 107.411 81.8727 91.2584C81.8727 90.6757 81.4169 87.4308 82.2526 87.0789C86.3032 85.3734 89.0896 103.699 89.1973 105.338C89.7126 113.183 88.7214 121.101 88.9228 128.958C89.1849 139.178 90.2597 149.338 90.5271 159.565C91.0832 180.835 90.2316 244.674 90.2316 223.397" stroke="#0000FE" stroke-opacity="0.2" stroke-width="10" stroke-linecap="round"/>
<path d="M127.087 113.211C126.144 115.864 126.327 118.513 126.327 121.296C126.327 127.386 125.731 133.43 125.588 139.512C125.381 148.297 126.327 157.163 126.327 165.982C126.327 176.38 126.18 186.747 125.968 197.138C125.836 203.588 125.326 210.506 126.031 216.937C126.337 219.727 126.121 222.332 128.775 223.924C131.217 225.389 133.91 221.847 134.221 219.808C136.318 206.088 132.155 192.271 132.026 178.647C131.954 170.982 134.596 163.572 134.285 155.955C134.115 151.788 133.166 147.695 133.166 143.523C133.166 135.02 132.622 126.463 133.546 118.15C133.578 117.861 134.434 115.757 134.876 115.934C136.098 116.423 136.19 122.094 136.206 123.09C136.311 129.703 136.341 136.364 136.121 142.974C135.65 157.15 134.883 171.295 135.087 185.486C135.143 189.385 135.446 201.08 135.446 197.18" stroke="#0000FE" stroke-opacity="0.2" stroke-width="10" stroke-linecap="round"/>
<path d="M170.401 119.67C169.74 126.943 167.004 133.783 167.446 141.201C167.964 149.898 170.401 158.532 170.401 167.227C170.401 181.427 172.23 196.331 170.485 210.478C170.077 213.791 169.107 218.681 170.865 221.792C171.977 223.758 174.334 223.397 176.248 223.397C182.866 223.397 180.72 209.432 180.66 204.948C180.57 198.346 180.488 191.871 179.984 185.275C179.712 181.716 179.126 178.196 178.844 174.636C178.456 169.729 179.228 164.78 179.119 159.86C178.947 152.12 178.072 144.467 177.43 136.768C177.016 131.799 176.343 126.471 177.536 121.57C177.941 119.902 179.704 116.368 179.731 120.515C179.815 133.377 175.893 145.68 174.77 158.404C172.966 178.853 175.34 199.155 175.34 219.597" stroke="#0000FE" stroke-opacity="0.2" stroke-width="10" stroke-linecap="round"/>
<path d="M215.615 142.847C217.112 152.575 219.109 162.819 218.465 172.737C217.727 184.098 216.955 195.595 216.755 206.974C216.701 210.054 214.492 219.732 217.346 222.067C218.454 222.974 223.053 225.276 223.594 222.573C225.24 214.344 223.594 205.02 223.594 196.631C223.594 187.046 224.094 177.542 223.615 167.966C223.29 161.472 223.336 154.81 223.214 148.335C223.184 146.721 222.934 141.707 225.494 141.707" stroke="#0000FE" stroke-opacity="0.2" stroke-width="10" stroke-linecap="round"/>
<path d="M261.209 135.628C260.441 135.724 260.073 144.638 259.985 145.76C259.566 151.111 260.069 156.512 260.069 161.887C260.069 173.138 260.069 184.388 260.069 195.639C260.069 200.287 260.449 204.921 260.449 209.549C260.449 213.042 260.285 216.587 261.293 219.977C262.114 222.738 268.501 224.674 269.737 221.497C271.152 217.857 269.731 212.165 269.589 208.41C269.395 203.256 270.27 198.081 269.758 192.958C268.776 183.138 267.63 172.364 268.724 162.52C269.423 156.224 271.585 148.817 270.328 142.53C270.092 141.351 268.998 136.261 267.668 137.148" stroke="#0000FE" stroke-opacity="0.2" stroke-width="10" stroke-linecap="round"/>
<path d="M312.994 124.3C312.994 127.812 312.994 131.361 312.994 134.819C312.994 136.428 320.202 134.879 321.347 134.624C324.072 134.019 322.894 127.572 322.894 125.331C322.894 124.693 323.154 123.681 322.275 123.681C319.196 123.681 315.276 123.715 312.581 125.331" stroke="#FE0000" stroke-linecap="round"/>
<path d="M312.788 114.194C312.788 116.195 312.994 118.199 312.994 120.186C312.994 120.686 312.68 123.024 313.109 123.269C315.307 124.525 319.114 122.65 321.554 122.65C322.338 122.65 322.519 122.072 322.642 121.367C323.012 119.239 322.975 116.627 322.894 114.446C322.853 113.345 322.347 113.554 321.565 113.575C318.786 113.648 315.94 114.15 313.2 114.606" stroke="#0000FE" stroke-linecap="round"/>
<path d="M317.532 117.7C317.259 115.245 313.518 120.316 315.996 120.977C317.374 121.344 318.975 119.309 318.975 118.112" stroke="#0000FE" stroke-opacity="0.2" stroke-width="10" stroke-linecap="round"/>
<path d="M318.15 128.013C317.297 128.603 315.893 132.199 317.933 131.817C319.147 131.589 320.007 130.68 320.007 129.456" stroke="#FE0000" stroke-opacity="0.2" stroke-width="10" stroke-linecap="round"/>
<path d="M327.226 117.494C327.226 118.208 327.396 118.945 327.432 119.556C327.52 121.054 327.177 119.183 327.386 118.479C328.483 114.777 330.827 119.842 327.844 120.587" stroke="black" stroke-linecap="round"/>
<path d="M331.351 118.937C330.973 119.362 331.456 119.761 331.866 119.442C332.353 119.063 331.994 118.514 331.454 118.754C329.904 119.443 331.867 121.567 333.413 120.794" stroke="black" stroke-linecap="round"/>
<path d="M334.238 118.731C334.093 118.749 333.712 120.945 334.043 119.453C334.23 118.613 334.809 118.421 335.27 119.098C335.943 120.088 335.586 120.347 336.198 119.247C336.906 117.972 337.54 119.355 337.745 120.175" stroke="black" stroke-linecap="round"/>
<path d="M341.251 118.731C341.176 118.136 338.985 119.048 339.693 120.129C340.482 121.336 341.56 119.658 341.251 118.731Z" stroke="black" stroke-linecap="round"/>
<path d="M343.726 118.525C343.726 117.307 342.851 118.52 342.718 119.121C342.475 120.214 344.073 120.353 344.551 119.556" stroke="black" stroke-linecap="round"/>
<path d="M345.17 118.525C345.17 119.547 344.867 120.215 345.216 118.937C345.428 118.16 346.623 118.316 347.232 118.112" stroke="black" stroke-linecap="round"/>
<path d="M349.089 119.35C349.023 118.228 348.02 119.306 347.874 119.854C347.552 121.06 348.878 119.988 349.043 119.396C349.55 117.579 349.687 119.962 350.945 120.381" stroke="black" stroke-linecap="round"/>
<path d="M352.182 117.081C352.182 115.836 352.293 119.586 352.595 120.794" stroke="black" stroke-linecap="round"/>
<path d="M350.945 118.319C349.973 118.319 352.91 118.214 353.832 117.906" stroke="black" stroke-linecap="round"/>
<path d="M326.813 128.013C326.876 128.577 327.49 131.659 327.18 130.534C326.919 129.588 327.032 126.592 328.566 126.592C330.217 126.592 328.816 128.278 328.36 128.735C328.066 129.029 329.92 130.986 330.319 131.519" stroke="black" stroke-linecap="round"/>
<path d="M331.763 130.075C330.909 130.182 334.843 129.792 333.207 128.884C331.713 128.053 331.567 131.993 333.826 130.488" stroke="black" stroke-linecap="round"/>
<path d="M335.063 129.25C335.063 130.494 335.372 131.663 335.636 132.871C335.847 133.837 335.063 130.949 335.063 129.961C335.063 127.756 339.001 129.797 336.095 130.281" stroke="black" stroke-linecap="round"/>
<path d="M337.951 129.25C337.534 129.302 337.921 131.074 338.89 130.453C339.611 129.992 339.724 128.673 340.22 128.425" stroke="black" stroke-linecap="round"/>
<path d="M340.838 126.569C340.745 126.499 340.838 128.795 340.838 129.25C340.838 130.298 341.41 129.003 342.179 129.17C342.649 129.272 344.028 129.859 343.703 130.591C343.478 131.096 341.796 131.254 342.076 130.694" stroke="black" stroke-linecap="round"/>
<path d="M344.138 126.363C344.24 127.582 343.873 130.089 344.551 131.107" stroke="black" stroke-linecap="round"/>
<path d="M346.201 129.044C346.201 128.839 346.552 129.89 346.614 130.075" stroke="black" stroke-linecap="round"/>
<path d="M347.026 126.775L346.82 126.363" stroke="black" stroke-linecap="round"/>
<path d="M349.707 128.425C348.909 127.866 347.492 131.333 350.12 130.281" stroke="black" stroke-linecap="round"/>
<path d="M353.42 129.456C351.715 127.539 351.318 131.764 352.389 130.694C352.644 130.439 353.003 129.327 353.317 129.571C353.971 130.08 353.968 130.808 354.864 131.107" stroke="black" stroke-linecap="round"/>
<path d="M355.689 129.25C355.689 131.286 355.546 130.9 356.514 129.502C357.571 127.975 358.394 131.761 358.783 132.344" stroke="black" stroke-linecap="round"/>
<path d="M3.63536 142.7C3.2618 142.899 3.72586 142.825 3.90483 142.827C5.3054 142.85 6.69631 142.955 8.10297 142.955" stroke="black" stroke-linecap="round"/>
<path d="M3.76299 142.955C4.69443 141.661 6.67487 141.104 7.36546 139.636C7.39282 139.578 2.44469 139.253 1.72066 139.253" stroke="black" stroke-linecap="round"/>
<path d="M4.91182 137.466C4.97881 138.002 7.47482 137.373 7.73422 136.878C8.36793 135.668 5.52918 135.296 4.91182 135.296" stroke="black" stroke-linecap="round"/>
<path d="M4.91182 133.382C5.62569 133.382 6.33957 133.382 7.05344 133.382C7.28447 133.382 8.11951 133.464 7.46475 133.254C7.10488 133.138 3.26792 132.113 5.19548 131.524C6.04526 131.264 6.91881 131.242 7.76259 131.02C8.28845 130.882 6.37097 130.282 6.15992 130.191C3.91063 129.22 6.74847 128.123 7.72004 127.638" stroke="black" stroke-linecap="round"/>
<path d="M1.46537 126.744C1.31269 125.904 6.05482 125.795 6.68468 125.751C8.55782 125.62 6.6422 125.642 5.79825 125.326C4.35434 124.784 4.42793 122.949 5.93299 122.489C6.83646 122.213 9.00182 123.548 8.10297 124.446" stroke="black" stroke-linecap="round"/>
<path d="M6.06064 120.362C6.89598 121.197 5.70364 117.756 5.33022 118.596C4.77096 119.854 6.86626 120.696 7.77677 120.305C8.96193 119.796 7.95508 118.28 7.46475 117.681" stroke="black" stroke-linecap="round"/>
<path d="M5.03946 116.66C4.30198 116.537 8.00513 116.504 7.26617 116.391C6.43905 116.263 5.293 116.019 4.86926 115.199C4.51779 114.519 4.73192 113.669 4.52887 112.958" stroke="black" stroke-linecap="round"/>
<path d="M6.57121 106.959C5.56472 107.824 5.32056 108.419 6.45775 109.342C7.06629 109.835 8.31645 110.072 8.88302 109.356C9.70526 108.316 8.20969 106.442 7.29454 106.037C6.15479 105.533 5.43112 106.475 4.78416 107.214" stroke="black" stroke-linecap="round"/>
<path d="M6.95416 104.151C7.2754 104.151 9.03852 104.107 7.73422 104.179C6.04998 104.273 4.29833 104.542 2.61419 104.335C1.1425 104.154 2.90017 101.89 3.63536 101.47" stroke="black" stroke-linecap="round"/>
<path d="M5.4224 105.682C5.38365 104.403 5.29475 103.134 5.29475 101.853" stroke="black" stroke-linecap="round"/>
<path d="M3.50771 98.0875C2.42134 98.0272 4.38523 97.392 4.66361 97.2578C5.68945 96.7632 6.75845 96.3326 7.81931 95.9175C9.03841 95.4405 7.55316 95.1149 6.7485 94.8467C5.24873 94.3468 3.55751 94.1305 1.97595 94.1305" stroke="black" stroke-linecap="round"/>
<path d="M5.55005 92.0881C6.30237 91.9145 7.12065 91.9476 7.84768 91.7052" stroke="black" stroke-linecap="round"/>
<path d="M3.63535 91.5776C3.51774 91.5923 3.55081 91.619 3.50771 91.7052" stroke="black" stroke-linecap="round"/>
<path d="M5.16711 88.6417C4.69786 87.8075 5.21091 89.8779 6.18828 89.1239C6.56646 88.8322 6.87702 87.8502 7.49311 88.0602C7.73308 88.142 8.43296 88.9219 7.97533 88.7693" stroke="black" stroke-linecap="round"/>
<path d="M5.67769 86.3441C5.72118 85.9962 7.59284 85.9611 7.97532 85.9611" stroke="black" stroke-linecap="round"/>
<path d="M3.50771 86.2164C3.41606 86.2979 3.361 86.3079 3.25241 86.3441" stroke="black" stroke-linecap="round"/>
<path d="M3.12477 83.9188C1.41434 83.9188 6.57125 83.823 8.23062 83.4082" stroke="black" stroke-linecap="round"/>
<path d="M5.93298 84.3017C5.54961 84.2591 5.25386 82.6453 5.03946 82.2594" stroke="black" stroke-linecap="round"/>
<path d="M4.52887 79.7065C4.30382 79.5096 4.61512 80.0616 4.78416 80.1461C5.23184 80.37 5.71439 79.6798 5.96134 79.3945C6.89141 78.3197 7.84767 78.5708 7.84767 80.0894" stroke="black" stroke-linecap="round"/>
<path d="M12.3153 55.5813C12.6774 56.5981 12.9535 57.5657 12.9535 58.6449" stroke="black" stroke-linecap="round"/>
<path d="M15.7617 55.5813C15.9854 55.3257 15.4418 55.7739 15.3859 55.8437C15.0452 56.2696 14.8895 57.0723 15.1448 57.567C15.8734 58.9786 17.768 56.7121 16.5276 56.0919" stroke="black" stroke-linecap="round"/>
<path d="M20.1017 55.3261C18.8743 54.2278 17.6353 56.7492 18.5345 57.7301C19.4586 58.7382 21.4612 55.9817 19.3358 55.0708" stroke="black" stroke-linecap="round"/>
<path d="M14.9959 140.658V142.317" stroke="black" stroke-linecap="round"/>
<path d="M14.8682 140.913C15.4551 140.261 16.0128 139.892 16.9106 139.892" stroke="black" stroke-linecap="round"/>
<path d="M15.2512 142.062C15.8486 142.104 16.6102 142.34 16.5985 143.054C16.5928 143.406 15.7153 144.777 15.5065 144.359" stroke="black" stroke-linecap="round"/>
<path d="M19.2082 141.168C18.6316 140.246 17.7256 142.463 18.1161 143.21C18.7391 144.403 21.362 142.012 19.4635 141.168" stroke="black" stroke-linecap="round"/>
<path d="M15.7617 98.6619C16.5098 99.3268 18.0765 98.4805 18.5983 99.0023C18.9759 99.3799 17.5457 101.1 17.4211 101.598" stroke="black" stroke-linecap="round"/>
<path d="M20.6123 98.4066C20.3377 98.5439 20.357 99.5157 20.357 99.8107" stroke="black" stroke-linecap="round"/>
<path d="M20.2294 99.1725C20.5522 98.3508 21.2471 97.7684 22.144 97.7684" stroke="black" stroke-linecap="round"/>
<path d="M20.2294 99.9384C20.7337 100.155 22.182 100.324 22.1228 101.094C22.0818 101.627 20.8633 102.232 20.4846 101.853" stroke="black" stroke-linecap="round"/>
<path d="M19.4635 227.138C19.5978 226.556 19.2385 226.431 18.7614 226.705C17.9456 227.175 17.6075 228.401 17.953 229.265C18.5368 230.725 22.0051 227.428 19.3358 226.627" stroke="black" stroke-linecap="round"/>
<path d="M16.4 184.695C15.9316 184.414 17.983 184.159 17.407 185.475C17.2517 185.83 16.6549 186.629 17.1871 186.922C17.6833 187.195 18.3215 187.161 18.8252 186.993" stroke="black" stroke-linecap="round"/>
<path d="M19.3358 183.802C19.206 184.402 19.1407 185.004 19.3358 185.589" stroke="black" stroke-linecap="round"/>
<path d="M19.0805 184.823C19.8336 184.07 20.5314 183.129 21.6335 182.908" stroke="black" stroke-linecap="round"/>
<path d="M19.4635 185.717C20.1559 186.035 21.5142 186.223 21.832 187.036C22.0277 187.536 21.006 188.149 20.6123 187.887" stroke="black" stroke-linecap="round"/>
<path d="M44.3545 242.774C44.128 242.483 44.6944 242.361 44.9005 242.413C46.1686 242.73 45.8979 243.819 45.4395 244.696C45.0885 245.368 44.7212 245.724 45.6168 245.81C46.1094 245.857 46.8106 245.998 47.2903 245.838" stroke="black" stroke-linecap="round"/>
<path d="M49.9709 243.03C49.8888 242.208 47.1454 243.413 48.2193 244.916C49.3463 246.494 51.2387 243.664 49.7156 242.902" stroke="black" stroke-linecap="round"/>
<path d="M53.1621 242.519C52.3865 242.674 51.8206 242.897 51.6303 243.725C51.5544 244.055 51.3135 244.965 51.8431 245.086C52.9412 245.338 53.9584 243.425 52.6515 242.902" stroke="black" stroke-linecap="round"/>
<path d="M54.6938 242.136C54.6304 242.834 54.2144 243.439 54.318 244.164C54.3718 244.542 55.7037 243.99 55.9703 243.923" stroke="black" stroke-linecap="round"/>
<path d="M56.3532 242.647C56.3532 241.497 56.2256 244.944 56.2256 246.093" stroke="black" stroke-linecap="round"/>
<path d="M89.0306 242.647C90.9227 240.904 92.4456 242.398 91.1368 244.54C91.0151 244.739 90.1849 245.592 90.8602 245.696C91.6892 245.824 92.53 245.607 93.243 245.2" stroke="black" stroke-linecap="round"/>
<path d="M94.7747 242.902C94.1344 243.062 93.0444 243.251 93.0444 244.122C93.0444 244.91 93.8132 245.439 94.5194 245.086C95.5987 244.547 96.191 243.332 94.9024 242.902" stroke="black" stroke-linecap="round"/>
<path d="M98.6041 243.03C98.4473 241.618 96.1831 242.982 96.7178 244.278C97.1861 245.413 99.9087 243.491 98.2212 242.647" stroke="black" stroke-linecap="round"/>
<path d="M102.178 241.881C101.726 241.479 99.8676 241.709 100.058 242.533C100.263 243.424 102.539 243.659 101.802 244.696C101.519 245.095 99.4006 246.579 99.838 245.157C100.208 243.954 101.437 243.035 101.668 241.881" stroke="black" stroke-linecap="round"/>
<path d="M134.409 242.902C134.972 242.515 135.85 242.312 136.324 242.93C136.983 243.791 135.842 244.72 135.331 245.327C134.228 246.636 136.823 246.116 137.472 245.838" stroke="black" stroke-linecap="round"/>
<path d="M139.515 242.519C138.304 242.048 137.445 244.679 138.621 245.285C139.84 245.912 141.235 242.281 139.259 242.774" stroke="black" stroke-linecap="round"/>
<path d="M142.068 242.009C142.779 242.364 142.091 245.281 142.578 246.093" stroke="black" stroke-linecap="round"/>
<path d="M143.982 242.136C144.353 241.84 144.981 242.25 145.174 242.597C145.62 243.401 145.047 244.25 144.706 244.959C144.025 246.37 145.848 245.914 146.663 245.71" stroke="black" stroke-linecap="round"/>
<path d="M155.981 248.901C156.15 249.102 158.665 252.014 158.733 251.61C158.76 251.446 158.614 251.274 158.662 251.114C158.889 250.357 159.345 249.539 159.881 248.958C160.229 248.581 159.506 249.923 159.456 250.05C158.896 251.459 158.246 252.829 157.768 254.263" stroke="black" stroke-linecap="round"/>
<path d="M160.959 251.965C161.093 252.902 164.656 249.538 162.392 250.845C159.994 252.228 162.178 255.098 163.385 252.986" stroke="black" stroke-linecap="round"/>
<path d="M165.937 251.199C163.962 250.635 165.066 255.286 165.994 251.837C166.095 251.462 165.937 250.615 166.327 251.348C166.699 252.044 166.866 253.387 167.597 253.752" stroke="black" stroke-linecap="round"/>
<path d="M168.746 251.454C169.241 251.73 169.299 254.516 169.001 252.617C168.708 250.748 169.694 250.456 170.916 249.54" stroke="black" stroke-linecap="round"/>
<path d="M178.191 242.902C179.559 242.259 181.741 242.446 180.241 244.292C179.219 245.549 181.447 245.2 182.149 244.944" stroke="black" stroke-linecap="round"/>
<path d="M185.084 242.647C184.136 241.888 182.107 244.187 183.51 244.788C184.88 245.376 186.796 242.613 184.701 242.264" stroke="black" stroke-linecap="round"/>
<path d="M187.893 242.391C187.276 242.469 187.307 245.583 187.51 245.583" stroke="black" stroke-linecap="round"/>
<path d="M190.828 242.009C189.338 241.636 188.939 246 190.318 246.037C191.691 246.073 191.723 242.39 189.935 245.072" stroke="black" stroke-linecap="round"/>
<path d="M223.761 242.647C224.397 242.356 224.789 242.355 225.215 242.966C225.79 243.791 225.245 244.423 224.818 245.214C224.199 246.359 226.935 245.847 227.463 245.583" stroke="black" stroke-linecap="round"/>
<path d="M229.633 242.902C229.163 241.65 227.508 243.922 227.732 244.76C228.222 246.592 232.158 243.203 229.378 242.647" stroke="black" stroke-linecap="round"/>
<path d="M231.292 242.774C231.452 241.975 232.745 242.876 232.03 244.015C231.791 244.396 230.735 245.384 231.533 245.682C232.457 246.026 232.882 245.496 233.335 244.817" stroke="black" stroke-linecap="round"/>
<path d="M235.888 242.264C235.734 241.574 233.587 243.077 233.937 244.235C234.246 245.257 235.102 245.024 235.753 244.441C236.179 244.059 236.656 243.528 236.739 242.93C236.853 242.096 236.148 242.069 235.632 241.753" stroke="black" stroke-linecap="round"/>
<path d="M268.437 243.03C268.901 242.566 269.775 242.553 270.366 242.803C271.188 243.15 270.139 244.373 269.863 244.732C268.828 246.077 271.724 245.156 272.267 244.817" stroke="black" stroke-linecap="round"/>
<path d="M274.947 243.03C273.643 242.073 272.051 244.956 273.054 245.164C273.817 245.323 274.696 244.537 275.039 243.937C275.573 243.008 274.933 242.808 274.309 242.391" stroke="black" stroke-linecap="round"/>
<path d="M276.096 242.391C277.739 242.391 277.335 243.519 276.543 244.611C276.371 244.848 275.503 245.566 276.124 245.781C276.815 246.021 277.789 245.838 278.521 245.838" stroke="black" stroke-linecap="round"/>
<path d="M279.415 242.774C278.354 244.46 279.588 244.331 280.947 243.923" stroke="black" stroke-linecap="round"/>
<path d="M281.33 241.881C281.147 242.997 280.774 244.769 281.202 245.838" stroke="black" stroke-linecap="round"/>
<path d="M26.7304 0.790421C26.7304 17.9499 26.2562 35.1008 26.2562 52.2938C26.2562 75.7972 28.5512 98.9433 29.5492 122.396C30.4739 144.128 29.1014 165.988 29.1014 187.73C29.1014 193.922 28.5283 200.471 29.4702 206.593C29.9881 209.96 29.3001 213.432 29.8127 216.815C30.353 220.381 28.8833 223.958 30.0497 227.458" stroke="black" stroke-opacity="0.2" stroke-linecap="round"/>
<path d="M29.5756 224.613C22.5514 224.613 43.5835 226.039 50.4403 227.563C54.8497 228.543 59.6703 229.309 64.2185 228.854C74.549 227.821 84.605 226.984 95.0151 226.984C107.415 226.984 119.795 226.035 132.24 226.035C142.478 226.035 153.734 228.028 163.879 226.141C169.079 225.173 175.2 226.035 180.476 226.035C187.599 226.035 194.636 226.509 201.763 226.509C214.727 226.509 227.662 226.035 240.594 226.035C252.776 226.035 266.433 223.638 278.53 225.798C282.741 226.55 289.155 226.788 293.441 226.009C294.603 225.798 299.454 225.917 299.869 225.087" stroke="black" stroke-opacity="0.2" stroke-linecap="round"/>
</svg>
